<?xml version="1.0" encoding="utf-8"?>
<!-- Generator: Adobe Illustrator 22.1.0, SVG Export Plug-In . SVG Version: 6.00 Build 0)  -->
<svg version="1.1" id="Layer_1" xmlns="http://www.w3.org/2000/svg" xmlns:xlink="http://www.w3.org/1999/xlink" x="0px" y="0px"
	 viewBox="0 0 193.1 33.4" style="enable-background:new 0 0 193.1 33.4;" xml:space="preserve">
<style type="text/css">
	.st0{fill:#0013A8;}
</style>
<title>Asset 10</title>
<g id="Layer_2_1_">
	<g id="Layer_3">
		<path class="st0" d="M177.8,22.8c0.3,0.7,0.7,1.3,1.2,1.8c0.5,0.5,1.1,0.9,1.8,1.1c0.7,0.3,1.5,0.4,2.2,0.4c0.6,0,1.3-0.1,1.9-0.2
			c0.5-0.2,1-0.4,1.5-0.6c0.4-0.2,0.8-0.6,1.1-0.9c0.3-0.3,0.6-0.6,0.8-1l0.5,2.4h4.2v-12c0.1-1.9-0.5-3.7-1.8-5.1
			c-1.2-1.2-3.1-1.8-5.7-1.8c-1.4,0-2.7,0.2-4,0.6c-1.1,0.3-2.1,0.7-3,1.4l1.1,3.4c0.8-0.5,1.6-0.9,2.5-1.1c0.9-0.3,1.9-0.4,2.9-0.4
			c2.2,0,3.4,1,3.4,2.9v0.6h-2.6c-1.2,0-2.3,0.1-3.5,0.3c-0.9,0.2-1.8,0.6-2.6,1.1c-0.7,0.5-1.3,1.2-1.7,2c-0.4,0.9-0.6,2-0.6,3
			C177.3,21.3,177.5,22.1,177.8,22.8 M188.4,18.3c0,0.6-0.1,1.1-0.3,1.7c-0.6,1.7-2.2,2.8-4,2.7c-0.6,0-1.1-0.2-1.5-0.7
			c-0.4-0.4-0.6-1-0.6-1.6c0-0.9,0.3-1.7,1-2.2c0.8-0.6,1.8-0.9,2.8-0.8h2.6L188.4,18.3z M169.9,10.7h5.2V7.3h-5.2V2h-3.5l-1.1,5.2
			h-2.9v3.5h2.8V20c-0.1,1.7,0.4,3.3,1.4,4.6c0.9,1,2.4,1.5,4.4,1.5c0.8,0,1.6-0.1,2.3-0.3c0.7-0.2,1.4-0.5,2-0.9l-1-3.5
			c-0.7,0.5-1.6,0.8-2.5,0.9c-0.5,0-1-0.1-1.4-0.5c-0.3-0.5-0.5-1.1-0.5-1.7L169.9,10.7z M144.3,22.8c0.3,0.7,0.7,1.3,1.2,1.8
			c0.5,0.5,1.1,0.9,1.8,1.1c0.7,0.3,1.5,0.4,2.2,0.4c0.6,0,1.3-0.1,1.9-0.2c0.5-0.1,1-0.4,1.5-0.6c0.4-0.3,0.8-0.6,1.1-0.9
			c0.3-0.3,0.6-0.6,0.8-1l0.5,2.4h4.2v-12c0.1-1.9-0.5-3.7-1.8-5.1c-1.2-1.2-3.1-1.8-5.7-1.8c-1.4,0-2.7,0.2-4,0.6
			c-1.1,0.3-2.1,0.7-3,1.4l1.1,3.4c0.8-0.5,1.6-0.9,2.5-1.1c0.9-0.3,1.9-0.4,2.9-0.4c2.2,0,3.3,1,3.4,2.9v0.6h-2.6
			c-1.2,0-2.3,0.1-3.5,0.3c-0.9,0.2-1.8,0.6-2.6,1.1c-0.7,0.5-1.3,1.2-1.7,2c-0.4,0.9-0.6,2-0.6,3C143.9,21.3,144,22.1,144.3,22.8
			 M154.9,18.3c0,0.6-0.1,1.1-0.3,1.7c-0.4,1.1-1.2,1.9-2.2,2.4c-0.6,0.2-1.2,0.4-1.8,0.4c-0.6,0-1.2-0.2-1.6-0.7
			c-0.4-0.4-0.6-1-0.6-1.6c0-0.9,0.3-1.7,1-2.2c0.8-0.6,1.8-0.9,2.8-0.8h2.6L154.9,18.3z M135.7,16.7c-0.3,1-0.9,1.9-1.6,2.7
			c-0.7,0.7-1.6,1.3-2.6,1.6c-1.1,0.3-2.3,0.5-3.4,0.5h-3V4.3h3c1.2,0,2.3,0.1,3.4,0.5c1,0.3,1.8,0.8,2.6,1.5
			c0.7,0.7,1.3,1.6,1.6,2.6c0.4,1.3,0.6,2.6,0.6,3.9C136.3,14,136.1,15.4,135.7,16.7 M137.9,3.3c-2.3-2.2-5.5-3.3-9.8-3.3h-8v25.7h8
			c4.3,0,7.5-1.1,9.8-3.3c2.2-2.2,3.4-5.4,3.4-9.7C141.2,8.6,140.1,5.4,137.9,3.3 M101.3,24.4c0,1.8-0.4,3.1-1.3,3.8
			c-1.1,0.8-2.4,1.2-3.7,1.1c-0.9,0-1.8-0.1-2.7-0.3c-0.9-0.2-1.9-0.6-2.7-1.2l-1.2,3.8c1,0.6,2,1,3.2,1.3c1.3,0.3,2.7,0.5,4,0.5
			c1.2,0,2.4-0.2,3.6-0.5c2.2-0.6,4-2.3,4.8-4.5c0.5-1.4,0.7-2.8,0.7-4.2V7.3h-4.9v12.1c-0.5,0.7-1.1,1.2-1.8,1.7
			c-0.6,0.5-1.4,0.7-2.2,0.7c-0.8,0.1-1.6-0.2-2.2-0.8c-0.5-0.7-0.8-1.6-0.7-2.5V7.3h-4.9v11.4c-0.1,1.9,0.5,3.8,1.7,5.2
			c1.3,1.2,3,1.9,4.8,1.8c0.6,0,1.2-0.1,1.7-0.2c0.5-0.2,1-0.4,1.5-0.7c0.4-0.3,0.9-0.6,1.2-0.9c0.3-0.3,0.6-0.6,0.9-1L101.3,24.4z
			 M79.8,24.4c0,0.8-0.1,1.6-0.4,2.3c-0.2,0.6-0.6,1.1-1,1.5c-0.4,0.4-1,0.7-1.5,0.8c-0.7,0.2-1.3,0.2-2,0.2c-1,0-1.9-0.1-2.8-0.4
			c-1-0.2-1.9-0.7-2.8-1.2l-1.2,3.8c1,0.6,2.1,1.1,3.2,1.4c1.3,0.4,2.7,0.5,4.1,0.5c1.2,0,2.5-0.2,3.7-0.5c1.1-0.3,2.1-0.9,3-1.6
			c0.9-0.8,1.6-1.8,2-2.9c0.5-1.4,0.8-2.8,0.7-4.2V7.3h-4.4l-0.5,2.4c-0.6-0.8-1.2-1.4-2-2c-1-0.6-2.1-1-3.3-0.9
			c-1.1,0-2.3,0.2-3.3,0.8c-0.9,0.5-1.8,1.2-2.4,2.1c-0.7,0.9-1.2,1.9-1.5,3c-0.3,1.2-0.5,2.4-0.5,3.6c0,1.4,0.2,2.7,0.6,4
			c0.4,1.1,0.9,2.1,1.7,3c0.7,0.8,1.5,1.4,2.5,1.9c1,0.4,2,0.7,3.1,0.6c1.1,0.1,2.2-0.3,3.2-0.9c0.8-0.5,1.5-1.2,2-2L79.8,24.4z
			 M79.8,16.8c0.1,1.3-0.3,2.6-1.1,3.7c-0.7,0.8-1.8,1.3-2.8,1.3c-0.5,0-1.1-0.1-1.6-0.3c-0.5-0.2-1-0.5-1.3-1
			c-0.4-0.5-0.7-1.1-0.9-1.7c-0.2-0.9-0.3-1.7-0.3-2.6c-0.1-1.5,0.3-2.9,1.2-4.1c1.3-1.5,3.6-1.9,5.3-0.7c0.6,0.5,1.2,1.1,1.6,1.7
			L79.8,16.8z M58.1,24.4c0,0.8-0.1,1.6-0.4,2.3c-0.2,0.6-0.6,1.1-1,1.5c-0.4,0.4-1,0.7-1.5,0.8c-0.7,0.2-1.3,0.3-2,0.2
			c-1,0-1.9-0.1-2.8-0.4c-1-0.2-1.9-0.7-2.8-1.2l-1.2,3.8c1,0.6,2.1,1.1,3.2,1.4c1.3,0.4,2.7,0.5,4.1,0.5c1.2,0,2.5-0.2,3.6-0.5
			c1.1-0.3,2.1-0.9,3-1.6c0.9-0.8,1.6-1.8,2-2.9c0.5-1.4,0.8-2.8,0.7-4.2V7.3h-4.3L58,9.7c-0.6-0.8-1.2-1.4-2-2
			c-1-0.6-2.1-1-3.3-0.9c-1.1,0-2.3,0.2-3.3,0.8C48.5,8,47.6,8.8,47,9.6c-0.7,0.9-1.2,1.9-1.5,3C45.2,13.8,45,15,45,16.2
			c0,1.4,0.2,2.7,0.6,4c0.4,1.1,0.9,2.1,1.7,3c0.7,0.8,1.6,1.4,2.5,1.8c1,0.4,2,0.7,3.1,0.6c1.1,0,2.2-0.3,3.2-0.9
			c0.8-0.6,1.4-1.2,2-2L58.1,24.4z M58,16.8c0.1,1.3-0.3,2.6-1.1,3.7c-0.7,0.8-1.8,1.3-2.8,1.3c-0.5,0-1.1-0.1-1.6-0.3
			c-0.5-0.2-1-0.5-1.3-1c-0.4-0.5-0.7-1.1-0.9-1.7c-0.2-0.9-0.3-1.7-0.3-2.6c-0.1-1.5,0.3-2.9,1.2-4.1c1.3-1.6,3.6-1.9,5.3-0.7
			c0.6,0.5,1.2,1.1,1.6,1.7V16.8z M24.5,20.2c0.4,1.1,0.9,2.2,1.7,3.1c0.8,0.9,1.8,1.6,2.9,2.1c1.3,0.5,2.6,0.8,4,0.8
			c1.4,0,2.8-0.2,4-0.8c1.1-0.5,2.1-1.2,2.9-2.1c0.8-0.9,1.4-1.9,1.7-3.1c0.4-1.2,0.6-2.5,0.6-3.8c0-1.3-0.2-2.5-0.6-3.8
			c-0.4-1.1-0.9-2.2-1.7-3.1c-0.8-0.9-1.8-1.6-2.9-2.1c-1.3-0.5-2.7-0.8-4-0.8c-1.4,0-2.7,0.2-4,0.8C28,8,27,8.7,26.2,9.6
			c-0.8,0.9-1.4,1.9-1.7,3.1c-0.4,1.2-0.6,2.5-0.6,3.8C23.9,17.7,24.1,19,24.5,20.2 M29.8,12.1c0.7-1.1,2-1.7,3.3-1.6
			c1.3-0.1,2.5,0.5,3.3,1.6c0.8,1.3,1.1,2.8,1.1,4.3c0.1,1.5-0.3,3-1.1,4.3c-0.7,1.1-2,1.7-3.3,1.6c-1.3,0.1-2.5-0.5-3.3-1.6
			c-0.8-1.3-1.1-2.8-1.1-4.3C28.7,14.9,29.1,13.4,29.8,12.1 M15.6,16.6c-0.3,1-0.9,1.9-1.6,2.7c-0.7,0.7-1.6,1.3-2.6,1.6
			c-1.1,0.3-2.3,0.5-3.4,0.5H5V4.3h3c1.2,0,2.3,0.1,3.4,0.5c1,0.3,1.8,0.8,2.6,1.5c0.7,0.7,1.3,1.6,1.6,2.6c0.4,1.3,0.6,2.6,0.6,3.9
			C16.2,14,16,15.4,15.6,16.6 M17.8,3.3C15.5,1.1,12.3,0,8,0H0v25.7h8c4.3,0,7.5-1.1,9.8-3.3s3.4-5.4,3.4-9.7
			C21.1,8.6,20,5.4,17.8,3.3"/>
	</g>
</g>
</svg>
