<?xml version="1.0" encoding="utf-8"?>
<!-- Generator: Adobe Illustrator 22.1.0, SVG Export Plug-In . SVG Version: 6.00 Build 0)  -->
<svg version="1.1" id="Layer_1" xmlns="http://www.w3.org/2000/svg" xmlns:xlink="http://www.w3.org/1999/xlink" x="0px" y="0px"
	 viewBox="0 0 598 388" style="enable-background:new 0 0 598 388;" xml:space="preserve">
<style type="text/css">
	.st0{fill:#1D1D1B;}
	.st1{fill:#828281;}
	.st2{fill:none;stroke:#1D1D1B;stroke-width:0.4689;stroke-miterlimit:10;}
	.st3{clip-path:url(#SVGID_2_);fill:#1D1D1B;}
</style>
<title>Asset 13</title>
<g>
	<path class="st0" d="M91.9,63.3h-6.5c0.1-1.5,0.6-2.8,1.5-3.9c0.9-1.1,2.6-2.2,5-3.4L89,50.4c-3.9,1.7-6.6,3.7-8.2,5.9
		s-2.4,5.3-2.4,9.1v10.5h13.5V63.3z M76.1,63.3h-6.5c0.1-1.5,0.6-2.8,1.5-3.9s2.6-2.2,5-3.4l-2.9-5.6c-4,1.7-6.7,3.7-8.3,5.9
		c-1.6,2.2-2.4,5.3-2.4,9.1v10.5h13.6V63.3z"/>
	<path class="st0" d="M498.9,293.7h6.5c-0.1,1.5-0.6,2.8-1.5,3.9s-2.6,2.2-5,3.4l2.9,5.6c3.9-1.7,6.6-3.7,8.2-5.9s2.4-5.3,2.4-9.1
		v-10.5h-13.5V293.7z M514.8,293.7h6.5c-0.1,1.5-0.6,2.8-1.5,3.9c-0.9,1.1-2.6,2.2-5,3.4l2.9,5.6c3.9-1.7,6.6-3.7,8.2-5.9
		c1.6-2.2,2.4-5.3,2.4-9.1v-10.5h-13.6L514.8,293.7L514.8,293.7z"/>
	<path class="st0" d="M487.5,290.4c0.3,0.3,0.6,0.4,1,0.4c0.5,0,0.8-0.1,1.1-0.4c0.3-0.3,0.4-0.7,0.4-1.2c0-0.6-0.1-1-0.4-1.3
		c-0.3-0.3-0.6-0.4-1.1-0.4s-0.8,0.1-1.1,0.4c-0.3,0.3-0.4,0.7-0.4,1.3C487.1,289.7,487.2,290.2,487.5,290.4 M482.5,271.2h-2.1v19.3
		h2.1V271.2z M464.2,276.9v8.9c0,1.7,0.4,3,1.2,3.8c0.8,0.8,2.1,1.2,3.7,1.2c1,0,1.8-0.2,2.6-0.5c0.7-0.4,1.3-0.9,1.8-1.5h0.1
		l0.3,1.8h1.7v-13.7h-2.1v7.1c0,1.8-0.3,3-1,3.8c-0.7,0.8-1.7,1.2-3.1,1.2c-1.1,0-1.9-0.3-2.4-0.8s-0.8-1.4-0.8-2.5v-8.8H464.2z
		 M461.4,276.9h-3.5V276c0-1.1,0.2-2,0.6-2.5s0.9-0.8,1.7-0.8c0.6,0,1.2,0.1,2,0.4l0.5-1.6c-1-0.3-1.8-0.4-2.5-0.4
		c-2.9,0-4.4,1.7-4.4,5v0.8l-2.4,0.7v0.9h2.4v12h2.1v-12h3.5L461.4,276.9L461.4,276.9z M448.1,279.4c0.6,0.7,0.9,1.7,0.9,3h-7.1
		c0.1-1.3,0.5-2.2,1.1-2.9c0.6-0.7,1.5-1.1,2.6-1.1C446.7,278.3,447.6,278.7,448.1,279.4 M448.6,290.5c0.6-0.1,1.3-0.4,2.1-0.7V288
		c-1.4,0.6-2.9,0.9-4.3,0.9s-2.5-0.4-3.2-1.2c-0.8-0.8-1.2-2-1.2-3.6h9.4v-1.3c0-1.8-0.5-3.3-1.5-4.4s-2.3-1.7-4-1.7
		c-1.8,0-3.3,0.6-4.3,1.9c-1.1,1.3-1.6,3-1.6,5.2c0,2.2,0.6,3.9,1.7,5.1c1.2,1.2,2.7,1.8,4.8,1.8
		C447.1,290.7,447.9,290.6,448.6,290.5 M435.8,284.5c-0.6-0.6-1.7-1.2-3.3-1.8c-1.2-0.4-2-0.8-2.4-1c-0.4-0.2-0.7-0.5-0.9-0.7
		c-0.2-0.2-0.3-0.6-0.3-0.9c0-0.5,0.2-1,0.7-1.3c0.5-0.3,1.2-0.5,2.2-0.5c1.1,0,2.3,0.3,3.7,0.8l0.7-1.7c-1.4-0.6-2.8-0.9-4.3-0.9
		c-1.6,0-2.8,0.3-3.7,1c-0.9,0.6-1.4,1.5-1.4,2.6c0,0.6,0.1,1.2,0.4,1.6c0.3,0.4,0.7,0.8,1.2,1.2s1.4,0.8,2.7,1.2
		c1.3,0.5,2.2,1,2.7,1.3c0.5,0.4,0.7,0.8,0.7,1.4c0,0.7-0.3,1.2-0.9,1.6c-0.6,0.3-1.4,0.5-2.5,0.5c-0.7,0-1.4-0.1-2.2-0.3
		c-0.7-0.2-1.4-0.5-2.1-0.8v1.9c1,0.6,2.4,0.9,4.2,0.9c1.7,0,3-0.3,4-1c0.9-0.7,1.4-1.7,1.4-2.9
		C436.6,285.8,436.3,285.1,435.8,284.5 M411.6,276.9v8.9c0,1.7,0.4,3,1.2,3.8c0.8,0.8,2.1,1.2,3.7,1.2c1,0,1.8-0.2,2.6-0.5
		c0.7-0.4,1.3-0.9,1.8-1.5h0.1l0.3,1.8h1.7v-13.7h-2.1v7.1c0,1.8-0.3,3-1,3.8c-0.7,0.8-1.7,1.2-3.1,1.2c-1.1,0-1.9-0.3-2.4-0.8
		s-0.8-1.4-0.8-2.5v-8.8H411.6z M390.9,287.6c-0.6-0.9-1-2.2-1-3.9c0-1.7,0.3-3,1-4c0.6-0.9,1.6-1.4,2.8-1.4c1.4,0,2.4,0.4,3.1,1.2
		c0.6,0.8,1,2.2,1,4.1v0.4c0,1.7-0.3,2.9-0.9,3.7c-0.6,0.8-1.7,1.1-3.1,1.1C392.5,289,391.6,288.5,390.9,287.6 M398.1,290.4h1.7
		v-19.3h-2.1v5.5v1l0.1,1h-0.2c-1-1.3-2.4-2-4.2-2c-1.8,0-3.1,0.6-4.1,1.9s-1.5,3-1.5,5.2c0,2.2,0.5,4,1.5,5.2
		c1,1.2,2.4,1.8,4.1,1.8c1.9,0,3.3-0.7,4.3-2.1h0.1L398.1,290.4z M383.9,290.4v-8.9c0-1.7-0.4-3-1.2-3.8c-0.8-0.8-2.1-1.2-3.7-1.2
		c-0.9,0-1.8,0.2-2.5,0.6c-0.8,0.4-1.4,0.9-1.8,1.6h-0.1l-0.3-1.9h-1.7v13.6h2.1v-7.1c0-1.8,0.3-3,1-3.8c0.7-0.8,1.7-1.2,3.1-1.2
		c1.1,0,1.9,0.3,2.4,0.8s0.8,1.4,0.8,2.5v8.8L383.9,290.4L383.9,290.4z M359.7,288.4c-0.5-0.4-0.7-1-0.7-1.7c0-1,0.4-1.7,1.1-2.1
		s1.9-0.7,3.5-0.8l2.1-0.1v1.2c0,1.3-0.4,2.2-1.1,3c-0.7,0.7-1.7,1.1-3,1.1C360.8,289,360.1,288.8,359.7,288.4 M367.8,290.4v-9.3
		c0-1.6-0.4-2.7-1.2-3.5c-0.8-0.7-2-1.1-3.6-1.1c-0.8,0-1.6,0.1-2.4,0.3c-0.8,0.2-1.5,0.5-2.2,0.9l0.6,1.6c1.4-0.7,2.7-1,3.8-1
		c1,0,1.7,0.3,2.2,0.8s0.7,1.3,0.7,2.4v0.8l-2.3,0.1c-4.4,0.1-6.6,1.6-6.6,4.3c0,1.3,0.4,2.3,1.1,3c0.8,0.7,1.8,1,3.2,1
		c1,0,1.8-0.2,2.5-0.5c0.7-0.3,1.3-0.9,2-1.7h0.1l0.4,1.9H367.8z M338.5,278.9c0.5-0.5,1.3-0.8,2.2-0.8c2,0,3.1,1,3.1,3.1
		c0,1.9-1,2.9-3,2.9c-1,0-1.7-0.2-2.2-0.7s-0.8-1.2-0.8-2.2C337.8,280.2,338,279.4,338.5,278.9 M337.4,290.8
		c0.5-0.4,1.2-0.7,2.2-0.7h2.5c1.3,0,2.1,0.1,2.6,0.4s0.7,0.8,0.7,1.5c0,0.9-0.4,1.6-1.2,2.1s-2.1,0.8-3.8,0.8c-1.2,0-2-0.2-2.7-0.6
		c-0.6-0.4-0.9-0.9-0.9-1.7C336.6,291.9,336.9,291.2,337.4,290.8 M342.8,276.9c-0.6-0.2-1.2-0.2-1.9-0.2c-1.6,0-2.9,0.4-3.8,1.2
		c-0.9,0.8-1.3,2-1.3,3.4c0,0.9,0.2,1.7,0.7,2.4c0.4,0.7,1,1.2,1.7,1.5c-0.6,0.3-1,0.7-1.3,1.1s-0.4,0.8-0.4,1.3
		c0,0.4,0.1,0.8,0.4,1.2c0.2,0.3,0.5,0.6,0.9,0.7c-1,0.2-1.7,0.6-2.2,1.2c-0.5,0.6-0.8,1.3-0.8,2.1c0,1.2,0.5,2.1,1.4,2.8
		c1,0.7,2.3,1,4.1,1c2.3,0,4.1-0.4,5.3-1.2c1.2-0.8,1.8-1.9,1.8-3.4c0-1.2-0.4-2.1-1.2-2.7c-0.8-0.6-1.9-0.9-3.4-0.9h-2.4
		c-0.7,0-1.3-0.1-1.6-0.3c-0.3-0.2-0.5-0.5-0.5-0.8c0-0.7,0.4-1.3,1.3-1.7c0.4,0.1,0.7,0.1,1.1,0.1c1.6,0,2.8-0.4,3.7-1.2
		c0.9-0.8,1.4-1.9,1.4-3.2c0-0.6-0.1-1.1-0.3-1.6c-0.2-0.5-0.4-0.8-0.6-1.1l2.5-0.3v-1.4H342.8z M331.6,290.4v-8.9
		c0-1.7-0.4-3-1.2-3.8c-0.8-0.8-2.1-1.2-3.7-1.2c-0.9,0-1.8,0.2-2.5,0.6c-0.8,0.4-1.4,0.9-1.8,1.6h-0.1l-0.4-1.8h-1.7v13.6h2.1v-7.1
		c0-1.8,0.3-3,1-3.8c0.7-0.8,1.7-1.2,3.1-1.2c1.1,0,1.9,0.3,2.4,0.8s0.8,1.4,0.8,2.5v8.8h2V290.4z M313.5,274.2
		c0.2,0.2,0.5,0.3,0.9,0.3c0.3,0,0.6-0.1,0.9-0.3c0.2-0.2,0.4-0.6,0.4-1c0-0.5-0.1-0.8-0.4-1c-0.2-0.2-0.5-0.3-0.9-0.3
		c-0.3,0-0.6,0.1-0.9,0.3c-0.2,0.2-0.3,0.6-0.3,1S313.3,274,313.5,274.2 M315.4,276.9h-2.1v13.6h2.1V276.9z M305.5,290.4l5.2-13.6
		h-2.2c-1.7,4.6-2.8,7.6-3.3,9s-0.8,2.3-0.9,2.7h-0.1c-0.1-0.6-0.5-1.8-1.2-3.7l-2.9-8.1h-2.2l5.2,13.6h2.4V290.4z M287.3,288.4
		c-0.5-0.4-0.7-1-0.7-1.7c0-1,0.4-1.7,1.1-2.1s1.9-0.7,3.5-0.8l2.1-0.1v1.2c0,1.3-0.4,2.2-1.1,3c-0.7,0.7-1.7,1.1-3,1.1
		C288.4,289,287.7,288.8,287.3,288.4 M295.4,290.4v-9.3c0-1.6-0.4-2.7-1.2-3.5c-0.8-0.7-2-1.1-3.6-1.1c-0.8,0-1.6,0.1-2.4,0.3
		c-0.8,0.2-1.5,0.5-2.2,0.9l0.6,1.6c1.4-0.7,2.7-1,3.8-1c1,0,1.7,0.3,2.2,0.8s0.7,1.3,0.7,2.4v0.8l-2.3,0.1
		c-4.4,0.1-6.6,1.6-6.6,4.3c0,1.3,0.4,2.3,1.1,3c0.8,0.7,1.8,1,3.2,1c1,0,1.8-0.2,2.5-0.5c0.7-0.3,1.4-0.9,2-1.7h0.1l0.4,1.9H295.4z
		 M280.8,284.5c-0.6-0.6-1.7-1.2-3.3-1.8c-1.2-0.4-2-0.8-2.4-1c-0.4-0.2-0.7-0.5-0.9-0.7c-0.2-0.3-0.3-0.6-0.3-0.9
		c0-0.5,0.2-1,0.7-1.3c0.5-0.3,1.2-0.5,2.2-0.5c1.1,0,2.3,0.3,3.7,0.8l0.7-1.7c-1.4-0.6-2.8-0.9-4.3-0.9c-1.6,0-2.8,0.3-3.7,1
		c-0.9,0.6-1.4,1.5-1.4,2.6c0,0.6,0.1,1.2,0.4,1.6c0.3,0.4,0.7,0.8,1.2,1.2s1.4,0.8,2.7,1.2c1.3,0.5,2.2,1,2.7,1.3
		c0.5,0.4,0.7,0.8,0.7,1.4c0,0.7-0.3,1.2-0.9,1.6c-0.6,0.3-1.4,0.5-2.5,0.5c-0.7,0-1.4-0.1-2.2-0.3c-0.7-0.2-1.4-0.5-2.1-0.8v1.9
		c1,0.6,2.4,0.9,4.2,0.9c1.7,0,3-0.3,4-1c0.9-0.7,1.4-1.7,1.4-2.9C281.6,285.8,281.3,285.1,280.8,284.5 M258.7,279.4
		c0.6,0.7,0.9,1.7,0.9,3h-7.1c0.1-1.3,0.5-2.2,1.1-2.9c0.6-0.7,1.5-1.1,2.6-1.1C257.3,278.3,258.1,278.7,258.7,279.4 M259.1,290.5
		c0.6-0.1,1.3-0.4,2.1-0.7V288c-1.4,0.6-2.9,0.9-4.3,0.9s-2.5-0.4-3.2-1.2c-0.8-0.8-1.2-2-1.2-3.6h9.4v-1.3c0-1.8-0.5-3.3-1.5-4.4
		s-2.3-1.7-4-1.7c-1.8,0-3.3,0.6-4.3,1.9c-1.1,1.3-1.6,3-1.6,5.2c0,2.2,0.6,3.9,1.7,5.1c1.2,1.2,2.7,1.8,4.8,1.8
		C257.7,290.7,258.4,290.6,259.1,290.5 M246.2,290.4v-8.9c0-1.7-0.4-3-1.1-3.8c-0.8-0.8-1.9-1.2-3.5-1.2c-1,0-1.9,0.2-2.6,0.6
		c-0.8,0.4-1.4,1-1.8,1.7h-0.1c-0.7-1.5-2-2.3-4.2-2.3c-0.9,0-1.7,0.2-2.4,0.6s-1.3,0.9-1.6,1.6h0l-0.3-1.9h-1.7v13.6h2.1v-7.1
		c0-1.8,0.3-3,0.9-3.8c0.6-0.8,1.5-1.2,2.8-1.2c1,0,1.7,0.3,2.2,0.8s0.7,1.4,0.7,2.4v8.8h2.1v-7.4c0-1.5,0.3-2.7,0.9-3.4
		c0.6-0.7,1.6-1.1,2.8-1.1c1,0,1.7,0.3,2.2,0.8s0.7,1.4,0.7,2.4v8.8H246.2z M220.1,274.2c0.2,0.2,0.5,0.3,0.9,0.3
		c0.3,0,0.6-0.1,0.9-0.3c0.2-0.2,0.4-0.6,0.4-1c0-0.5-0.1-0.8-0.4-1c-0.2-0.2-0.5-0.3-0.9-0.3c-0.3,0-0.6,0.1-0.9,0.3
		c-0.2,0.2-0.3,0.6-0.3,1S219.9,274,220.1,274.2 M222,276.9h-2.1v13.6h2.1V276.9z M213.3,288.3c-0.4-0.4-0.6-1.1-0.6-1.9v-8h3.9
		v-1.5h-3.9v-3.1h-1.2l-0.9,2.9l-1.9,0.9v1h1.9v8.1c0,2.8,1.3,4.2,3.9,4.2c0.3,0,0.7,0,1.2-0.1c0.4-0.1,0.8-0.2,1-0.3v-1.6
		c-0.2,0.1-0.5,0.1-0.8,0.2s-0.7,0.1-1.1,0.1C214.2,289,213.6,288.8,213.3,288.3 M189.9,279.7c0.7-0.9,1.7-1.3,3.1-1.3
		c1.4,0,2.4,0.4,3.1,1.3c0.7,0.9,1,2.2,1,3.9c0,1.7-0.4,3.1-1,4c-0.7,0.9-1.7,1.4-3.1,1.4s-2.4-0.5-3.1-1.4c-0.7-0.9-1-2.2-1-4
		C188.9,281.9,189.2,280.6,189.9,279.7 M197.6,278.5c-1.1-1.3-2.6-1.9-4.5-1.9c-2,0-3.5,0.6-4.6,1.9c-1.1,1.2-1.7,3-1.7,5.2
		c0,1.4,0.3,2.7,0.8,3.7c0.5,1.1,1.2,1.9,2.2,2.5c0.9,0.6,2,0.9,3.2,0.9c2,0,3.5-0.6,4.6-1.9c1.1-1.2,1.7-3,1.7-5.2
		C199.2,281.5,198.7,279.8,197.6,278.5 M182.8,284.5c-0.6-0.6-1.7-1.2-3.3-1.8c-1.2-0.4-2-0.8-2.4-1c-0.4-0.2-0.7-0.5-0.9-0.7
		c-0.2-0.3-0.3-0.6-0.3-0.9c0-0.5,0.2-1,0.7-1.3c0.5-0.3,1.2-0.5,2.2-0.5c1.1,0,2.3,0.3,3.7,0.8l0.7-1.7c-1.4-0.6-2.8-0.9-4.3-0.9
		c-1.6,0-2.8,0.3-3.7,1c-0.9,0.6-1.4,1.5-1.4,2.6c0,0.6,0.1,1.2,0.4,1.6c0.3,0.4,0.7,0.8,1.2,1.2s1.4,0.8,2.7,1.2
		c1.3,0.5,2.2,1,2.7,1.3c0.5,0.4,0.7,0.8,0.7,1.4c0,0.7-0.3,1.2-0.9,1.6c-0.6,0.3-1.4,0.5-2.5,0.5c-0.7,0-1.4-0.1-2.2-0.3
		c-0.7-0.2-1.4-0.5-2.1-0.8v1.9c1,0.6,2.4,0.9,4.2,0.9c1.7,0,3-0.3,4-1c0.9-0.7,1.4-1.7,1.4-2.9
		C183.7,285.8,183.4,285.1,182.8,284.5 M161,287.5c-0.1,0.8-0.3,1.8-0.6,3c-0.3,1.3-0.5,2.3-0.7,3.2h1.5c0.4-0.9,0.9-2,1.3-3.1
		c0.4-1.1,0.7-2.1,0.9-2.9l-0.2-0.3H161V287.5z M154,279.4c0.6,0.7,0.9,1.7,0.9,3h-7.1c0.1-1.3,0.5-2.2,1.1-2.9
		c0.6-0.7,1.5-1.1,2.6-1.1C152.6,278.3,153.4,278.7,154,279.4 M154.4,290.5c0.6-0.1,1.3-0.4,2.1-0.7V288c-1.4,0.6-2.9,0.9-4.3,0.9
		c-1.4,0-2.5-0.4-3.2-1.2c-0.8-0.8-1.2-2-1.2-3.6h9.4v-1.3c0-1.8-0.5-3.3-1.5-4.4s-2.3-1.7-4-1.7c-1.8,0-3.3,0.6-4.3,1.9
		c-1.1,1.3-1.6,3-1.6,5.2c0,2.2,0.6,3.9,1.7,5.1c1.2,1.2,2.7,1.8,4.8,1.8C153,290.7,153.8,290.6,154.4,290.5 M142.6,290v-1.8
		c-1.2,0.5-2.4,0.7-3.5,0.7c-1.3,0-2.3-0.4-3-1.3s-1-2.2-1-3.8c0-3.5,1.4-5.3,4.1-5.3c0.4,0,0.9,0.1,1.4,0.2c0.5,0.1,1,0.3,1.5,0.5
		l0.6-1.7c-0.4-0.2-0.9-0.4-1.5-0.5c-0.7-0.1-1.3-0.2-2-0.2c-2,0-3.6,0.6-4.7,1.9c-1.1,1.2-1.6,3-1.6,5.3c0,2.2,0.5,3.9,1.6,5.1
		c1.1,1.2,2.6,1.8,4.6,1.8C140.5,290.7,141.7,290.5,142.6,290 M120.9,288.4c-0.5-0.4-0.7-1-0.7-1.7c0-1,0.4-1.7,1.1-2.1
		s1.9-0.7,3.5-0.8l2.1-0.1v1.2c0,1.3-0.4,2.2-1.1,3c-0.7,0.7-1.7,1.1-3,1.1C122,289,121.4,288.8,120.9,288.4 M129,290.4v-9.3
		c0-1.6-0.4-2.7-1.2-3.5c-0.8-0.7-2-1.1-3.6-1.1c-0.8,0-1.6,0.1-2.4,0.3c-0.8,0.2-1.5,0.5-2.2,0.9l0.6,1.6c1.4-0.7,2.7-1,3.8-1
		c1,0,1.7,0.3,2.2,0.8s0.7,1.3,0.7,2.4v0.8l-2.3,0.1c-4.4,0.1-6.6,1.6-6.6,4.3c0,1.3,0.4,2.3,1.1,3c0.8,0.7,1.8,1,3.2,1
		c1,0,1.9-0.2,2.5-0.5c0.7-0.3,1.3-0.9,2-1.7h0.1l0.4,1.9H129z M114.2,271.2h-2.1v19.3h2.1V271.2z M104.9,279.7c0.7,0.9,1,2.2,1,3.9
		c0,1.7-0.3,3-1,3.9c-0.7,1-1.6,1.4-2.8,1.4c-1.4,0-2.4-0.4-3.1-1.2c-0.6-0.8-1-2.2-1-4.1v-0.5c0-1.7,0.3-2.9,1-3.7
		c0.6-0.8,1.6-1.2,3-1.2C103.3,278.4,104.3,278.8,104.9,279.7 M106.6,288.8c1-1.2,1.5-3,1.5-5.2c0-2.2-0.5-4-1.5-5.2
		c-1-1.2-2.4-1.8-4.2-1.8c-0.9,0-1.7,0.2-2.4,0.5c-0.7,0.3-1.3,0.9-1.8,1.6h-0.1l-0.3-1.9h-1.7v19.7h2.1v-5.6c0-0.7,0-1.5-0.1-2.3
		h0.1c0.5,0.7,1.1,1.2,1.8,1.5c0.7,0.3,1.5,0.5,2.4,0.5C104.2,290.7,105.6,290.1,106.6,288.8"/>
	<path class="st0" d="M502.7,241.9c0.6,0.7,0.9,1.7,0.9,3h-7.1c0.1-1.3,0.5-2.2,1.1-3c0.6-0.7,1.5-1.1,2.6-1.1
		S502.2,241.2,502.7,241.9 M503.2,253c0.6-0.1,1.3-0.4,2.1-0.7v-1.8c-1.4,0.6-2.9,0.9-4.3,0.9s-2.5-0.4-3.2-1.2
		c-0.8-0.8-1.2-2-1.2-3.6h9.4v-1.3c0-1.8-0.5-3.3-1.5-4.4c-1-1.1-2.3-1.7-4-1.7c-1.8,0-3.3,0.6-4.3,1.9c-1.1,1.3-1.6,3-1.6,5.2
		s0.6,3.9,1.7,5.1c1.2,1.2,2.7,1.8,4.8,1.8C501.7,253.2,502.5,253.1,503.2,253 M490.4,253v-8.9c0-1.7-0.4-3-1.2-3.8
		c-0.8-0.8-2.1-1.2-3.7-1.2c-0.9,0-1.8,0.2-2.5,0.6c-0.8,0.4-1.4,0.9-1.8,1.6h-0.1l-0.3-1.9h-1.7V253h2.1v-7.1c0-1.8,0.3-3,1-3.8
		s1.7-1.2,3.1-1.2c1.1,0,1.9,0.3,2.4,0.8s0.8,1.4,0.8,2.5v8.8L490.4,253L490.4,253z M465.6,242.2c0.7-0.9,1.7-1.3,3.1-1.3
		s2.4,0.4,3.1,1.3c0.7,0.9,1,2.2,1,3.9s-0.3,3.1-1,4s-1.7,1.4-3.1,1.4c-1.3,0-2.4-0.5-3.1-1.4s-1-2.2-1-4
		C464.5,244.4,464.9,243.1,465.6,242.2 M473.2,241c-1.1-1.3-2.6-1.9-4.5-1.9c-2,0-3.5,0.6-4.6,1.9c-1.1,1.2-1.7,3-1.7,5.2
		c0,1.4,0.3,2.7,0.8,3.7c0.5,1.1,1.2,1.9,2.2,2.5c0.9,0.6,2,0.9,3.2,0.9c2,0,3.5-0.6,4.6-1.9c1.1-1.2,1.7-3,1.7-5.2
		S474.3,242.3,473.2,241 M451.3,253v-8.9c0-1.7-0.4-3-1.2-3.8c-0.8-0.8-2.1-1.2-3.7-1.2c-0.9,0-1.8,0.2-2.5,0.6
		c-0.8,0.4-1.4,0.9-1.8,1.6H442l-0.3-1.9H440V253h2.1v-7.1c0-1.8,0.3-3,1-3.8s1.7-1.2,3.1-1.2c1.1,0,1.9,0.3,2.4,0.8
		s0.8,1.4,0.8,2.5v8.8L451.3,253L451.3,253z M433.2,236.7c0.2,0.2,0.5,0.3,0.9,0.3c0.3,0,0.6-0.1,0.9-0.3c0.2-0.2,0.4-0.6,0.4-1
		s-0.1-0.8-0.4-1c-0.2-0.2-0.5-0.3-0.9-0.3c-0.3,0-0.6,0.1-0.9,0.3c-0.2,0.2-0.3,0.6-0.3,1C432.8,236.1,433,236.5,433.2,236.7
		 M435.1,239.4H433V253h2.1V239.4z M418.8,241.9c0.6,0.7,0.9,1.7,0.9,3h-7.1c0.1-1.3,0.5-2.2,1.1-3c0.6-0.7,1.5-1.1,2.6-1.1
		S418.2,241.2,418.8,241.9 M419.3,253c0.6-0.1,1.3-0.4,2.1-0.7v-1.8c-1.4,0.6-2.9,0.9-4.3,0.9s-2.5-0.4-3.2-1.2
		c-0.8-0.8-1.2-2-1.2-3.6h9.4v-1.3c0-1.8-0.5-3.3-1.5-4.4c-1-1.1-2.3-1.7-4-1.7c-1.8,0-3.3,0.6-4.3,1.9c-1.1,1.3-1.6,3-1.6,5.2
		s0.6,3.9,1.7,5.1c1.2,1.2,2.7,1.8,4.8,1.8C417.8,253.2,418.6,253.1,419.3,253 M406.3,233.7h-2.1V253h2.1V233.7z M397.1,242.2
		c0.6,0.9,0.9,2.2,0.9,4c0,1.7-0.3,3.1-0.9,4s-1.6,1.4-2.8,1.4c-1.4,0-2.4-0.4-3.1-1.2c-0.6-0.8-1-2.2-1-4.1c0-1.9,0.3-3.3,0.9-4.1
		s1.6-1.2,3-1.2C395.5,240.9,396.4,241.3,397.1,242.2 M390.2,241.2L390.2,241.2c0-0.8,0-1.8,0-2.8v-4.7h-2.1V253h1.5l0.4-1.7h0.1
		c0.5,0.7,1.1,1.2,1.8,1.5c0.7,0.3,1.5,0.5,2.4,0.5c1.8,0,3.2-0.6,4.1-1.9c1-1.2,1.5-3,1.5-5.2s-0.5-4-1.5-5.2s-2.4-1.8-4.2-1.8
		C392.6,239.1,391.2,239.8,390.2,241.2 M381.4,236.7c0.2,0.2,0.5,0.3,0.9,0.3c0.3,0,0.6-0.1,0.9-0.3c0.2-0.2,0.4-0.6,0.4-1
		s-0.1-0.8-0.4-1c-0.2-0.2-0.5-0.3-0.9-0.3c-0.3,0-0.6,0.1-0.9,0.3c-0.2,0.2-0.3,0.6-0.3,1S381.2,236.5,381.4,236.7 M383.3,239.4
		h-2.1V253h2.1V239.4z M376.5,247c-0.6-0.6-1.7-1.2-3.3-1.8c-1.2-0.4-2-0.8-2.4-1s-0.7-0.5-0.9-0.7s-0.3-0.6-0.3-0.9
		c0-0.5,0.2-1,0.7-1.3s1.2-0.5,2.2-0.5c1.1,0,2.3,0.3,3.7,0.8l0.7-1.7c-1.4-0.6-2.8-0.9-4.3-0.9c-1.6,0-2.8,0.3-3.7,1
		c-0.9,0.6-1.4,1.5-1.4,2.6c0,0.6,0.1,1.2,0.4,1.6c0.3,0.4,0.7,0.8,1.2,1.2s1.4,0.8,2.7,1.2c1.3,0.5,2.2,1,2.7,1.3
		c0.5,0.4,0.7,0.8,0.7,1.4c0,0.7-0.3,1.2-0.9,1.6c-0.6,0.3-1.4,0.5-2.5,0.5c-0.7,0-1.4-0.1-2.2-0.3s-1.4-0.4-2.1-0.8v1.9
		c1,0.6,2.4,0.9,4.2,0.9c1.7,0,3-0.3,4-1c0.9-0.7,1.4-1.7,1.4-2.9C377.4,248.3,377.1,247.6,376.5,247 M363.9,247
		c-0.6-0.6-1.7-1.2-3.3-1.8c-1.2-0.4-2-0.8-2.4-1s-0.7-0.5-0.9-0.7c-0.2-0.3-0.3-0.6-0.3-0.9c0-0.5,0.2-1,0.7-1.3s1.2-0.5,2.2-0.5
		c1.1,0,2.3,0.3,3.7,0.8l0.7-1.7c-1.4-0.6-2.8-0.9-4.3-0.9c-1.6,0-2.8,0.3-3.7,1c-0.9,0.6-1.4,1.5-1.4,2.6c0,0.6,0.1,1.2,0.4,1.6
		c0.3,0.4,0.7,0.8,1.2,1.2s1.4,0.8,2.7,1.2c1.3,0.5,2.2,1,2.7,1.3c0.5,0.4,0.7,0.8,0.7,1.4c0,0.7-0.3,1.2-0.9,1.6
		c-0.6,0.3-1.4,0.5-2.5,0.5c-0.7,0-1.4-0.1-2.2-0.3c-0.7-0.2-1.4-0.4-2.1-0.8v1.9c1,0.6,2.4,0.9,4.2,0.9c1.7,0,3-0.3,4-1
		c0.9-0.7,1.4-1.7,1.4-2.9C364.8,248.3,364.5,247.6,363.9,247 M348.9,241.9c0.6,0.7,0.9,1.7,0.9,3h-7.1c0.1-1.3,0.5-2.2,1.1-3
		c0.6-0.7,1.5-1.1,2.6-1.1S348.3,241.2,348.9,241.9 M349.3,253c0.6-0.1,1.3-0.4,2.1-0.7v-1.8c-1.4,0.6-2.9,0.9-4.3,0.9
		s-2.5-0.4-3.2-1.2c-0.8-0.8-1.2-2-1.2-3.6h9.4v-1.3c0-1.8-0.5-3.3-1.5-4.4c-1-1.1-2.3-1.7-4-1.7c-1.8,0-3.3,0.6-4.3,1.9
		c-1.1,1.3-1.6,3-1.6,5.2s0.6,3.9,1.7,5.1c1.2,1.2,2.7,1.8,4.8,1.8C347.9,253.2,348.7,253.1,349.3,253 M337.5,252.5v-1.8
		c-1.2,0.5-2.4,0.7-3.5,0.7c-1.3,0-2.3-0.4-3-1.3c-0.7-0.9-1-2.2-1-3.8c0-3.5,1.4-5.3,4.1-5.3c0.4,0,0.9,0.1,1.4,0.2
		c0.5,0.1,1,0.3,1.5,0.5l0.6-1.7c-0.4-0.2-0.9-0.4-1.5-0.5c-0.7-0.1-1.3-0.2-2-0.2c-2,0-3.6,0.6-4.7,1.9c-1.1,1.2-1.6,3-1.6,5.3
		c0,2.2,0.5,3.9,1.6,5.1c1.1,1.2,2.6,1.8,4.6,1.8C335.5,253.2,336.6,253,337.5,252.5 M324.9,252.5v-1.8c-1.2,0.5-2.4,0.7-3.5,0.7
		c-1.3,0-2.3-0.4-3-1.3c-0.7-0.9-1-2.2-1-3.8c0-3.5,1.4-5.3,4.1-5.3c0.4,0,0.9,0.1,1.4,0.2c0.5,0.1,1,0.3,1.5,0.5l0.6-1.7
		c-0.4-0.2-0.9-0.4-1.5-0.5c-0.7-0.1-1.3-0.2-2-0.2c-2,0-3.6,0.6-4.7,1.9c-1.1,1.2-1.6,3-1.6,5.3c0,2.2,0.5,3.9,1.6,5.1
		c1.1,1.2,2.6,1.8,4.6,1.8C322.9,253.2,324,253,324.9,252.5 M303.2,250.9c-0.4-0.4-0.7-1-0.7-1.7c0-0.9,0.4-1.7,1.1-2.1
		c0.7-0.5,1.9-0.7,3.5-0.8l2.1-0.1v1.2c0,1.3-0.4,2.2-1.1,3c-0.7,0.7-1.7,1.1-3,1.1C304.3,251.5,303.7,251.3,303.2,250.9 M311.3,253
		v-9.3c0-1.6-0.4-2.7-1.2-3.5c-0.8-0.7-2-1.1-3.6-1.1c-0.8,0-1.6,0.1-2.4,0.3s-1.5,0.5-2.2,0.9l0.6,1.6c1.4-0.7,2.7-1,3.8-1
		c1,0,1.7,0.3,2.2,0.8s0.7,1.3,0.7,2.4v0.8l-2.3,0.1c-4.4,0.1-6.6,1.6-6.6,4.3c0,1.3,0.4,2.3,1.1,3c0.8,0.7,1.8,1,3.2,1
		c1,0,1.8-0.2,2.5-0.5c0.7-0.3,1.3-0.9,2-1.7h0.1l0.4,1.9H311.3z M284.3,253l-0.8,1.9c-0.6,1.6-1.6,2.4-3,2.4
		c-0.6,0-1.1-0.1-1.5-0.1v1.6c0.6,0.1,1.2,0.2,1.9,0.2c1.1,0,2.1-0.3,2.8-1c0.8-0.6,1.4-1.7,2-3.3l5.8-15.5h-2.2
		c-1.9,5.3-3,8.4-3.4,9.4c-0.3,1-0.6,1.7-0.7,2.2h-0.1c-0.2-0.8-0.6-2.1-1.2-3.8l-3-7.7h-2L284.3,253z M276.1,233.7H274V253h2.1
		V233.7z M267.3,236.7c0.2,0.2,0.5,0.3,0.9,0.3c0.3,0,0.6-0.1,0.9-0.3c0.2-0.2,0.4-0.6,0.4-1s-0.1-0.8-0.4-1
		c-0.2-0.2-0.5-0.3-0.9-0.3c-0.3,0-0.6,0.1-0.9,0.3c-0.2,0.2-0.3,0.6-0.3,1C267,236.1,267.1,236.5,267.3,236.7 M269.2,239.4h-2.1
		V253h2.1V239.4z M262.4,247c-0.6-0.6-1.7-1.2-3.3-1.8c-1.2-0.4-2-0.8-2.4-1s-0.7-0.5-0.9-0.7s-0.3-0.6-0.3-0.9c0-0.5,0.2-1,0.7-1.3
		c0.5-0.3,1.2-0.5,2.2-0.5c1.1,0,2.3,0.3,3.7,0.8l0.7-1.7c-1.4-0.6-2.8-0.9-4.3-0.9c-1.6,0-2.8,0.3-3.7,1c-0.9,0.6-1.4,1.5-1.4,2.6
		c0,0.6,0.1,1.2,0.4,1.6c0.3,0.4,0.7,0.8,1.2,1.2s1.4,0.8,2.7,1.2c1.3,0.5,2.2,1,2.7,1.3c0.5,0.4,0.7,0.8,0.7,1.4
		c0,0.7-0.3,1.2-0.9,1.6c-0.6,0.3-1.4,0.5-2.5,0.5c-0.7,0-1.4-0.1-2.2-0.3s-1.4-0.4-2.1-0.8v1.9c1,0.6,2.4,0.9,4.2,0.9
		c1.7,0,3-0.3,4-1c0.9-0.7,1.4-1.7,1.4-2.9C263.3,248.3,263,247.6,262.4,247 M241.7,250.9c-0.5-0.4-0.7-1-0.7-1.7
		c0-0.9,0.4-1.7,1.1-2.1c0.7-0.5,1.9-0.7,3.5-0.8l2.1-0.1v1.2c0,1.3-0.4,2.2-1.1,3c-0.7,0.7-1.7,1.1-3,1.1
		C242.8,251.5,242.2,251.3,241.7,250.9 M249.8,253v-9.3c0-1.6-0.4-2.7-1.2-3.5c-0.8-0.7-2-1.1-3.6-1.1c-0.8,0-1.6,0.1-2.4,0.3
		c-0.8,0.2-1.5,0.5-2.2,0.9l0.6,1.6c1.4-0.7,2.7-1,3.8-1c1,0,1.7,0.3,2.2,0.8s0.7,1.3,0.7,2.4v0.8l-2.3,0.1
		c-4.4,0.1-6.6,1.6-6.6,4.3c0,1.3,0.4,2.3,1.1,3c0.8,0.7,1.8,1,3.2,1c1,0,1.8-0.2,2.5-0.5s1.3-0.9,2-1.7h0.1l0.4,1.9H249.8z
		 M232.8,241.9c0.6,0.7,0.9,1.7,0.9,3h-7.1c0.1-1.3,0.5-2.2,1.1-3s1.5-1.1,2.6-1.1S232.2,241.2,232.8,241.9 M233.2,253
		c0.6-0.1,1.3-0.4,2.1-0.7v-1.8c-1.4,0.6-2.9,0.9-4.3,0.9c-1.4,0-2.5-0.4-3.2-1.2c-0.8-0.8-1.2-2-1.2-3.6h9.4v-1.3
		c0-1.8-0.5-3.3-1.5-4.4c-1-1.1-2.3-1.7-4-1.7c-1.8,0-3.3,0.6-4.3,1.9c-1.1,1.3-1.6,3-1.6,5.2s0.6,3.9,1.7,5.1
		c1.2,1.2,2.7,1.8,4.8,1.8C231.8,253.2,232.6,253.1,233.2,253 M204.3,250.2c-0.6-0.9-1-2.2-1-3.9s0.3-3,1-4c0.6-0.9,1.6-1.4,2.8-1.4
		c1.4,0,2.4,0.4,3.1,1.2c0.6,0.8,1,2.2,1,4.1v0.4c0,1.7-0.3,2.9-0.9,3.7c-0.6,0.8-1.7,1.1-3.1,1.1
		C205.9,251.5,204.9,251,204.3,250.2 M211.5,253h1.7v-19.3h-2.1v5.5l0.1,1l0.1,1h-0.2c-1-1.3-2.4-2-4.2-2s-3.1,0.6-4.1,1.9
		c-1,1.2-1.5,3-1.5,5.2s0.5,4,1.5,5.2s2.4,1.8,4.1,1.8c1.9,0,3.3-0.7,4.3-2.1h0.1L211.5,253z M197.2,253v-8.9c0-1.7-0.4-3-1.2-3.8
		s-2.1-1.2-3.7-1.2c-0.9,0-1.8,0.2-2.5,0.6c-0.8,0.4-1.4,0.9-1.8,1.6h-0.1l-0.3-1.9h-1.7V253h2.1v-7.1c0-1.8,0.3-3,1-3.8
		s1.7-1.2,3.1-1.2c1.1,0,1.9,0.3,2.4,0.8s0.8,1.4,0.8,2.5v8.8L197.2,253L197.2,253z M173.1,250.9c-0.5-0.4-0.7-1-0.7-1.7
		c0-0.9,0.4-1.7,1.1-2.1c0.7-0.5,1.9-0.7,3.5-0.8l2.1-0.1v1.2c0,1.3-0.4,2.2-1.1,3c-0.7,0.7-1.7,1.1-3,1.1
		C174.2,251.5,173.5,251.3,173.1,250.9 M181.1,253v-9.3c0-1.6-0.4-2.7-1.2-3.5c-0.8-0.7-2-1.1-3.6-1.1c-0.8,0-1.6,0.1-2.4,0.3
		s-1.5,0.5-2.2,0.9l0.6,1.6c1.4-0.7,2.7-1,3.8-1c1,0,1.7,0.3,2.2,0.8s0.7,1.3,0.7,2.4v0.8l-2.3,0.1c-4.4,0.1-6.6,1.6-6.6,4.3
		c0,1.3,0.4,2.3,1.1,3c0.8,0.7,1.8,1,3.2,1c1,0,1.8-0.2,2.5-0.5s1.3-0.9,2-1.7h0.1l0.4,1.9H181.1z M151.9,241.4
		c0.5-0.5,1.3-0.8,2.2-0.8c2,0,3,1,3,3.1c0,2-1,2.9-3,2.9c-1,0-1.7-0.2-2.2-0.7s-0.8-1.2-0.8-2.2S151.4,241.9,151.9,241.4
		 M150.8,253.3c0.5-0.4,1.2-0.7,2.2-0.7h2.5c1.3,0,2.1,0.1,2.6,0.4s0.7,0.8,0.7,1.5c0,0.9-0.4,1.6-1.2,2.1c-0.8,0.5-2.1,0.8-3.8,0.8
		c-1.2,0-2-0.2-2.7-0.6c-0.6-0.4-0.9-0.9-0.9-1.7C150,254.4,150.3,253.8,150.8,253.3 M156.2,239.4c-0.6-0.2-1.2-0.2-1.9-0.2
		c-1.6,0-2.9,0.4-3.8,1.2c-0.9,0.8-1.3,2-1.3,3.4c0,0.9,0.2,1.7,0.7,2.4c0.4,0.7,1,1.2,1.7,1.5c-0.6,0.3-1,0.7-1.3,1.1
		c-0.3,0.4-0.4,0.8-0.4,1.3c0,0.4,0.1,0.8,0.4,1.2c0.2,0.3,0.5,0.6,0.9,0.7c-1,0.2-1.7,0.6-2.2,1.2s-0.8,1.3-0.8,2.1
		c0,1.2,0.5,2.1,1.4,2.8c1,0.7,2.3,1,4.1,1c2.3,0,4.1-0.4,5.3-1.2c1.2-0.8,1.8-1.9,1.8-3.4c0-1.2-0.4-2.1-1.2-2.7
		c-0.8-0.6-1.9-0.9-3.4-0.9h-2.4c-0.7,0-1.3-0.1-1.6-0.3s-0.5-0.5-0.5-0.8c0-0.7,0.4-1.3,1.3-1.7c0.4,0.1,0.7,0.1,1.1,0.1
		c1.6,0,2.8-0.4,3.7-1.2s1.4-1.9,1.4-3.2c0-0.6-0.1-1.1-0.3-1.6c-0.2-0.5-0.4-0.8-0.6-1.1l2.5-0.3v-1.3h-4.6V239.4z M136.3,242.2
		c0.7-0.9,1.7-1.3,3.1-1.3c1.4,0,2.4,0.4,3.1,1.3c0.7,0.9,1,2.2,1,3.9s-0.3,3.1-1,4s-1.7,1.4-3.1,1.4c-1.3,0-2.4-0.5-3.1-1.4
		s-1-2.2-1-4C135.3,244.4,135.6,243.1,136.3,242.2 M143.9,241c-1.1-1.3-2.6-1.9-4.5-1.9c-2,0-3.5,0.6-4.6,1.9
		c-1.1,1.2-1.7,3-1.7,5.2c0,1.4,0.3,2.7,0.8,3.7c0.5,1.1,1.2,1.9,2.2,2.5c0.9,0.6,2,0.9,3.2,0.9c2,0,3.5-0.6,4.6-1.9
		c1.1-1.2,1.7-3,1.7-5.2S145.1,242.3,143.9,241 M120.2,250.2c-0.6-0.9-1-2.2-1-3.9s0.3-3,1-4c0.6-0.9,1.6-1.4,2.8-1.4
		c1.4,0,2.4,0.4,3.1,1.2c0.6,0.8,1,2.2,1,4.1v0.4c0,1.7-0.3,2.9-0.9,3.7s-1.7,1.1-3.1,1.1C121.7,251.5,120.8,251,120.2,250.2
		 M127.3,253h1.7v-19.3h-2.1v5.5v1l0.1,1h-0.1c-1-1.3-2.4-2-4.2-2s-3.1,0.6-4.1,1.9c-1,1.2-1.5,3-1.5,5.2s0.5,4,1.5,5.2
		s2.4,1.8,4.1,1.8c1.9,0,3.3-0.7,4.3-2.1h0.1L127.3,253z M97.9,250.9c-0.5-0.4-0.7-1-0.7-1.7c0-0.9,0.4-1.7,1.1-2.1
		c0.7-0.5,1.9-0.7,3.5-0.8l2.1-0.1v1.2c0,1.3-0.4,2.2-1.1,3c-0.7,0.7-1.7,1.1-3,1.1C99,251.5,98.4,251.3,97.9,250.9 M106,253v-9.3
		c0-1.6-0.4-2.7-1.2-3.5c-0.8-0.7-2-1.1-3.6-1.1c-0.8,0-1.6,0.1-2.4,0.3s-1.5,0.5-2.2,0.9l0.6,1.6c1.4-0.7,2.7-1,3.8-1
		c1,0,1.7,0.3,2.2,0.8s0.7,1.3,0.7,2.4v0.8l-2.3,0.1c-4.4,0.1-6.6,1.6-6.6,4.3c0,1.3,0.4,2.3,1.1,3c0.8,0.7,1.8,1,3.2,1
		c1,0,1.9-0.2,2.5-0.5c0.7-0.3,1.3-0.9,2-1.7h0.1l0.4,1.9H106z"/>
	<path class="st0" d="M501,212.7c-0.6-0.9-1-2.2-1-3.9s0.3-3,1-4c0.6-0.9,1.6-1.4,2.8-1.4c1.4,0,2.4,0.4,3.1,1.2
		c0.6,0.8,1,2.2,1,4.1v0.4c0,1.7-0.3,2.9-0.9,3.7s-1.7,1.1-3.1,1.1C502.6,214,501.7,213.5,501,212.7 M508.2,215.5h1.7v-19.3h-2.1
		v5.5l0.1,1l0.1,1h-0.2c-1-1.3-2.4-2-4.2-2c-1.8,0-3.1,0.6-4.1,1.9c-1,1.2-1.5,3-1.5,5.2s0.5,4,1.5,5.2s2.4,1.8,4.1,1.8
		c1.9,0,3.3-0.7,4.3-2.1h0.1L508.2,215.5z M491.6,204.4c0.6,0.7,0.9,1.7,0.9,3h-7.1c0.1-1.3,0.5-2.2,1.1-3c0.6-0.7,1.5-1.1,2.6-1.1
		C490.2,203.4,491,203.7,491.6,204.4 M492,215.5c0.6-0.1,1.3-0.4,2.1-0.7V213c-1.4,0.6-2.9,0.9-4.3,0.9s-2.5-0.4-3.2-1.2
		c-0.8-0.8-1.2-2-1.2-3.6h9.4v-1.3c0-1.8-0.5-3.3-1.5-4.4c-1-1.1-2.3-1.7-4-1.7c-1.8,0-3.3,0.6-4.3,1.9c-1.1,1.3-1.6,3-1.6,5.2
		s0.6,3.9,1.7,5.1c1.2,1.2,2.7,1.8,4.8,1.8C490.6,215.7,491.4,215.6,492,215.5 M479.2,215.5v-8.9c0-1.7-0.4-3-1.2-3.8
		c-0.8-0.8-2.1-1.2-3.7-1.2c-0.9,0-1.8,0.2-2.5,0.6c-0.8,0.4-1.4,0.9-1.8,1.6h-0.1l-0.3-1.9h-1.7v13.6h2.1v-7.1c0-1.8,0.3-3,1-3.8
		s1.7-1.2,3.1-1.2c1.1,0,1.9,0.3,2.4,0.8s0.8,1.4,0.8,2.5v8.8L479.2,215.5L479.2,215.5z M461.1,215.5l3.8-13.6h-2.1
		c-1.6,6.1-2.4,9.4-2.6,10c-0.1,0.6-0.2,1.1-0.3,1.4h-0.1c-0.2-1-0.5-2.2-0.9-3.6l-2.4-7.8h-2.2l-2.5,7.8c-0.1,0.4-0.3,1-0.5,1.8
		c-0.2,0.7-0.3,1.4-0.4,1.8h-0.1c-0.1-0.6-0.3-1.8-0.8-3.6s-1.1-4.4-2-7.8h-2.2l3.7,13.6h2.4l2.6-7.9c0.2-0.8,0.5-1.9,0.9-3.3h0.1
		c0.4,1.7,0.7,2.8,0.9,3.3l2.5,8L461.1,215.5L461.1,215.5z M434.2,204.7c0.7-0.9,1.7-1.3,3.1-1.3s2.4,0.4,3.1,1.3
		c0.7,0.9,1,2.2,1,3.9s-0.4,3.1-1,4c-0.7,0.9-1.7,1.4-3.1,1.4c-1.3,0-2.4-0.5-3.1-1.4s-1-2.2-1-4
		C433.1,206.9,433.5,205.6,434.2,204.7 M441.8,203.5c-1.1-1.3-2.6-1.9-4.5-1.9c-2,0-3.5,0.6-4.6,1.9c-1.1,1.2-1.7,3-1.7,5.2
		c0,1.4,0.3,2.7,0.8,3.7c0.5,1.1,1.2,1.9,2.2,2.5c0.9,0.6,2,0.9,3.2,0.9c2,0,3.5-0.6,4.6-1.9c1.1-1.2,1.7-3,1.7-5.2
		S442.9,204.8,441.8,203.5 M408.4,201.9v8.9c0,1.7,0.4,3,1.2,3.8c0.8,0.8,2.1,1.2,3.7,1.2c1,0,1.8-0.2,2.6-0.5
		c0.7-0.4,1.3-0.9,1.8-1.5h0.1l0.3,1.8h1.7v-13.7h-2.1v7.1c0,1.8-0.3,3-1,3.8s-1.7,1.2-3.1,1.2c-1.1,0-1.9-0.3-2.4-0.8
		s-0.8-1.4-0.8-2.5v-8.8H408.4z M395.1,204.7c0.7-0.9,1.7-1.3,3-1.3c1.4,0,2.4,0.4,3.1,1.3c0.7,0.9,1,2.2,1,3.9s-0.3,3.1-1,4
		s-1.7,1.4-3.1,1.4c-1.3,0-2.4-0.5-3.1-1.4s-1-2.2-1-4C394.1,206.9,394.4,205.6,395.1,204.7 M402.8,203.5c-1.1-1.3-2.6-1.9-4.5-1.9
		c-2,0-3.5,0.6-4.6,1.9c-1.1,1.2-1.7,3-1.7,5.2c0,1.4,0.3,2.7,0.8,3.7c0.5,1.1,1.2,1.9,2.2,2.5c0.9,0.6,2,0.9,3.2,0.9
		c2,0,3.5-0.6,4.6-1.9c1.1-1.2,1.7-3,1.7-5.2C404.4,206.5,403.9,204.8,402.8,203.5 M382.7,215.5l-0.8,1.9c-0.6,1.6-1.6,2.4-3,2.4
		c-0.6,0-1.1-0.1-1.5-0.1v1.6c0.6,0.1,1.2,0.2,1.9,0.2c1.1,0,2.1-0.3,2.8-1c0.8-0.6,1.4-1.7,2-3.3l5.8-15.5h-2.2
		c-1.9,5.3-3,8.4-3.4,9.4c-0.3,1-0.6,1.7-0.7,2.2h-0.1c-0.2-0.8-0.6-2.1-1.2-3.8l-3-7.7h-2.2L382.7,215.5z M369.3,201.9h-3.4V201
		c0-1.1,0.2-2,0.6-2.5s0.9-0.8,1.7-0.8c0.6,0,1.2,0.1,2,0.4l0.5-1.6c-1-0.3-1.8-0.4-2.5-0.4c-2.9,0-4.4,1.7-4.4,5v0.8l-2.4,0.7v0.9
		h2.4v12h2.1v-12h3.5v-1.6H369.3z M356.4,199.2c0.2,0.2,0.5,0.3,0.9,0.3c0.3,0,0.6-0.1,0.9-0.3c0.2-0.2,0.4-0.6,0.4-1
		s-0.1-0.8-0.4-1c-0.2-0.2-0.5-0.3-0.9-0.3c-0.3,0-0.6,0.1-0.9,0.3c-0.2,0.2-0.3,0.6-0.3,1C356.1,198.7,356.2,199,356.4,199.2
		 M358.3,201.9h-2.1v13.6h2.1V201.9z M335.4,212.7c-0.6-0.9-1-2.2-1-3.9s0.3-3,1-4c0.6-0.9,1.6-1.4,2.8-1.4c1.4,0,2.4,0.4,3.1,1.2
		c0.6,0.8,1,2.2,1,4.1v0.4c0,1.7-0.3,2.9-0.9,3.7s-1.7,1.1-3.1,1.1C337,214,336.1,213.5,335.4,212.7 M342.6,215.5h1.7v-19.3h-2.1
		v5.5v1l0.1,1h-0.2c-1-1.3-2.4-2-4.2-2c-1.8,0-3.2,0.6-4.1,1.9c-1,1.2-1.5,3-1.5,5.2s0.5,4,1.5,5.2s2.4,1.8,4.1,1.8
		c1.9,0,3.3-0.7,4.3-2.1h0.1L342.6,215.5z M326,204.4c0.6,0.7,0.9,1.7,0.9,3h-7.1c0.1-1.3,0.5-2.2,1.1-3c0.6-0.7,1.5-1.1,2.6-1.1
		C324.6,203.4,325.4,203.7,326,204.4 M326.4,215.5c0.6-0.1,1.3-0.4,2.1-0.7V213c-1.4,0.6-2.9,0.9-4.3,0.9s-2.5-0.4-3.2-1.2
		c-0.8-0.8-1.2-2-1.2-3.6h9.4v-1.3c0-1.8-0.5-3.3-1.5-4.4c-1-1.1-2.3-1.7-4-1.7c-1.8,0-3.3,0.6-4.3,1.9c-1.1,1.3-1.6,3-1.6,5.2
		s0.6,3.9,1.7,5.1c1.2,1.2,2.7,1.8,4.8,1.8C325,215.7,325.8,215.6,326.4,215.5 M311.3,204.4c0.6,0.7,0.9,1.7,0.9,3h-7.1
		c0.1-1.3,0.5-2.2,1.1-3c0.6-0.7,1.5-1.1,2.6-1.1C309.8,203.4,310.7,203.7,311.3,204.4 M311.7,215.5c0.6-0.1,1.3-0.4,2.1-0.7V213
		c-1.4,0.6-2.9,0.9-4.3,0.9s-2.5-0.4-3.2-1.2c-0.8-0.8-1.2-2-1.2-3.6h9.4v-1.3c0-1.8-0.5-3.3-1.5-4.4c-1-1.1-2.3-1.7-4-1.7
		c-1.8,0-3.3,0.6-4.3,1.9c-1.1,1.3-1.6,3-1.6,5.2s0.6,3.9,1.7,5.1c1.2,1.2,2.7,1.8,4.8,1.8C310.2,215.7,311,215.6,311.7,215.5
		 M298.9,215.5v-8.9c0-1.7-0.4-3-1.2-3.8c-0.8-0.8-2.1-1.2-3.7-1.2c-0.9,0-1.8,0.2-2.5,0.6c-0.8,0.4-1.4,0.9-1.8,1.6h-0.1l-0.3-1.9
		h-1.7v13.6h2.1v-7.1c0-1.8,0.3-3,1-3.8c0.7-0.8,1.7-1.2,3.1-1.2c1.1,0,1.9,0.3,2.4,0.8s0.8,1.4,0.8,2.5v8.8L298.9,215.5
		L298.9,215.5z M266.7,212.7c-0.6-0.9-1-2.2-1-3.9s0.3-3,1-4c0.6-0.9,1.6-1.4,2.8-1.4c1.4,0,2.4,0.4,3.1,1.2c0.6,0.8,1,2.2,1,4.1
		v0.4c0,1.7-0.3,2.9-0.9,3.7c-0.6,0.8-1.7,1.1-3.1,1.1C268.2,214,267.3,213.5,266.7,212.7 M273.8,215.5h1.7v-19.3h-2.1v5.5v1l0.1,1
		h-0.2c-1-1.3-2.4-2-4.2-2c-1.8,0-3.2,0.6-4.1,1.9c-1,1.2-1.5,3-1.5,5.2s0.5,4,1.5,5.2s2.4,1.8,4.1,1.8c1.9,0,3.3-0.7,4.3-2.1h0.1
		L273.8,215.5z M259.5,196.2h-2.1v19.3h2.1V196.2z M241.2,201.9v8.9c0,1.7,0.4,3,1.2,3.8s2.1,1.2,3.7,1.2c1,0,1.8-0.2,2.6-0.5
		c0.7-0.4,1.3-0.9,1.8-1.5h0.1l0.3,1.8h1.7v-13.7h-2.1v7.1c0,1.8-0.3,3-1,3.8s-1.7,1.2-3.1,1.2c-1.1,0-1.9-0.3-2.4-0.8
		s-0.8-1.4-0.8-2.5v-8.8H241.2z M227.9,204.7c0.7-0.9,1.7-1.3,3.1-1.3c1.4,0,2.4,0.4,3.1,1.3c0.7,0.9,1,2.2,1,3.9s-0.3,3.1-1,4
		s-1.7,1.4-3.1,1.4s-2.4-0.5-3.1-1.4c-0.7-0.9-1-2.2-1-4C226.8,206.9,227.2,205.6,227.9,204.7 M235.5,203.5
		c-1.1-1.3-2.6-1.9-4.5-1.9c-2,0-3.5,0.6-4.6,1.9c-1.1,1.2-1.7,3-1.7,5.2c0,1.4,0.3,2.7,0.8,3.7c0.5,1.1,1.2,1.9,2.2,2.5
		c0.9,0.6,2,0.9,3.2,0.9c2,0,3.5-0.6,4.6-1.9c1.1-1.2,1.7-3,1.7-5.2S236.6,204.8,235.5,203.5 M218.7,215.5l3.8-13.6h-2.1
		c-1.6,6.1-2.4,9.4-2.6,10c-0.1,0.6-0.2,1.1-0.3,1.4h-0.1c-0.2-1-0.5-2.2-0.9-3.6l-2.4-7.8h-2.2l-2.5,7.8c-0.1,0.4-0.3,1-0.5,1.8
		c-0.2,0.7-0.3,1.4-0.4,1.8h-0.1c-0.1-0.6-0.3-1.8-0.8-3.6s-1.1-4.4-2-7.8h-2.2l3.7,13.6h2.4l2.6-7.9c0.2-0.8,0.5-1.9,0.9-3.3h0.1
		c0.4,1.7,0.7,2.8,0.9,3.3l2.5,8L218.7,215.5L218.7,215.5z M181.9,201.9v8.9c0,1.7,0.4,3,1.2,3.8s2.1,1.2,3.7,1.2
		c1,0,1.8-0.2,2.6-0.5c0.7-0.4,1.3-0.9,1.8-1.5h0.1l0.3,1.8h1.7v-13.7h-2.1v7.1c0,1.8-0.3,3-1,3.8s-1.7,1.2-3.1,1.2
		c-1.1,0-1.9-0.3-2.4-0.8s-0.8-1.4-0.8-2.5v-8.8H181.9z M168.6,204.7c0.7-0.9,1.7-1.3,3-1.3c1.4,0,2.4,0.4,3.1,1.3
		c0.7,0.9,1,2.2,1,3.9s-0.3,3.1-1,4s-1.7,1.4-3.1,1.4c-1.3,0-2.4-0.5-3.1-1.4s-1-2.2-1-4C167.5,206.9,167.9,205.6,168.6,204.7
		 M176.2,203.5c-1.1-1.3-2.6-1.9-4.5-1.9c-2,0-3.5,0.6-4.6,1.9c-1.1,1.2-1.7,3-1.7,5.2c0,1.4,0.3,2.7,0.8,3.7
		c0.5,1.1,1.2,1.9,2.2,2.5c0.9,0.6,2,0.9,3.2,0.9c2,0,3.5-0.6,4.6-1.9c1.1-1.3,1.7-3,1.7-5.2S177.3,204.8,176.2,203.5 M156.2,215.5
		l-0.8,1.9c-0.6,1.6-1.6,2.4-3,2.4c-0.6,0-1.1-0.1-1.5-0.1v1.6c0.6,0.1,1.2,0.2,1.9,0.2c1.1,0,2.1-0.3,2.8-1c0.8-0.6,1.4-1.7,2-3.3
		l5.8-15.5h-2.2c-1.9,5.3-3,8.4-3.4,9.4c-0.4,1-0.6,1.7-0.7,2.2H157c-0.2-0.8-0.6-2.1-1.2-3.8l-3-7.7h-2.2L156.2,215.5z
		 M139.1,213.4c-0.4-0.4-0.6-1.1-0.6-1.9v-8h3.9v-1.6h-3.9v-3.1h-1.2l-0.9,2.9l-1.9,0.9v1h1.9v8.1c0,2.8,1.3,4.2,3.9,4.2
		c0.3,0,0.7,0,1.2-0.1c0.4-0.1,0.8-0.2,1-0.3v-1.6c-0.2,0.1-0.5,0.1-0.8,0.2c-0.3,0.1-0.7,0.1-1.1,0.1
		C140,214,139.5,213.8,139.1,213.4 M123.5,213.4c-0.5-0.4-0.7-1-0.7-1.7c0-1,0.4-1.7,1.1-2.1c0.7-0.4,1.9-0.7,3.5-0.8l2.1-0.1v1.2
		c0,1.3-0.4,2.2-1.1,3c-0.7,0.7-1.7,1.1-3,1.1C124.5,214,123.9,213.8,123.5,213.4 M131.5,215.5v-9.3c0-1.6-0.4-2.7-1.2-3.5
		c-0.8-0.7-2-1.1-3.6-1.1c-0.8,0-1.6,0.1-2.4,0.3s-1.5,0.5-2.2,0.9l0.6,1.6c1.4-0.7,2.7-1,3.8-1c1,0,1.7,0.3,2.2,0.8
		s0.7,1.3,0.7,2.4v0.8l-2.3,0.1c-4.4,0.1-6.6,1.6-6.6,4.3c0,1.3,0.4,2.3,1.1,3c0.8,0.7,1.8,1,3.2,1c1,0,1.8-0.2,2.5-0.5
		c0.7-0.3,1.3-0.9,2-1.7h0.1l0.4,1.9H131.5z M116.9,215.5v-8.9c0-1.7-0.4-3-1.2-3.8c-0.8-0.8-2.1-1.2-3.7-1.2c-1,0-1.8,0.2-2.6,0.6
		c-0.7,0.4-1.3,0.9-1.7,1.5h-0.1c0.1-0.5,0.1-1,0.1-1.7v-5.8h-2.1v19.3h2.1v-7.1c0-1.8,0.3-3,1-3.8c0.7-0.8,1.7-1.2,3.1-1.2
		c1.1,0,1.9,0.3,2.4,0.8s0.8,1.4,0.8,2.5v8.8L116.9,215.5L116.9,215.5z M98.9,213.4c-0.4-0.4-0.6-1.1-0.6-1.9v-8h3.9v-1.6h-3.9v-3.1
		h-1.2l-0.9,2.9l-1.9,0.9v1h1.9v8.1c0,2.8,1.3,4.2,3.9,4.2c0.3,0,0.7,0,1.2-0.1c0.4-0.1,0.8-0.2,1-0.3v-1.6
		c-0.2,0.1-0.5,0.1-0.8,0.2c-0.3,0.1-0.7,0.1-1.1,0.1C99.8,214,99.3,213.8,98.9,213.4"/>
	<path class="st0" d="M491,178v-8.9c0-1.7-0.4-3-1.2-3.8c-0.8-0.8-2.1-1.2-3.7-1.2c-0.9,0-1.8,0.2-2.5,0.6c-0.8,0.4-1.4,0.9-1.8,1.6
		h-0.1l-0.3-1.9h-1.7V178h2.1v-7.1c0-1.8,0.3-3,1-3.8s1.7-1.2,3.1-1.2c1.1,0,1.9,0.3,2.4,0.8s0.8,1.4,0.8,2.5v8.8H491z M466.2,167.2
		c0.7-0.9,1.7-1.3,3.1-1.3s2.4,0.4,3.1,1.3c0.7,0.9,1,2.2,1,3.9s-0.3,3.1-1,4c-0.7,0.9-1.7,1.4-3.1,1.4c-1.3,0-2.4-0.5-3.1-1.4
		s-1-2.2-1-4C465.2,169.4,465.6,168.1,466.2,167.2 M473.9,166c-1.1-1.3-2.6-1.9-4.5-1.9c-2,0-3.5,0.6-4.6,1.9
		c-1.1,1.2-1.7,3-1.7,5.2c0,1.4,0.3,2.7,0.8,3.7c0.5,1.1,1.2,1.9,2.2,2.5c0.9,0.6,2,0.9,3.2,0.9c2,0,3.5-0.6,4.6-1.9
		c1.1-1.2,1.7-3,1.7-5.2C475.6,169,475,167.3,473.9,166 M457.1,161.7c0.2,0.2,0.5,0.3,0.9,0.3c0.3,0,0.6-0.1,0.9-0.3
		c0.2-0.2,0.4-0.6,0.4-1c0-0.4-0.1-0.8-0.4-1c-0.2-0.2-0.5-0.3-0.9-0.3c-0.3,0-0.6,0.1-0.9,0.3c-0.2,0.2-0.3,0.6-0.3,1
		C456.7,161.2,456.8,161.5,457.1,161.7 M459,164.4h-2.1V178h2.1V164.4z M450.2,175.9c-0.4-0.4-0.6-1.1-0.6-1.9v-8h3.9v-1.6h-3.9
		v-3.1h-1.2l-0.9,2.9l-1.9,0.9v1h1.9v8.1c0,2.8,1.3,4.2,3.9,4.2c0.3,0,0.7,0,1.2-0.1c0.4-0.1,0.8-0.2,1-0.3v-1.6
		c-0.2,0.1-0.5,0.1-0.8,0.2c-0.3,0.1-0.7,0.1-1.1,0.1C451.1,176.5,450.6,176.3,450.2,175.9 M434.6,175.9c-0.5-0.4-0.7-1-0.7-1.7
		c0-1,0.4-1.7,1.1-2.1c0.7-0.5,1.9-0.7,3.5-0.8l2.1-0.1v1.2c0,1.3-0.4,2.2-1.1,3c-0.7,0.7-1.7,1.1-3,1.1
		C435.7,176.5,435.1,176.3,434.6,175.9 M442.7,178v-9.3c0-1.6-0.4-2.7-1.2-3.5c-0.8-0.7-2-1.1-3.6-1.1c-0.8,0-1.6,0.1-2.4,0.3
		s-1.5,0.5-2.2,0.9l0.6,1.6c1.4-0.7,2.7-1,3.8-1c1,0,1.7,0.3,2.2,0.8s0.7,1.3,0.7,2.4v0.8l-2.3,0.1c-4.4,0.1-6.6,1.6-6.6,4.3
		c0,1.3,0.4,2.3,1.1,3c0.8,0.7,1.8,1,3.2,1c1,0,1.8-0.2,2.5-0.5s1.3-0.9,2-1.7h0.1l0.4,1.9H442.7z M428.1,178v-8.9
		c0-1.7-0.4-3-1.1-3.8c-0.8-0.8-1.9-1.2-3.5-1.2c-1,0-1.9,0.2-2.6,0.6c-0.8,0.4-1.4,1-1.8,1.7H419c-0.7-1.5-2-2.3-4.2-2.3
		c-0.9,0-1.7,0.2-2.4,0.6c-0.7,0.4-1.3,0.9-1.6,1.6h-0.1l-0.3-1.9h-1.7V178h2.1v-7.1c0-1.8,0.3-3,0.9-3.8s1.5-1.2,2.8-1.2
		c1,0,1.7,0.3,2.2,0.8s0.7,1.4,0.7,2.4v8.8h2.1v-7.6c0-1.5,0.3-2.7,0.9-3.4s1.6-1.1,2.8-1.1c1,0,1.7,0.3,2.2,0.8s0.7,1.4,0.7,2.4
		v8.8h2V178z M401.7,164.9c-0.7,0.5-1.3,1.2-1.8,2h-0.1l-0.2-2.5h-1.7V178h2.1v-7.3c0-1.3,0.4-2.4,1.2-3.3c0.8-0.9,1.7-1.3,2.8-1.3
		c0.4,0,0.9,0.1,1.5,0.2l0.3-1.9c-0.5-0.1-1-0.1-1.6-0.1C403.2,164.1,402.4,164.4,401.7,164.9 M384.4,167.2c0.7-0.9,1.7-1.3,3.1-1.3
		s2.4,0.4,3.1,1.3c0.7,0.9,1,2.2,1,3.9s-0.3,3.1-1,4c-0.7,0.9-1.7,1.4-3.1,1.4c-1.3,0-2.4-0.5-3.1-1.4s-1-2.2-1-4
		C383.3,169.4,383.7,168.1,384.4,167.2 M392,166c-1.1-1.3-2.6-1.9-4.5-1.9c-2,0-3.5,0.6-4.6,1.9c-1.1,1.2-1.7,3-1.7,5.2
		c0,1.4,0.3,2.7,0.8,3.7c0.5,1.1,1.2,1.9,2.2,2.5c0.9,0.6,2,0.9,3.2,0.9c2,0,3.5-0.6,4.6-1.9c1.1-1.2,1.7-3,1.7-5.2
		C393.7,169,393.1,167.3,392,166 M379,164.4h-3.5v-0.9c0-1.1,0.2-2,0.6-2.5s0.9-0.8,1.7-0.8c0.6,0,1.2,0.1,2,0.4l0.5-1.6
		c-1-0.3-1.8-0.4-2.5-0.4c-2.9,0-4.4,1.7-4.4,5v0.8l-2.4,0.7v0.9h2.4v12h2.1v-12h3.5L379,164.4L379,164.4z M368.1,178v-8.9
		c0-1.7-0.4-3-1.2-3.8c-0.8-0.8-2.1-1.2-3.7-1.2c-0.9,0-1.8,0.2-2.5,0.6c-0.8,0.4-1.4,0.9-1.8,1.6h-0.1l-0.3-1.9h-1.7V178h2.1v-7.1
		c0-1.8,0.3-3,1-3.8s1.7-1.2,3.1-1.2c1.1,0,1.9,0.3,2.4,0.8s0.8,1.4,0.8,2.5v8.8H368.1z M350,161.7c0.2,0.2,0.5,0.3,0.9,0.3
		c0.3,0,0.6-0.1,0.9-0.3c0.2-0.2,0.4-0.6,0.4-1c0-0.4-0.1-0.8-0.4-1c-0.2-0.2-0.5-0.3-0.9-0.3c-0.3,0-0.6,0.1-0.9,0.3
		c-0.2,0.2-0.3,0.6-0.3,1C349.7,161.2,349.8,161.5,350,161.7 M351.9,164.4h-2.1V178h2.1V164.4z M339.7,164.4h-3.5v-0.9
		c0-1.1,0.2-2,0.6-2.5s0.9-0.8,1.7-0.8c0.6,0,1.2,0.1,2,0.4l0.5-1.6c-1-0.3-1.8-0.4-2.5-0.4c-2.9,0-4.4,1.7-4.4,5v0.8l-2.4,0.7v0.9
		h2.4v12h2.1v-12h3.5L339.7,164.4L339.7,164.4z M320.2,167.2c0.7-0.9,1.7-1.3,3-1.3c1.4,0,2.4,0.4,3.1,1.3c0.7,0.9,1,2.2,1,3.9
		s-0.3,3.1-1,4c-0.7,0.9-1.7,1.4-3.1,1.4c-1.3,0-2.4-0.5-3.1-1.4s-1-2.2-1-4C319.1,169.4,319.5,168.1,320.2,167.2 M327.8,166
		c-1.1-1.3-2.6-1.9-4.5-1.9c-2,0-3.5,0.6-4.6,1.9c-1.1,1.2-1.7,3-1.7,5.2c0,1.4,0.3,2.7,0.8,3.7c0.5,1.1,1.2,1.9,2.2,2.5
		c0.9,0.6,2,0.9,3.2,0.9c2,0,3.5-0.6,4.6-1.9s1.7-3,1.7-5.2C329.5,169,328.9,167.3,327.8,166 M306,172c-0.6-0.6-1.7-1.2-3.3-1.8
		c-1.2-0.4-2-0.8-2.4-1s-0.7-0.5-0.9-0.7c-0.2-0.2-0.3-0.6-0.3-0.9c0-0.5,0.2-1,0.7-1.3s1.2-0.5,2.2-0.5c1.1,0,2.3,0.3,3.7,0.8
		l0.7-1.7c-1.4-0.6-2.8-0.9-4.3-0.9c-1.6,0-2.8,0.3-3.7,1c-0.9,0.6-1.4,1.5-1.4,2.6c0,0.6,0.1,1.2,0.4,1.6c0.3,0.4,0.7,0.8,1.2,1.2
		c0.5,0.4,1.4,0.8,2.7,1.2c1.3,0.5,2.2,1,2.7,1.3c0.5,0.4,0.7,0.8,0.7,1.4c0,0.7-0.3,1.2-0.9,1.6c-0.6,0.3-1.4,0.5-2.5,0.5
		c-0.7,0-1.4-0.1-2.2-0.3c-0.8-0.2-1.4-0.4-2.1-0.8v1.9c1,0.6,2.4,0.9,4.2,0.9c1.7,0,3-0.3,4-1c0.9-0.7,1.4-1.7,1.4-2.9
		C306.8,173.4,306.5,172.6,306,172 M291.4,175.9c-0.4-0.4-0.6-1.1-0.6-1.9v-8h3.9v-1.6h-3.9v-3.1h-1.2l-0.9,2.9l-1.9,0.9v1h1.9v8.1
		c0,2.8,1.3,4.2,3.9,4.2c0.3,0,0.7,0,1.2-0.1c0.4-0.1,0.8-0.2,1-0.3v-1.6c-0.2,0.1-0.5,0.1-0.8,0.2c-0.3,0.1-0.7,0.1-1.1,0.1
		C292.3,176.5,291.7,176.3,291.4,175.9 M281.6,164.9c-0.7,0.5-1.3,1.2-1.8,2h-0.1l-0.2-2.5h-1.7V178h2.1v-7.3c0-1.3,0.4-2.4,1.2-3.3
		c0.8-0.9,1.7-1.3,2.8-1.3c0.4,0,0.9,0.1,1.5,0.2l0.3-1.9c-0.5-0.1-1-0.1-1.6-0.1C283,164.1,282.3,164.4,281.6,164.9 M264.3,167.2
		c0.7-0.9,1.7-1.3,3-1.3c1.4,0,2.4,0.4,3.1,1.3c0.7,0.9,1,2.2,1,3.9s-0.3,3.1-1,4c-0.7,0.9-1.7,1.4-3.1,1.4c-1.3,0-2.4-0.5-3.1-1.4
		s-1-2.2-1-4C263.2,169.4,263.6,168.1,264.3,167.2 M271.9,166c-1.1-1.3-2.6-1.9-4.5-1.9c-2,0-3.5,0.6-4.6,1.9
		c-1.1,1.2-1.7,3-1.7,5.2c0,1.4,0.3,2.7,0.8,3.7c0.5,1.1,1.2,1.9,2.2,2.5c0.9,0.6,2,0.9,3.2,0.9c2,0,3.5-0.6,4.6-1.9s1.7-3,1.7-5.2
		C273.6,169,273,167.3,271.9,166 M257.1,172c-0.6-0.6-1.7-1.2-3.3-1.8c-1.2-0.4-2-0.8-2.4-1s-0.7-0.5-0.9-0.7s-0.3-0.6-0.3-0.9
		c0-0.5,0.2-1,0.7-1.3s1.2-0.5,2.2-0.5c1.1,0,2.3,0.3,3.7,0.8l0.7-1.7c-1.4-0.6-2.8-0.9-4.3-0.9c-1.6,0-2.8,0.3-3.7,1
		c-0.9,0.6-1.4,1.5-1.4,2.6c0,0.6,0.1,1.2,0.4,1.6c0.3,0.4,0.7,0.8,1.2,1.2c0.5,0.4,1.4,0.8,2.7,1.2c1.3,0.5,2.2,1,2.7,1.3
		c0.5,0.4,0.7,0.8,0.7,1.4c0,0.7-0.3,1.2-0.9,1.6c-0.6,0.3-1.4,0.5-2.5,0.5c-0.7,0-1.4-0.1-2.2-0.3c-0.7-0.2-1.4-0.4-2.1-0.8v1.9
		c1,0.6,2.4,0.9,4.2,0.9c1.7,0,3-0.3,4-1c1-0.7,1.4-1.7,1.4-2.9C258,173.4,257.7,172.6,257.1,172 M235,166.9c0.6,0.7,0.9,1.7,0.9,3
		h-7.1c0.1-1.3,0.5-2.2,1.1-3s1.5-1.1,2.6-1.1C233.6,165.9,234.5,166.2,235,166.9 M235.5,178c0.6-0.1,1.3-0.4,2.1-0.7v-1.8
		c-1.4,0.6-2.9,0.9-4.3,0.9c-1.4,0-2.5-0.4-3.2-1.2c-0.8-0.8-1.2-2-1.2-3.6h9.4v-1.3c0-1.8-0.5-3.3-1.5-4.4c-1-1.1-2.3-1.7-4-1.7
		c-1.8,0-3.3,0.6-4.3,1.9c-1.1,1.3-1.6,3-1.6,5.2s0.6,3.9,1.7,5.1c1.2,1.2,2.7,1.8,4.8,1.8C234,178.2,234.8,178.2,235.5,178
		 M222.6,178v-8.9c0-1.7-0.4-3-1.2-3.8s-2.1-1.2-3.7-1.2c-1,0-1.8,0.2-2.6,0.6c-0.7,0.4-1.3,0.9-1.7,1.5h-0.1c0.1-0.5,0.1-1,0.1-1.7
		v-5.8h-2.1V178h2.1v-7.1c0-1.8,0.3-3,1-3.8s1.7-1.2,3.1-1.2c1.1,0,1.9,0.3,2.4,0.8s0.8,1.4,0.8,2.5v8.8H222.6z M204.6,175.9
		c-0.4-0.4-0.6-1.1-0.6-1.9v-8h3.9v-1.6H204v-3.1h-1.2l-0.9,2.9l-1.9,0.9v1h1.9v8.1c0,2.8,1.3,4.2,3.9,4.2c0.3,0,0.7,0,1.2-0.1
		c0.4-0.1,0.8-0.2,1-0.3v-1.6c-0.2,0.1-0.5,0.1-0.8,0.2c-0.3,0.1-0.7,0.1-1.1,0.1C205.5,176.5,205,176.3,204.6,175.9 M189.8,158.7
		h-2.1V178h2.1V158.7z M182.9,158.7h-2.1V178h2.1V158.7z M168,175.9c-0.5-0.4-0.7-1-0.7-1.7c0-1,0.4-1.7,1.1-2.1
		c0.7-0.5,1.9-0.7,3.5-0.8l2.1-0.1v1.2c0,1.3-0.4,2.2-1.1,3c-0.7,0.7-1.7,1.1-3,1.1C169.1,176.5,168.5,176.3,168,175.9 M176.1,178
		v-9.3c0-1.6-0.4-2.7-1.2-3.5c-0.8-0.7-2-1.1-3.6-1.1c-0.8,0-1.6,0.1-2.4,0.3s-1.5,0.5-2.2,0.9l0.6,1.6c1.4-0.7,2.7-1,3.8-1
		c1,0,1.7,0.3,2.2,0.8s0.7,1.3,0.7,2.4v0.8l-2.3,0.1c-4.4,0.1-6.6,1.6-6.6,4.3c0,1.3,0.4,2.3,1.1,3c0.8,0.7,1.8,1,3.2,1
		c1,0,1.9-0.2,2.5-0.5c0.7-0.3,1.3-0.9,2-1.7h0.1l0.4,1.9H176.1z"/>
	<path class="st1" d="M155.3,172.9c-0.3-0.4-0.7-0.8-1.2-1.2s-1.4-0.7-2.7-1.2c-1.5-0.5-2.4-1-2.9-1.4c-0.5-0.4-0.8-1-0.8-1.7
		c0-0.6,0.3-1.1,1-1.5c0.6-0.4,1.5-0.5,2.6-0.5c1.1,0,2.4,0.3,3.7,0.8l0.5-1.1c-1.3-0.5-2.7-0.8-4.1-0.8c-1.5,0-2.7,0.3-3.6,0.9
		c-0.8,0.6-1.3,1.4-1.3,2.4c0,0.6,0.1,1.2,0.4,1.6c0.3,0.4,0.7,0.8,1.2,1.2c0.5,0.4,1.5,0.8,2.8,1.3c1.3,0.4,2.2,0.9,2.7,1.4
		s0.8,1,0.8,1.7s-0.3,1.3-1,1.8c-0.7,0.4-1.7,0.7-3,0.7c-1.5,0-2.9-0.3-4.3-1v1.3c1.1,0.6,2.5,0.8,4.3,0.8c1.7,0,3-0.3,3.9-1
		c0.9-0.6,1.4-1.6,1.4-2.8C155.7,173.9,155.6,173.3,155.3,172.9 M134.7,176.4c-0.5-0.5-0.8-1.1-0.8-2c0-1.1,0.4-1.8,1.2-2.3
		c0.8-0.5,2.2-0.8,4-0.9l2.4-0.1v1.3c0,1.5-0.4,2.6-1.2,3.4c-0.8,0.8-2,1.2-3.4,1.2C135.9,177.1,135.2,176.9,134.7,176.4 M142.7,178
		v-9c0-1.6-0.4-2.8-1.1-3.6s-1.8-1.2-3.3-1.2c-1.4,0-2.9,0.3-4.4,1l0.5,1.1c1.3-0.7,2.6-1,3.9-1c1.2,0,2,0.3,2.5,1s0.8,1.6,0.8,2.9
		v0.9l-2.6,0.1c-2.1,0-3.7,0.4-4.8,1.2c-1.1,0.7-1.6,1.7-1.6,3.1c0,1.2,0.4,2.1,1.1,2.8s1.8,1,3.1,1c1,0,1.8-0.2,2.5-0.5
		c0.7-0.4,1.4-1,2.1-1.8h0.1l0.3,2.1h0.9V178z M129,178v-8.8c0-3.3-1.5-4.9-4.6-4.9c-1.1,0-2.1,0.2-2.9,0.5c-0.8,0.4-1.4,1-1.9,1.8
		h-0.1l0.1-1.7v-6.1h-1.2v19.3h1.2v-7.4c0-1.8,0.4-3.1,1.1-4c0.7-0.8,1.9-1.2,3.5-1.2c1.2,0,2.1,0.3,2.7,0.9c0.6,0.6,0.9,1.6,0.9,3
		v8.7h1.2V178z M104.7,176.4c-0.4-0.5-0.5-1.3-0.5-2.3v-8.5h4v-1.1h-4v-3.3h-0.6l-0.6,3.1l-2,0.6v0.7h2v8.7c0,1.4,0.3,2.4,0.8,3
		c0.6,0.6,1.4,1,2.6,1c0.8,0,1.5-0.1,2.1-0.3v-1c-0.6,0.1-1.3,0.2-2,0.2C105.8,177.2,105,176.9,104.7,176.4 M97.7,159.8h-1.3v18.1
		h1.3V159.8z"/>
	<path class="st1" d="M490,125.2c0.7,0,1-0.4,1-1.2s-0.3-1.2-1-1.2s-1,0.4-1,1.2S489.4,125.2,490,125.2 M483,113.7
		c0.7,0.9,1,2.1,1,3.7h-8.3c0.1-1.6,0.6-2.8,1.4-3.7c0.8-0.9,1.8-1.3,3.1-1.3C481.4,112.4,482.3,112.8,483,113.7 M482.7,125.1
		c0.6-0.1,1.3-0.3,2.1-0.7v-1.1c-0.9,0.4-1.6,0.6-2.2,0.7s-1.3,0.2-2,0.2c-1.6,0-2.8-0.5-3.6-1.5c-0.8-1-1.3-2.4-1.3-4.2h9.7v-1
		c0-1.9-0.5-3.4-1.4-4.5s-2.2-1.7-3.8-1.7c-1.8,0-3.2,0.6-4.3,1.9c-1.1,1.3-1.6,3-1.6,5.2s0.5,3.9,1.6,5.1s2.6,1.8,4.6,1.8
		C481.3,125.2,482,125.2,482.7,125.1 M468.2,123.4c-0.4-0.5-0.5-1.3-0.5-2.3v-8.5h4v-1.1h-4v-3.3h-0.6l-0.6,3l-2,0.6v0.7h2v8.7
		c0,1.4,0.3,2.4,0.8,3c0.6,0.6,1.4,1,2.6,1c0.8,0,1.5-0.1,2.1-0.3v-1c-0.6,0.1-1.3,0.2-2,0.2C469.1,124.2,468.5,123.9,468.2,123.4
		 M453.7,123.4c-0.5-0.5-0.8-1.1-0.8-2c0-1.1,0.4-1.8,1.2-2.3c0.8-0.5,2.2-0.8,4-0.9l2.4-0.1v1.3c0,1.5-0.4,2.6-1.2,3.4
		c-0.8,0.8-2,1.2-3.4,1.2C454.9,124.1,454.2,123.9,453.7,123.4 M461.7,125v-9c0-1.6-0.4-2.8-1.1-3.6c-0.7-0.8-1.8-1.2-3.3-1.2
		c-1.4,0-2.9,0.3-4.4,1l0.5,1.1c1.3-0.7,2.6-1,3.9-1c1.2,0,2,0.3,2.5,1s0.8,1.6,0.8,2.9v0.9l-2.6,0.1c-2.1,0-3.7,0.4-4.8,1.2
		c-1.1,0.7-1.6,1.7-1.6,3.1c0,1.2,0.4,2.1,1.1,2.8c0.7,0.7,1.8,1,3.1,1c1,0,1.8-0.2,2.5-0.5c0.7-0.4,1.4-1,2.1-1.8h0.1l0.3,2.1
		L461.7,125L461.7,125z M440.6,113.1c0.6-0.6,1.5-0.9,2.5-0.9c1.1,0,2,0.3,2.6,0.9s0.9,1.4,0.9,2.6c0,1.1-0.3,1.9-0.9,2.5
		s-1.5,0.9-2.6,0.9s-1.9-0.3-2.5-0.9s-0.9-1.4-0.9-2.4C439.7,114.6,440,113.8,440.6,113.1 M442.4,124.4h2.2c1.2,0,2.1,0.2,2.7,0.5
		c0.6,0.4,0.8,1,0.8,1.8c0,2.3-1.8,3.4-5.3,3.4c-2.8,0-4.1-0.9-4.1-2.8C438.7,125.3,439.9,124.4,442.4,124.4 M445.3,111.5
		c-0.5-0.2-1.2-0.3-2.1-0.3c-1.5,0-2.6,0.4-3.5,1.2c-0.9,0.8-1.3,1.9-1.3,3.2c0,0.9,0.2,1.7,0.7,2.4c0.4,0.7,1,1.2,1.8,1.5
		c-1.1,0.7-1.7,1.5-1.7,2.4c0,0.4,0.1,0.8,0.4,1.1c0.2,0.3,0.6,0.6,1,0.7c-1,0.2-1.8,0.6-2.3,1.3c-0.6,0.6-0.9,1.4-0.9,2.3
		c0,1.2,0.5,2.1,1.4,2.7c0.9,0.7,2.2,1,3.9,1c2.1,0,3.8-0.4,4.9-1.2c1.2-0.8,1.7-1.9,1.7-3.3c0-1.2-0.4-2-1.2-2.6
		c-0.8-0.6-1.9-0.9-3.4-0.9h-2.4c-0.8,0-1.3-0.1-1.6-0.3c-0.3-0.2-0.5-0.5-0.5-0.9s0.1-0.8,0.4-1.1c0.3-0.3,0.6-0.6,1.1-0.9
		c0.2,0,0.7,0.1,1.3,0.1c1.5,0,2.6-0.4,3.5-1.2c0.9-0.8,1.3-1.9,1.3-3.2c0-1.1-0.4-2.1-1.1-3.1l2.8-0.2v-0.9h-4.2V111.5z M433.7,109
		c0.3,0,0.5-0.1,0.6-0.3c0.1-0.2,0.2-0.5,0.2-0.9s-0.1-0.7-0.2-0.9c-0.1-0.2-0.3-0.3-0.6-0.3c-0.5,0-0.8,0.4-0.8,1.2
		S433.2,109,433.7,109 M434.3,111.5h-1.2V125h1.2V111.5z M425.4,125l5.2-13.5h-1.3l-3.5,9.1c-0.4,0.9-0.7,2-1,3.1h-0.1
		c-0.2-0.9-0.6-1.9-1-3.1l-3.5-9.2h-1.3l5.2,13.5L425.4,125L425.4,125z M408.5,123.4c-0.5-0.5-0.8-1.1-0.8-2c0-1.1,0.4-1.8,1.2-2.3
		c0.8-0.5,2.2-0.8,4-0.9l2.4-0.1v1.3c0,1.5-0.4,2.6-1.2,3.4c-0.8,0.8-2,1.2-3.4,1.2C409.8,124.1,409,123.9,408.5,123.4 M416.6,125
		v-9c0-1.6-0.4-2.8-1.1-3.6c-0.7-0.8-1.8-1.2-3.3-1.2c-1.4,0-2.9,0.3-4.4,1l0.5,1.1c1.3-0.7,2.6-1,3.9-1c1.2,0,2,0.3,2.5,1
		s0.8,1.6,0.8,2.9v0.9l-2.6,0.1c-2.1,0-3.7,0.4-4.8,1.2c-1.1,0.7-1.6,1.7-1.6,3.1c0,1.2,0.4,2.1,1.1,2.8c0.7,0.7,1.8,1,3.1,1
		c1,0,1.8-0.2,2.5-0.5c0.7-0.4,1.4-1,2.1-1.8h0.1l0.3,2.1L416.6,125L416.6,125z M402.9,125v-8.8c0-3.3-1.5-4.9-4.6-4.9
		c-2.2,0-3.8,0.7-4.7,2.1h-0.1l-0.2-1.8h-1v13.5h1.2v-7.4c0-1.8,0.4-3.1,1.1-4c0.7-0.8,1.9-1.2,3.5-1.2c1.2,0,2.1,0.3,2.7,0.9
		s0.9,1.6,0.9,3v8.7L402.9,125L402.9,125z M372,113.9c0.8-1,2-1.5,3.4-1.5c1.5,0,2.6,0.5,3.5,1.5c0.8,1,1.2,2.5,1.2,4.3
		c0,1.9-0.4,3.3-1.2,4.3c-0.8,1-2,1.6-3.5,1.6s-2.6-0.5-3.5-1.6c-0.8-1-1.2-2.5-1.2-4.3C370.8,116.4,371.2,114.9,372,113.9
		 M379.8,113.1c-1.1-1.2-2.5-1.9-4.4-1.9s-3.3,0.6-4.4,1.8c-1.1,1.2-1.6,2.9-1.6,5.1c0,1.4,0.2,2.6,0.7,3.7s1.2,1.9,2.1,2.5
		s1.9,0.9,3.1,0.9c1.9,0,3.3-0.6,4.4-1.9c1.1-1.2,1.6-3,1.6-5.2C381.4,116.1,380.9,114.4,379.8,113.1 M363.4,123.4
		c-0.4-0.5-0.5-1.3-0.5-2.3v-8.5h4v-1.1h-4v-3.3h-0.6l-0.6,3l-2,0.6v0.7h2v8.7c0,1.4,0.3,2.4,0.9,3s1.4,1,2.6,1
		c0.8,0,1.5-0.1,2.1-0.3v-1c-0.6,0.1-1.3,0.2-2,0.2C364.3,124.2,363.7,123.9,363.4,123.4 M348.4,113.7c0.7,0.9,1,2.1,1,3.7h-8.3
		c0.1-1.6,0.6-2.8,1.4-3.7c0.8-0.9,1.8-1.3,3.1-1.3C346.8,112.4,347.7,112.8,348.4,113.7 M348,125.1c0.6-0.1,1.3-0.3,2.1-0.7v-1.1
		c-0.9,0.4-1.6,0.6-2.2,0.7s-1.3,0.2-2,0.2c-1.6,0-2.8-0.5-3.6-1.5c-0.8-1-1.3-2.4-1.3-4.2h9.7v-1c0-1.9-0.5-3.4-1.4-4.5
		s-2.2-1.7-3.8-1.7c-1.8,0-3.2,0.6-4.3,1.9c-1.1,1.3-1.6,3-1.6,5.2s0.5,3.9,1.6,5.1s2.6,1.8,4.6,1.8
		C346.7,125.2,347.4,125.2,348,125.1 M335.9,125v-8.8c0-3.3-1.5-4.9-4.6-4.9c-2.2,0-3.8,0.7-4.7,2.1h-0.1l-0.2-1.8h-1v13.5h1.2v-7.4
		c0-1.8,0.4-3.1,1.1-4c0.7-0.8,1.9-1.2,3.5-1.2c1.2,0,2.1,0.3,2.7,0.9s0.9,1.6,0.9,3v8.7L335.9,125L335.9,125z M311.8,113.9
		c0.8-1,2-1.5,3.4-1.5c1.5,0,2.6,0.5,3.5,1.5c0.8,1,1.2,2.5,1.2,4.3c0,1.9-0.4,3.3-1.2,4.3c-0.8,1-2,1.6-3.5,1.6s-2.6-0.5-3.5-1.6
		c-0.8-1-1.2-2.5-1.2-4.3C310.6,116.4,311,114.9,311.8,113.9 M319.7,113.1c-1.1-1.2-2.5-1.9-4.4-1.9s-3.3,0.6-4.4,1.8
		c-1.1,1.2-1.6,2.9-1.6,5.1c0,1.4,0.2,2.6,0.7,3.7s1.2,1.9,2.1,2.5s1.9,0.9,3.1,0.9c1.9,0,3.3-0.6,4.4-1.9c1.1-1.2,1.6-3,1.6-5.2
		C321.3,116.1,320.7,114.4,319.7,113.1 M303.8,113.7c0.7,0.9,1,2.1,1,3.7h-8.3c0.1-1.6,0.6-2.8,1.4-3.7c0.8-0.9,1.8-1.3,3.1-1.3
		C302.2,112.4,303.1,112.8,303.8,113.7 M303.5,125.1c0.6-0.1,1.3-0.3,2.1-0.7v-1.1c-0.9,0.4-1.6,0.6-2.2,0.7s-1.3,0.2-2,0.2
		c-1.6,0-2.8-0.5-3.6-1.5c-0.8-1-1.3-2.4-1.3-4.2h9.7v-1c0-1.9-0.5-3.4-1.4-4.5s-2.2-1.7-3.8-1.7c-1.8,0-3.2,0.6-4.3,1.9
		s-1.6,3-1.6,5.2s0.5,3.9,1.6,5.1s2.6,1.8,4.6,1.8C302.1,125.2,302.8,125.2,303.5,125.1 M291.3,125v-8.8c0-1.7-0.4-3-1.1-3.7
		c-0.7-0.8-1.8-1.2-3.3-1.2c-0.9,0-1.8,0.2-2.5,0.6c-0.7,0.4-1.3,1-1.8,1.8h-0.1c-0.6-1.6-2-2.4-4.1-2.4c-0.8,0-1.6,0.2-2.3,0.6
		c-0.7,0.4-1.2,0.9-1.6,1.6h-0.1l-0.3-1.8h-1v13.5h1.2v-7.4c0-1.8,0.3-3.1,1-3.9c0.6-0.8,1.7-1.2,3.1-1.2c2.1,0,3.1,1.1,3.1,3.4v9.2
		h1.3v-7.9c0-1.6,0.3-2.8,1-3.6c0.7-0.8,1.7-1.1,3.1-1.1c1.1,0,1.8,0.3,2.4,0.9c0.5,0.6,0.8,1.6,0.8,2.9v8.8h1.2V125z M259.8,113.9
		c0.8-1,2-1.5,3.4-1.5c1.5,0,2.6,0.5,3.5,1.5c0.8,1,1.2,2.5,1.2,4.3c0,1.9-0.4,3.3-1.2,4.3c-0.8,1-2,1.6-3.5,1.6s-2.6-0.5-3.5-1.6
		c-0.8-1-1.2-2.5-1.2-4.3C258.6,116.4,259,114.9,259.8,113.9 M267.7,113.1c-1.1-1.2-2.5-1.9-4.4-1.9s-3.3,0.6-4.4,1.8
		c-1.1,1.2-1.6,2.9-1.6,5.1c0,1.4,0.2,2.6,0.7,3.7s1.2,1.9,2.1,2.5c0.9,0.6,1.9,0.9,3.1,0.9c1.9,0,3.3-0.6,4.4-1.9
		c1.1-1.2,1.6-3,1.6-5.2C269.3,116.1,268.7,114.4,267.7,113.1 M254,119.9c-0.3-0.4-0.7-0.8-1.2-1.2c-0.6-0.4-1.4-0.7-2.7-1.2
		c-1.5-0.5-2.4-1-2.9-1.4s-0.8-1-0.8-1.7c0-0.6,0.3-1.1,1-1.5c0.6-0.4,1.5-0.5,2.6-0.5s2.4,0.3,3.7,0.8l0.5-1.1
		c-1.3-0.5-2.7-0.8-4.1-0.8c-1.5,0-2.7,0.3-3.6,0.9c-0.8,0.6-1.3,1.4-1.3,2.4c0,0.6,0.1,1.2,0.4,1.6c0.3,0.4,0.7,0.8,1.2,1.2
		c0.5,0.4,1.5,0.8,2.8,1.3c1.3,0.4,2.2,0.9,2.7,1.4s0.8,1,0.8,1.7s-0.3,1.3-1,1.8c-0.7,0.4-1.7,0.7-3,0.7c-1.5,0-2.9-0.3-4.3-1v1.3
		c1.1,0.6,2.5,0.8,4.3,0.8c1.7,0,3-0.3,3.9-1c0.9-0.6,1.4-1.6,1.4-2.8C254.4,120.9,254.3,120.4,254,119.9 M232.1,111.9
		c-0.6,0.4-1.2,1.1-1.8,2.1h-0.1l-0.1-2.4h-1v13.5h1.2v-7.4c0-1.5,0.4-2.7,1.1-3.7c0.7-1,1.7-1.5,2.8-1.5c0.6,0,1.2,0.1,1.7,0.2
		l0.2-1.2c-0.7-0.1-1.3-0.2-1.8-0.2C233.5,111.3,232.7,111.5,232.1,111.9 M215.6,113.9c0.8-1,2-1.5,3.4-1.5c1.5,0,2.6,0.5,3.5,1.5
		c0.8,1,1.2,2.5,1.2,4.3c0,1.9-0.4,3.3-1.2,4.3s-2,1.6-3.5,1.6s-2.6-0.5-3.5-1.6c-0.8-1-1.2-2.5-1.2-4.3
		C214.4,116.4,214.8,114.9,215.6,113.9 M223.5,113.1c-1.1-1.2-2.5-1.9-4.4-1.9s-3.3,0.6-4.4,1.8c-1.1,1.2-1.6,2.9-1.6,5.1
		c0,1.4,0.2,2.6,0.7,3.7s1.2,1.9,2.1,2.5c0.9,0.6,1.9,0.9,3.1,0.9c1.9,0,3.3-0.6,4.4-1.9c1.1-1.2,1.6-3,1.6-5.2
		C225.1,116.1,224.5,114.4,223.5,113.1 M211.1,111.5h-3.2v-1.3c0-1.3,0.2-2.2,0.6-2.8c0.4-0.6,1.1-0.8,2-0.8c0.7,0,1.3,0.1,2,0.3
		l0.3-1.1c-0.7-0.2-1.5-0.3-2.2-0.3c-1.4,0-2.4,0.4-3,1.2c-0.6,0.8-0.9,2-0.9,3.6v1l-2.5,0.5v0.7h2.5v12.4h1.2v-12.3h3.2
		L211.1,111.5L211.1,111.5z M190.2,125c-0.1,0.3-0.3,0.9-0.7,1.8s-0.6,1.6-0.9,2c-0.3,0.4-0.6,0.7-0.9,0.9c-0.3,0.2-0.7,0.3-1.1,0.3
		c-0.6,0-1.1-0.1-1.6-0.2v1.1c0.6,0.2,1.1,0.3,1.6,0.3c0.6,0,1.2-0.1,1.6-0.3c0.4-0.2,0.8-0.6,1.2-1c0.3-0.4,0.7-1.3,1.2-2.6l6-15.7
		h-1.3l-2.9,7.5c-0.8,2.1-1.4,3.7-1.7,4.8h-0.1c-0.2-0.8-0.8-2.4-1.6-4.7l-2.9-7.6h-1.3L190.2,125z M183.2,119.9
		c-0.3-0.4-0.7-0.8-1.2-1.2c-0.6-0.4-1.4-0.7-2.7-1.2c-1.5-0.5-2.4-1-2.9-1.4s-0.8-1-0.8-1.7c0-0.6,0.3-1.1,1-1.5
		c0.6-0.4,1.5-0.5,2.6-0.5c1.1,0,2.4,0.3,3.7,0.8l0.5-1.1c-1.3-0.5-2.7-0.8-4.1-0.8c-1.5,0-2.7,0.3-3.6,0.9
		c-0.8,0.6-1.3,1.4-1.3,2.4c0,0.6,0.1,1.2,0.4,1.6s0.7,0.8,1.2,1.2c0.5,0.4,1.5,0.8,2.8,1.3c1.3,0.4,2.2,0.9,2.7,1.4
		c0.6,0.5,0.8,1,0.8,1.7s-0.3,1.3-1,1.8c-0.7,0.4-1.7,0.7-3,0.7c-1.5,0-2.9-0.3-4.3-1v1.3c1.1,0.6,2.5,0.8,4.3,0.8
		c1.7,0,3-0.3,3.9-1c0.9-0.6,1.4-1.6,1.4-2.8C183.6,120.9,183.4,120.4,183.2,119.9 M162.5,123.4c-0.5-0.5-0.8-1.1-0.8-2
		c0-1.1,0.4-1.8,1.2-2.3c0.8-0.5,2.2-0.8,4-0.9l2.4-0.1v1.3c0,1.5-0.4,2.6-1.2,3.4c-0.8,0.8-2,1.2-3.4,1.2
		C163.8,124.1,163.1,123.9,162.5,123.4 M170.6,125v-9c0-1.6-0.4-2.8-1.1-3.6c-0.7-0.8-1.8-1.2-3.3-1.2c-1.4,0-2.9,0.3-4.4,1l0.5,1.1
		c1.3-0.7,2.6-1,3.9-1c1.2,0,2,0.3,2.5,1s0.8,1.6,0.8,2.9v0.9l-2.6,0.1c-2.1,0-3.7,0.4-4.8,1.2c-1.1,0.7-1.6,1.7-1.6,3.1
		c0,1.2,0.4,2.1,1.1,2.8c0.7,0.7,1.8,1,3.1,1c1,0,1.8-0.2,2.5-0.5c0.7-0.4,1.4-1,2.1-1.8h0.1l0.3,2.1L170.6,125L170.6,125z
		 M155.2,113.7c0.7,0.9,1,2.1,1,3.7h-8.3c0.1-1.6,0.6-2.8,1.4-3.7c0.8-0.9,1.8-1.3,3.1-1.3C153.6,112.4,154.5,112.8,155.2,113.7
		 M154.9,125.1c0.6-0.1,1.3-0.3,2.1-0.7v-1.1c-0.9,0.4-1.6,0.6-2.2,0.7c-0.6,0.1-1.3,0.2-2,0.2c-1.6,0-2.8-0.5-3.6-1.5
		c-0.8-1-1.3-2.4-1.3-4.2h9.7v-1c0-1.9-0.5-3.4-1.4-4.5c-0.9-1.1-2.2-1.7-3.8-1.7c-1.8,0-3.2,0.6-4.3,1.9c-1.1,1.3-1.6,3-1.6,5.2
		s0.5,3.9,1.6,5.1c1.1,1.2,2.6,1.8,4.6,1.8C153.5,125.2,154.2,125.2,154.9,125.1 M133.4,113.7c0.7,0.9,1,2.4,1,4.5v0.2
		c0,2-0.4,3.5-1.1,4.4s-1.8,1.3-3.3,1.3c-3,0-4.5-1.9-4.5-5.7c0-2,0.4-3.5,1.1-4.5s1.8-1.5,3.3-1.5
		C131.6,112.4,132.7,112.8,133.4,113.7 M125.8,113.1c-1,1.2-1.5,3-1.5,5.3c0,2.2,0.5,3.9,1.5,5.1s2.4,1.7,4.3,1.7
		c1.9,0,3.4-0.8,4.4-2.3h0.1l0.3,2.1h0.8v-19.3h-1.2v4.8c0,1,0,2,0.1,3.1h-0.1c-0.6-0.9-1.2-1.5-1.9-1.8c-0.7-0.4-1.6-0.5-2.5-0.5
		C128.2,111.3,126.8,111.9,125.8,113.1 M120.5,125v-8.8c0-3.3-1.5-4.9-4.6-4.9c-2.2,0-3.8,0.7-4.7,2.1h-0.1l-0.2-1.9h-1V125h1.2
		v-7.4c0-1.8,0.4-3.1,1.1-4c0.7-0.8,1.9-1.2,3.5-1.2c1.2,0,2.1,0.3,2.7,0.9s0.9,1.6,0.9,3v8.7H120.5z M97.2,123.4
		c-0.5-0.5-0.8-1.1-0.8-2c0-1.1,0.4-1.8,1.2-2.3c0.8-0.5,2.2-0.8,4-0.9l2.4-0.1v1.3c0,1.5-0.4,2.6-1.2,3.4c-0.8,0.8-2,1.2-3.4,1.2
		C98.4,124.1,97.7,123.9,97.2,123.4 M105.2,125v-9c0-1.6-0.4-2.8-1.1-3.6c-0.7-0.8-1.8-1.2-3.3-1.2c-1.4,0-2.9,0.3-4.4,1l0.5,1.1
		c1.3-0.7,2.6-1,3.9-1c1.2,0,2,0.3,2.5,1s0.8,1.6,0.8,2.9v0.9l-2.6,0.1c-2.1,0-3.7,0.4-4.8,1.2c-1.1,0.7-1.6,1.7-1.6,3.1
		c0,1.2,0.4,2.1,1.1,2.8c0.7,0.7,1.8,1,3.1,1c1,0,1.8-0.2,2.5-0.5c0.7-0.4,1.4-1,2.1-1.8h0.1l0.3,2.1L105.2,125L105.2,125z"/>
	<path class="st1" d="M442.9,76.2c0.7,0.9,1,2.1,1,3.7h-8.3c0.1-1.6,0.6-2.8,1.4-3.7s1.8-1.3,3.1-1.3
		C441.2,74.9,442.2,75.3,442.9,76.2 M442.5,87.6c0.6-0.1,1.3-0.3,2.1-0.7v-1.1c-0.9,0.4-1.6,0.6-2.2,0.7c-0.6,0.1-1.3,0.2-2,0.2
		c-1.6,0-2.8-0.5-3.6-1.5c-0.8-1-1.3-2.4-1.3-4.2h9.7v-1c0-1.9-0.5-3.4-1.4-4.5c-0.9-1.1-2.2-1.7-3.8-1.7c-1.8,0-3.2,0.6-4.3,1.9
		c-1.1,1.3-1.6,3-1.6,5.2c0,2.2,0.5,3.9,1.6,5.1c1.1,1.2,2.6,1.8,4.6,1.8C441.2,87.8,441.9,87.7,442.5,87.6 M430.8,82.4
		c-0.3-0.4-0.7-0.8-1.2-1.2c-0.6-0.4-1.4-0.7-2.7-1.2c-1.5-0.5-2.4-1-2.9-1.4s-0.8-1-0.8-1.7c0-0.6,0.3-1.1,1-1.5
		c0.6-0.4,1.5-0.5,2.6-0.5s2.4,0.3,3.7,0.8l0.5-1.1c-1.3-0.5-2.7-0.8-4.1-0.8c-1.5,0-2.7,0.3-3.6,0.9c-0.8,0.6-1.3,1.4-1.3,2.4
		c0,0.6,0.1,1.2,0.4,1.6s0.7,0.8,1.2,1.2s1.5,0.8,2.8,1.3c1.3,0.4,2.2,0.9,2.7,1.4s0.8,1,0.8,1.7c0,0.7-0.3,1.3-1,1.8
		c-0.7,0.4-1.7,0.7-3,0.7c-1.5,0-2.9-0.3-4.3-1v1.1c1.1,0.6,2.5,0.8,4.3,0.8c1.7,0,3-0.3,3.9-1c0.9-0.6,1.4-1.6,1.4-2.8
		C431.2,83.4,431.1,82.9,430.8,82.4 M407.5,74v8.8c0,3.3,1.5,4.9,4.6,4.9c2.2,0,3.8-0.7,4.7-2.1h0.1l0.2,1.9h1V74h-1.2v7.4
		c0,1.8-0.4,3.1-1.1,4c-0.8,0.8-1.9,1.2-3.5,1.2c-1.2,0-2.1-0.3-2.7-0.9s-0.9-1.6-0.9-3V74C408.7,74,407.5,74,407.5,74z M387.4,76.4
		c0.8-1,2-1.5,3.4-1.5s2.6,0.5,3.5,1.5c0.8,1,1.2,2.5,1.2,4.3c0,1.9-0.4,3.3-1.2,4.3c-0.8,1-2,1.6-3.5,1.6s-2.6-0.5-3.5-1.6
		c-0.8-1-1.2-2.5-1.2-4.3C386.2,78.9,386.6,77.4,387.4,76.4 M395.2,75.6c-1.1-1.2-2.5-1.9-4.4-1.9s-3.3,0.6-4.4,1.8
		c-1.1,1.2-1.6,2.9-1.6,5.1c0,1.4,0.2,2.6,0.7,3.7s1.2,1.9,2.1,2.5s1.9,0.9,3.1,0.9c1.9,0,3.3-0.6,4.4-1.9c1.1-1.2,1.6-3,1.6-5.2
		C396.8,78.6,396.3,76.9,395.2,75.6 M378.8,85.9c-0.4-0.5-0.5-1.3-0.5-2.3v-8.5h4V74h-4v-3.3h-0.6l-0.6,3l-2,0.6V75h2v8.7
		c0,1.4,0.3,2.4,0.8,3c0.6,0.6,1.4,1,2.6,1c0.8,0,1.5-0.1,2.1-0.3v-1c-0.6,0.1-1.3,0.2-2,0.2C379.7,86.7,379.1,86.4,378.8,85.9
		 M361,87.5c-0.1,0.3-0.3,0.9-0.7,1.8c-0.3,0.9-0.6,1.6-0.9,2s-0.6,0.7-0.9,0.9c-0.3,0.2-0.7,0.3-1.1,0.3c-0.6,0-1.1-0.1-1.5-0.2
		v1.1c0.6,0.2,1.1,0.3,1.6,0.3c0.6,0,1.2-0.1,1.6-0.3c0.4-0.2,0.8-0.6,1.2-1c0.3-0.4,0.7-1.3,1.2-2.6l6-15.7h-1.3l-2.9,7.5
		c-0.8,2.1-1.4,3.7-1.7,4.8h-0.1c-0.2-0.8-0.8-2.4-1.6-4.7l-2.9-7.6h-1.1L361,87.5z M354,82.4c-0.3-0.4-0.7-0.8-1.2-1.2
		c-0.6-0.4-1.4-0.7-2.7-1.2c-1.5-0.5-2.4-1-2.9-1.4s-0.8-1-0.8-1.7c0-0.6,0.3-1.1,1-1.5c0.6-0.4,1.5-0.5,2.6-0.5s2.4,0.3,3.7,0.8
		l0.5-1.1c-1.3-0.5-2.7-0.8-4.1-0.8c-1.5,0-2.7,0.3-3.6,0.9c-0.8,0.6-1.3,1.4-1.3,2.4c0,0.6,0.1,1.2,0.4,1.6s0.7,0.8,1.2,1.2
		s1.5,0.8,2.8,1.3c1.3,0.4,2.2,0.9,2.7,1.4s0.8,1,0.8,1.7c0,0.7-0.3,1.3-1,1.8c-0.7,0.4-1.7,0.7-3,0.7c-1.5,0-2.9-0.3-4.3-1v1.1
		c1.1,0.6,2.5,0.8,4.3,0.8c1.7,0,3-0.3,3.9-1c0.9-0.6,1.4-1.6,1.4-2.8C354.4,83.4,354.3,82.9,354,82.4 M333.4,85.9
		c-0.5-0.5-0.8-1.1-0.8-2c0-1.1,0.4-1.8,1.2-2.3c0.8-0.5,2.2-0.8,4-0.9l2.4-0.1v1.3c0,1.5-0.4,2.6-1.2,3.4c-0.8,0.8-2,1.2-3.4,1.2
		C334.6,86.6,333.9,86.4,333.4,85.9 M341.4,87.5v-9c0-1.6-0.4-2.8-1.1-3.6s-1.8-1.2-3.3-1.2c-1.4,0-2.9,0.3-4.4,1l0.5,1.1
		c1.3-0.7,2.6-1,3.9-1c1.2,0,2,0.3,2.5,1c0.5,0.7,0.8,1.6,0.8,2.9v0.9l-2.6,0.1c-2.1,0-3.7,0.4-4.8,1.2c-1.1,0.7-1.6,1.7-1.6,3.1
		c0,1.2,0.4,2.1,1.1,2.8c0.7,0.7,1.8,1,3.1,1c1,0,1.8-0.2,2.5-0.5c0.7-0.4,1.4-1,2.1-1.8h0.1l0.3,2.1L341.4,87.5L341.4,87.5z
		 M326.1,76.2c0.7,0.9,1,2.1,1,3.7h-8.3c0.1-1.6,0.6-2.8,1.4-3.7s1.8-1.3,3.1-1.3C324.5,74.9,325.4,75.3,326.1,76.2 M325.7,87.6
		c0.6-0.1,1.3-0.3,2.1-0.7v-1.1c-0.9,0.4-1.6,0.6-2.2,0.7c-0.6,0.1-1.3,0.2-2,0.2c-1.6,0-2.8-0.5-3.6-1.5c-0.8-1-1.3-2.4-1.3-4.2
		h9.7v-1c0-1.9-0.5-3.4-1.4-4.5c-0.9-1.1-2.2-1.7-3.8-1.7c-1.8,0-3.2,0.6-4.3,1.9c-1.1,1.3-1.6,3-1.6,5.2c0,2.2,0.5,3.9,1.6,5.1
		c1.1,1.2,2.6,1.8,4.6,1.8C324.4,87.8,325.1,87.7,325.7,87.6 M305.6,84.6c-0.3,1.9-0.7,4-1.4,6.2h0.8c0.8-1.8,1.5-3.8,2.2-6
		l-0.1-0.3L305.6,84.6L305.6,84.6z M298.6,76.3c0.7,0.9,1,2.4,1,4.5V81c0,2-0.4,3.5-1.1,4.4c-0.7,0.9-1.8,1.3-3.3,1.3
		c-3,0-4.5-1.9-4.5-5.7c0-2,0.4-3.5,1.1-4.5c0.7-1,1.8-1.5,3.3-1.5C296.7,74.9,297.9,75.3,298.6,76.3 M290.9,75.6
		c-1,1.2-1.5,3-1.5,5.3c0,2.2,0.5,3.9,1.5,5.1c1,1.2,2.4,1.7,4.3,1.7s3.4-0.8,4.4-2.3h0.1l0.3,2.1h0.8V68.2h-1.2V73c0,1,0,2,0.1,3.1
		h-0.1c-0.6-0.9-1.2-1.5-1.9-1.8c-0.7-0.4-1.6-0.5-2.5-0.5C293.3,73.8,291.9,74.4,290.9,75.6 M283.1,74.4c-0.6,0.4-1.2,1.1-1.8,2.1
		h-0.1l-0.1-2.4h-1v13.5h1.2v-7.4c0-1.5,0.4-2.7,1.1-3.7s1.7-1.5,2.8-1.5c0.6,0,1.2,0.1,1.7,0.2l0.2-1.2c-0.7-0.1-1.3-0.2-1.8-0.2
		C284.5,73.8,283.8,74,283.1,74.4 M267.4,85.9c-0.5-0.5-0.8-1.1-0.8-2c0-1.1,0.4-1.8,1.2-2.3c0.8-0.5,2.2-0.8,4-0.9l2.4-0.1v1.3
		c0,1.5-0.4,2.6-1.2,3.4c-0.8,0.8-2,1.2-3.4,1.2C268.7,86.6,268,86.4,267.4,85.9 M275.5,87.5v-9c0-1.6-0.4-2.8-1.1-3.6
		s-1.8-1.2-3.3-1.2c-1.4,0-2.9,0.3-4.4,1l0.5,1.1c1.3-0.7,2.6-1,3.9-1c1.2,0,2,0.3,2.5,1c0.5,0.7,0.8,1.6,0.8,2.9v0.9l-2.6,0.1
		c-2.1,0-3.7,0.4-4.8,1.2c-1.1,0.7-1.6,1.7-1.6,3.1c0,1.2,0.4,2.1,1.1,2.8c0.7,0.7,1.8,1,3.1,1c1,0,1.8-0.2,2.5-0.5
		c0.7-0.4,1.4-1,2.1-1.8h0.1l0.3,2.1L275.5,87.5L275.5,87.5z M259.8,87.5l3.7-13.5h-1.2l-2.1,7.7c-0.6,2.3-0.9,3.8-1,4.3h-0.1
		c-0.1-0.6-0.5-1.9-1.1-3.9l-2.6-8.2h-1.1l-2.8,8.2c-0.2,0.6-0.6,1.9-1.1,3.9h-0.1c-0.2-0.9-0.5-2.3-1-4.3l-2.2-7.8h-1.2l3.9,13.5
		h1.2l3-9l0.6-1.8l0.3-0.9h0.1c0.3,1.2,0.5,2.1,0.7,2.7l3,9L259.8,87.5L259.8,87.5z M240.7,74.4c-0.6,0.4-1.2,1.1-1.8,2.1h-0.1
		l-0.1-2.4h-1v13.5h1.2v-7.4c0-1.5,0.4-2.7,1.1-3.7c0.7-1,1.7-1.5,2.8-1.5c0.6,0,1.2,0.1,1.7,0.2l0.2-1.2c-0.7-0.1-1.3-0.2-1.8-0.2
		C242.1,73.8,241.3,74,240.7,74.4 M224.2,76.4c0.8-1,2-1.5,3.4-1.5c1.5,0,2.6,0.5,3.5,1.5c0.8,1,1.2,2.5,1.2,4.3
		c0,1.9-0.4,3.3-1.2,4.3s-2,1.6-3.5,1.6s-2.6-0.5-3.5-1.6c-0.8-1-1.2-2.5-1.2-4.3C223,78.9,223.4,77.4,224.2,76.4 M232.1,75.6
		c-1.1-1.2-2.5-1.9-4.4-1.9s-3.3,0.6-4.4,1.8c-1.1,1.2-1.6,2.9-1.6,5.1c0,1.4,0.2,2.6,0.7,3.7s1.2,1.9,2.1,2.5
		c0.9,0.6,1.9,0.9,3.1,0.9c1.9,0,3.3-0.6,4.4-1.9c1.1-1.2,1.6-3,1.6-5.2C233.7,78.6,233.1,76.9,232.1,75.6 M219.7,74h-3.2v-1.3
		c0-1.3,0.2-2.2,0.6-2.8c0.4-0.6,1.1-0.8,2-0.8c0.7,0,1.3,0.1,2,0.3l0.3-1.1c-0.7-0.2-1.5-0.3-2.2-0.3c-1.4,0-2.4,0.4-3,1.2
		s-0.9,2-0.9,3.6v1l-2.5,0.5V75h2.5v12.4h1.2V75.1h3.2L219.7,74L219.7,74z M200.9,85.9c-0.4-0.5-0.5-1.3-0.5-2.3v-8.5h4V74h-4v-3.3
		h-0.6l-0.6,3l-2,0.6V75h2v8.7c0,1.4,0.3,2.4,0.8,3c0.6,0.6,1.4,1,2.6,1c0.8,0,1.5-0.1,2.1-0.3v-1c-0.6,0.1-1.3,0.2-2,0.2
		C201.8,86.7,201.3,86.4,200.9,85.9 M194.4,87.5v-8.8c0-3.3-1.5-4.9-4.6-4.9c-1.1,0-2.1,0.2-2.9,0.5c-0.8,0.4-1.4,1-1.9,1.8h-0.1
		l0.1-1.7v-6.1h-1.2v19.3h1.2v-7.4c0-1.8,0.4-3.1,1.1-4s1.9-1.2,3.5-1.2c1.2,0,2.1,0.3,2.7,0.9c0.6,0.6,0.9,1.6,0.9,3v8.7
		L194.4,87.5L194.4,87.5z M171.8,75.7c0.6-0.6,1.5-0.9,2.5-0.9c1.1,0,2,0.3,2.6,0.9c0.6,0.6,0.9,1.4,0.9,2.6c0,1.1-0.3,1.9-0.9,2.5
		c-0.6,0.6-1.5,0.9-2.6,0.9c-1.1,0-1.9-0.3-2.5-0.9c-0.6-0.6-0.9-1.4-0.9-2.4C170.9,77.1,171.2,76.3,171.8,75.7 M173.6,86.9h2.2
		c1.2,0,2.1,0.2,2.7,0.5c0.6,0.4,0.8,1,0.8,1.8c0,2.3-1.8,3.4-5.3,3.4c-2.8,0-4.1-0.9-4.1-2.8C169.9,87.8,171.1,86.9,173.6,86.9
		 M176.5,74c-0.5-0.2-1.2-0.3-2.1-0.3c-1.5,0-2.6,0.4-3.5,1.2c-0.9,0.8-1.3,1.9-1.3,3.2c0,0.9,0.2,1.7,0.7,2.4
		c0.4,0.7,1,1.2,1.8,1.5c-1.1,0.7-1.7,1.5-1.7,2.4c0,0.4,0.1,0.8,0.4,1.1c0.2,0.3,0.6,0.6,1,0.7c-1,0.2-1.8,0.6-2.3,1.3
		c-0.6,0.6-0.9,1.4-0.9,2.3c0,1.2,0.5,2.1,1.4,2.7c0.9,0.7,2.2,1,3.9,1c2.1,0,3.8-0.4,4.9-1.2c1.2-0.8,1.7-1.9,1.7-3.3
		c0-1.2-0.4-2-1.2-2.6s-1.9-0.9-3.4-0.9h-2.4c-0.8,0-1.3-0.1-1.6-0.3c-0.3-0.2-0.5-0.5-0.5-0.9s0.1-0.8,0.4-1.1
		c0.3-0.3,0.6-0.6,1.1-0.9c0.2,0,0.7,0.1,1.3,0.1c1.5,0,2.6-0.4,3.5-1.2c0.9-0.8,1.3-1.9,1.3-3.2c0-1.1-0.4-2.1-1.1-3.1l2.8-0.2
		v-0.9h-4.2V74z M164.9,71.5c0.3,0,0.5-0.1,0.6-0.3c0.1-0.2,0.2-0.5,0.2-0.9s-0.1-0.7-0.2-0.9c-0.1-0.2-0.3-0.3-0.6-0.3
		c-0.5,0-0.8,0.4-0.8,1.2C164.1,71.1,164.4,71.5,164.9,71.5 M165.5,74h-1.2v13.5h1.2V74z M151.6,85.9c-0.5-0.5-0.8-1.1-0.8-2
		c0-1.1,0.4-1.8,1.2-2.3s2.2-0.8,4-0.9l2.4-0.1v1.3c0,1.5-0.4,2.6-1.2,3.4s-2,1.2-3.4,1.2C152.9,86.6,152.1,86.4,151.6,85.9
		 M159.7,87.5v-9c0-1.6-0.4-2.8-1.1-3.6s-1.8-1.2-3.3-1.2c-1.4,0-2.9,0.3-4.4,1l0.5,1.1c1.3-0.7,2.6-1,3.9-1c1.2,0,2,0.3,2.5,1
		c0.5,0.7,0.8,1.6,0.8,2.9v0.9l-2.7,0.1c-2.1,0-3.7,0.4-4.8,1.2c-1.1,0.7-1.6,1.7-1.6,3.1c0,1.2,0.4,2.1,1.1,2.8
		c0.7,0.7,1.8,1,3.1,1c1,0,1.8-0.2,2.5-0.5c0.7-0.4,1.4-1,2.1-1.8h0.1l0.3,2.1L159.7,87.5L159.7,87.5z M143.5,74.4
		c-0.6,0.4-1.2,1.1-1.8,2.1h-0.1l-0.1-2.4h-1v13.5h1.2v-7.4c0-1.5,0.4-2.7,1.1-3.7s1.7-1.5,2.8-1.5c0.6,0,1.2,0.1,1.7,0.2l0.2-1.2
		c-0.7-0.1-1.3-0.2-1.8-0.2C144.9,73.8,144.1,74,143.5,74.4 M133.5,85.9c-0.4-0.5-0.5-1.3-0.5-2.3v-8.5h4V74h-4v-3.3h-0.6l-0.6,3
		l-2,0.6V75h2v8.7c0,1.4,0.3,2.4,0.8,3c0.6,0.6,1.4,1,2.6,1c0.8,0,1.5-0.1,2.1-0.3v-1c-0.6,0.1-1.3,0.2-2,0.2
		C134.5,86.7,133.9,86.4,133.5,85.9 M127.5,82.4c-0.3-0.4-0.7-0.8-1.2-1.2c-0.6-0.4-1.4-0.7-2.7-1.2c-1.5-0.5-2.4-1-2.9-1.4
		s-0.8-1-0.8-1.7c0-0.6,0.3-1.1,1-1.5c0.6-0.4,1.5-0.5,2.6-0.5c1.1,0,2.4,0.3,3.7,0.8l0.5-1.1c-1.3-0.5-2.7-0.8-4.1-0.8
		c-1.5,0-2.7,0.3-3.6,0.9c-0.9,0.6-1.3,1.4-1.3,2.4c0,0.6,0.1,1.2,0.4,1.6c0.3,0.4,0.7,0.8,1.2,1.2s1.5,0.8,2.8,1.3
		c1.3,0.4,2.2,0.9,2.7,1.4s0.8,1,0.8,1.7c0,0.7-0.3,1.3-1,1.8c-0.7,0.4-1.7,0.7-3,0.7c-1.5,0-2.9-0.3-4.3-1v1.1
		c1.1,0.6,2.5,0.8,4.3,0.8c1.7,0,3-0.3,3.9-1c0.9-0.6,1.4-1.6,1.4-2.8C128,83.4,127.8,82.9,127.5,82.4"/>
</g>
<path class="st1" d="M110.5,87.9c0.7,0,1-0.4,1-1.2c0-0.8-0.3-1.2-1-1.2c-0.7,0-1,0.4-1,1.2C109.5,87.5,109.9,87.9,110.5,87.9"/>
<path class="st1" d="M103.9,87.9c0.7,0,1-0.4,1-1.2c0-0.8-0.3-1.2-1-1.2c-0.7,0-1,0.4-1,1.2C102.9,87.5,103.2,87.9,103.9,87.9"/>
<path class="st1" d="M97.1,87.9c0.7,0,1-0.4,1-1.2c0-0.8-0.3-1.2-1-1.2c-0.7,0-1,0.4-1,1.2C96.1,87.5,96.4,87.9,97.1,87.9"/>
<path class="st2" d="M547,359H51c-12.2,0-22-9.9-22-22V44c0-12.2,9.9-22,22-22H547c12.2,0,22,9.9,22,22V337
	C569,349.1,559.1,359,547,359z"/>
<g>
	<defs>
		<rect id="SVGID_1_" x="435.6" y="328.5" width="92.7" height="9.1"/>
	</defs>
	<clipPath id="SVGID_2_">
		<use xlink:href="#SVGID_1_"  style="overflow:visible;"/>
	</clipPath>
	<path class="st3" d="M524.2,336.2c-0.3-0.4-0.4-1-0.4-1.8c0-0.8,0.1-1.4,0.4-1.9c0.3-0.4,0.7-0.7,1.3-0.7c0.7,0,1.1,0.2,1.4,0.6
		c0.3,0.4,0.4,1,0.4,1.9v0.2c0,0.8-0.1,1.4-0.4,1.7c-0.3,0.4-0.8,0.5-1.4,0.5C524.9,336.8,524.5,336.6,524.2,336.2 M527.6,337.5h0.8
		v-9h-1v2.6l0,0.4l0,0.5h-0.1c-0.5-0.6-1.1-0.9-2-0.9c-0.8,0-1.5,0.3-1.9,0.9c-0.5,0.6-0.7,1.4-0.7,2.4c0,1,0.2,1.9,0.7,2.4
		c0.5,0.6,1.1,0.9,1.9,0.9c0.9,0,1.5-0.3,2-1h0.1L527.6,337.5z M520.8,328.5h-1v9h1V328.5z M513.9,336.5c-0.2-0.2-0.3-0.4-0.3-0.8
		c0-0.4,0.2-0.8,0.5-1c0.3-0.2,0.9-0.3,1.7-0.4l1,0v0.6c0,0.6-0.2,1-0.5,1.4c-0.3,0.3-0.8,0.5-1.4,0.5
		C514.4,336.8,514.1,336.7,513.9,336.5 M517.7,337.5v-4.3c0-0.7-0.2-1.3-0.5-1.6c-0.4-0.3-0.9-0.5-1.7-0.5c-0.4,0-0.7,0-1.1,0.1
		c-0.4,0.1-0.7,0.2-1,0.4l0.3,0.7c0.7-0.3,1.3-0.5,1.8-0.5c0.5,0,0.8,0.1,1,0.4c0.2,0.2,0.3,0.6,0.3,1.1v0.4l-1.1,0
		c-2,0.1-3.1,0.7-3.1,2c0,0.6,0.2,1.1,0.5,1.4c0.4,0.3,0.8,0.5,1.5,0.5c0.5,0,0.9-0.1,1.2-0.2c0.3-0.1,0.6-0.4,0.9-0.8h0l0.2,0.9
		H517.7z M510.8,337.5v-4.1c0-0.8-0.2-1.4-0.6-1.8c-0.4-0.4-1-0.6-1.7-0.6c-0.4,0-0.8,0.1-1.2,0.3c-0.4,0.2-0.6,0.4-0.8,0.7h0
		l-0.2-0.9h-0.8v6.3h1v-3.3c0-0.8,0.2-1.4,0.5-1.8c0.3-0.4,0.8-0.5,1.5-0.5c0.5,0,0.9,0.1,1.1,0.4c0.2,0.3,0.4,0.6,0.4,1.2v4.1
		H510.8z M499.3,332.4c0.3-0.4,0.8-0.6,1.4-0.6c0.6,0,1.1,0.2,1.4,0.6c0.3,0.4,0.5,1,0.5,1.8c0,0.8-0.2,1.4-0.5,1.9
		c-0.3,0.4-0.8,0.6-1.4,0.6c-0.6,0-1.1-0.2-1.4-0.6c-0.3-0.4-0.5-1-0.5-1.9C498.8,333.5,499,332.9,499.3,332.4 M502.8,331.9
		c-0.5-0.6-1.2-0.9-2.1-0.9c-0.9,0-1.6,0.3-2.2,0.9c-0.5,0.6-0.8,1.4-0.8,2.4c0,0.7,0.1,1.3,0.4,1.7c0.2,0.5,0.6,0.9,1,1.1
		c0.4,0.3,0.9,0.4,1.5,0.4c0.9,0,1.6-0.3,2.2-0.9c0.5-0.6,0.8-1.4,0.8-2.4C503.6,333.3,503.4,332.5,502.8,331.9 M491.7,336.2
		c-0.3-0.4-0.4-1-0.4-1.8c0-0.8,0.1-1.4,0.4-1.9c0.3-0.4,0.7-0.7,1.3-0.7c0.7,0,1.1,0.2,1.4,0.6c0.3,0.4,0.4,1,0.4,1.9v0.2
		c0,0.8-0.1,1.4-0.4,1.7c-0.3,0.4-0.8,0.5-1.4,0.5C492.5,336.8,492,336.6,491.7,336.2 M495.1,337.5h0.8v-9h-1v2.6l0,0.4l0,0.5h-0.1
		c-0.5-0.6-1.1-0.9-2-0.9c-0.8,0-1.5,0.3-1.9,0.9c-0.5,0.6-0.7,1.4-0.7,2.4c0,1,0.2,1.9,0.7,2.4c0.5,0.6,1.1,0.9,1.9,0.9
		c0.9,0,1.5-0.3,2-1h0.1L495.1,337.5z M488.9,337.2v-0.9c-0.6,0.2-1.1,0.3-1.6,0.3c-0.6,0-1.1-0.2-1.4-0.6c-0.3-0.4-0.5-1-0.5-1.8
		c0-1.6,0.6-2.5,1.9-2.5c0.2,0,0.4,0,0.7,0.1c0.3,0.1,0.5,0.1,0.7,0.2l0.3-0.8c-0.2-0.1-0.4-0.2-0.7-0.2c-0.3-0.1-0.6-0.1-0.9-0.1
		c-0.9,0-1.7,0.3-2.2,0.9c-0.5,0.6-0.8,1.4-0.8,2.5c0,1,0.3,1.8,0.8,2.4c0.5,0.6,1.2,0.8,2.1,0.8C488,337.6,488.5,337.5,488.9,337.2
		 M478.5,337.5l2.9-7.5h0c-0.1,0.7-0.1,1.4-0.1,2v5.5h1V329h-1.5l-2.7,7h0l-2.7-7H474v8.5h0.9v-5.4c0-0.8,0-1.5-0.1-2.1h0l2.9,7.5
		H478.5z M468.3,337.5v-4.1c0-0.8-0.2-1.4-0.6-1.8s-1-0.6-1.7-0.6c-0.4,0-0.8,0.1-1.2,0.3c-0.4,0.2-0.6,0.4-0.8,0.7h0l-0.2-0.9H463
		v6.3h1v-3.3c0-0.8,0.2-1.4,0.5-1.8c0.3-0.4,0.8-0.5,1.5-0.5c0.5,0,0.9,0.1,1.1,0.4s0.4,0.6,0.4,1.2v4.1H468.3z M457,336.5
		c-0.2-0.2-0.3-0.4-0.3-0.8c0-0.4,0.2-0.8,0.5-1c0.3-0.2,0.9-0.3,1.7-0.4l1,0v0.6c0,0.6-0.2,1-0.5,1.4c-0.3,0.3-0.8,0.5-1.4,0.5
		C457.5,336.8,457.2,336.7,457,336.5 M460.8,337.5v-4.3c0-0.7-0.2-1.3-0.5-1.6c-0.4-0.3-0.9-0.5-1.7-0.5c-0.4,0-0.7,0-1.1,0.1
		c-0.4,0.1-0.7,0.2-1,0.4l0.3,0.7c0.7-0.3,1.3-0.5,1.8-0.5c0.5,0,0.8,0.1,1,0.4c0.2,0.2,0.3,0.6,0.3,1.1v0.4l-1.1,0
		c-2,0.1-3.1,0.7-3.1,2c0,0.6,0.2,1.1,0.5,1.4c0.4,0.3,0.8,0.5,1.5,0.5c0.5,0,0.9-0.1,1.2-0.2c0.3-0.1,0.6-0.4,0.9-0.8h0l0.2,0.9
		H460.8z M454,334.7c-0.3-0.3-0.8-0.6-1.5-0.8c-0.5-0.2-0.9-0.4-1.1-0.5c-0.2-0.1-0.3-0.2-0.4-0.3c-0.1-0.1-0.1-0.3-0.1-0.4
		c0-0.3,0.1-0.4,0.3-0.6c0.2-0.1,0.6-0.2,1-0.2c0.5,0,1.1,0.1,1.7,0.4l0.3-0.8c-0.7-0.3-1.3-0.4-2-0.4c-0.7,0-1.3,0.1-1.7,0.4
		c-0.4,0.3-0.6,0.7-0.6,1.2c0,0.3,0.1,0.5,0.2,0.7c0.1,0.2,0.3,0.4,0.6,0.6c0.2,0.2,0.7,0.4,1.3,0.6c0.6,0.2,1,0.4,1.3,0.6
		c0.2,0.2,0.3,0.4,0.3,0.6c0,0.3-0.1,0.6-0.4,0.7c-0.3,0.2-0.7,0.2-1.2,0.2c-0.3,0-0.7,0-1-0.1c-0.3-0.1-0.7-0.2-1-0.4v0.9
		c0.5,0.3,1.1,0.4,2,0.4c0.8,0,1.4-0.2,1.9-0.5c0.4-0.3,0.7-0.8,0.7-1.4C454.4,335.3,454.3,335,454,334.7 M442.7,331.1v4.1
		c0,0.8,0.2,1.4,0.6,1.8c0.4,0.4,1,0.6,1.7,0.6c0.4,0,0.8-0.1,1.2-0.2c0.3-0.2,0.6-0.4,0.8-0.7h0.1l0.1,0.9h0.8v-6.3h-1v3.3
		c0,0.8-0.2,1.4-0.5,1.8c-0.3,0.4-0.8,0.5-1.5,0.5c-0.5,0-0.9-0.1-1.1-0.4c-0.2-0.3-0.4-0.6-0.4-1.2v-4.1H442.7z M440.5,333.8
		c-0.3-0.4-0.9-0.7-1.8-1c-0.5-0.2-0.9-0.4-1.2-0.5c-0.3-0.2-0.4-0.3-0.5-0.5c-0.1-0.2-0.2-0.4-0.2-0.7c0-0.4,0.1-0.7,0.4-0.9
		c0.3-0.2,0.7-0.3,1.2-0.3c0.7,0,1.3,0.1,2,0.4l0.3-0.9c-0.7-0.3-1.5-0.5-2.3-0.5c-0.8,0-1.5,0.2-1.9,0.6c-0.5,0.4-0.7,0.9-0.7,1.6
		c0,0.6,0.2,1.1,0.5,1.5c0.3,0.4,0.9,0.7,1.7,1c0.6,0.2,1,0.4,1.3,0.5c0.3,0.2,0.5,0.3,0.6,0.5c0.1,0.2,0.2,0.4,0.2,0.7
		c0,0.4-0.2,0.8-0.5,1c-0.3,0.2-0.8,0.4-1.5,0.4c-0.4,0-0.8,0-1.2-0.1c-0.4-0.1-0.8-0.2-1.1-0.3v0.9c0.5,0.3,1.3,0.4,2.3,0.4
		c0.9,0,1.7-0.2,2.2-0.6c0.5-0.4,0.8-1,0.8-1.7C441,334.6,440.8,334.2,440.5,333.8"/>
</g>
</svg>
