<?xml version="1.0" encoding="utf-8"?>
<!-- Generator: Adobe Illustrator 22.1.0, SVG Export Plug-In . SVG Version: 6.00 Build 0)  -->
<svg version="1.1" id="Layer_1" xmlns="http://www.w3.org/2000/svg" xmlns:xlink="http://www.w3.org/1999/xlink" x="0px" y="0px"
	 viewBox="0 0 482.9 183.5" style="enable-background:new 0 0 482.9 183.5;" xml:space="preserve">
<style type="text/css">
	.st0{fill:#1D1D1B;}
	.st1{clip-path:url(#SVGID_2_);fill:#1D1D1B;}
</style>
<title>Asset 13</title>
<g id="Layer_3">
	<g>
		<g>
			<path class="st0" d="M29.4,12.9h-6.5c0.1-1.4,0.6-2.8,1.5-3.9c1.4-1.5,3.1-2.6,5-3.4l-3-5.6c-3.9,1.7-6.6,3.7-8.2,5.9
				s-2.4,5.3-2.4,9.1v10.5h13.6V12.9z M13.6,12.9H7.1c0.1-1.4,0.6-2.8,1.5-3.9c1.4-1.5,3.1-2.6,5-3.4l-3-5.6C6.8,1.7,4,3.7,2.4,5.9
				S0,11.2,0,15v10.5h13.6V12.9z"/>
			<path class="st0" d="M429,148.4h6.5c-0.1,1.4-0.6,2.8-1.5,3.9c-1.4,1.5-3.1,2.6-5,3.4l2.9,5.6c3.9-1.7,6.7-3.7,8.2-5.9
				c1.6-2.2,2.4-5.3,2.4-9.1v-10.5H429V148.4z M444.8,148.4h6.5c-0.1,1.4-0.6,2.8-1.5,3.9c-1.4,1.5-3.1,2.6-5,3.4l2.9,5.6
				c3.9-1.7,6.6-3.7,8.2-5.9c1.6-2.2,2.4-5.3,2.4-9.1v-10.5h-13.5V148.4z"/>
		</g>
	</g>
</g>
<g>
	<defs>
		<rect id="SVGID_1_" x="46.5" y="10.6" width="369.9" height="137.9"/>
	</defs>
	<clipPath id="SVGID_2_">
		<use xlink:href="#SVGID_1_"  style="overflow:visible;"/>
	</clipPath>
	<path class="st1" d="M413.8,142.3c0.3,0.3,0.6,0.4,1,0.4c0.5,0,0.8-0.1,1.1-0.4c0.3-0.3,0.4-0.7,0.4-1.2c0-0.6-0.1-1-0.4-1.3
		c-0.3-0.3-0.6-0.4-1.1-0.4c-0.5,0-0.8,0.1-1.1,0.4c-0.3,0.3-0.4,0.7-0.4,1.3C413.3,141.6,413.5,142,413.8,142.3 M406.6,131.2
		c0.6,0.7,0.9,1.7,0.9,3h-7.1c0.1-1.3,0.5-2.2,1.1-2.9c0.6-0.7,1.5-1.1,2.6-1.1C405.1,130.2,406,130.5,406.6,131.2 M407,142.4
		c0.6-0.1,1.3-0.4,2.1-0.7v-1.8c-1.4,0.6-2.9,0.9-4.3,0.9c-1.4,0-2.5-0.4-3.2-1.2c-0.8-0.8-1.2-2-1.2-3.6h9.4v-1.3
		c0-1.8-0.5-3.3-1.5-4.4c-1-1.1-2.3-1.7-4-1.7c-1.8,0-3.3,0.6-4.3,1.9c-1.1,1.3-1.6,3-1.6,5.2c0,2.2,0.6,3.9,1.7,5.1
		c1.2,1.2,2.7,1.8,4.8,1.8C405.5,142.6,406.3,142.5,407,142.4 M395.2,141.9V140c-1.2,0.5-2.4,0.7-3.5,0.7c-1.3,0-2.3-0.4-3-1.3
		c-0.7-0.9-1-2.2-1-3.8c0-3.5,1.4-5.3,4.1-5.3c0.4,0,0.9,0.1,1.4,0.2c0.5,0.1,1,0.3,1.5,0.5l0.6-1.7c-0.4-0.2-0.9-0.4-1.5-0.5
		c-0.7-0.1-1.3-0.2-2-0.2c-2,0-3.6,0.6-4.7,1.9c-1.1,1.2-1.6,3-1.6,5.3c0,2.2,0.5,3.9,1.6,5.1c1.1,1.2,2.6,1.8,4.6,1.8
		C393.1,142.6,394.2,142.3,395.2,141.9 M373.5,140.3c-0.5-0.4-0.7-1-0.7-1.7c0-1,0.4-1.7,1.1-2.1c0.7-0.4,1.9-0.7,3.5-0.8l2.1-0.1
		v1.2c0,1.3-0.4,2.2-1.1,3c-0.7,0.7-1.7,1.1-3,1.1C374.6,140.9,373.9,140.7,373.5,140.3 M381.5,142.3V133c0-1.6-0.4-2.7-1.2-3.5
		c-0.8-0.7-2-1.1-3.6-1.1c-0.8,0-1.6,0.1-2.4,0.3c-0.8,0.2-1.5,0.5-2.2,0.9l0.6,1.6c1.4-0.7,2.7-1,3.8-1c1,0,1.7,0.3,2.2,0.8
		c0.5,0.5,0.7,1.3,0.7,2.4v0.8l-2.3,0.1c-4.4,0.1-6.6,1.6-6.6,4.3c0,1.3,0.4,2.3,1.1,3c0.8,0.7,1.8,1,3.2,1c1,0,1.8-0.2,2.5-0.5
		c0.7-0.3,1.4-0.9,2-1.7h0.1l0.4,1.9H381.5z M366.8,123h-2.1v19.3h2.1V123z M357.5,131.6c0.7,0.9,1,2.2,1,3.9c0,1.7-0.3,3-1,3.9
		c-0.7,1-1.6,1.4-2.8,1.4c-1.4,0-2.4-0.4-3.1-1.2c-0.6-0.8-1-2.2-1-4.1V135c0-1.7,0.3-2.9,1-3.7s1.6-1.2,3-1.2
		C355.9,130.2,356.8,130.7,357.5,131.6 M359.1,140.7c1-1.2,1.5-3,1.5-5.2c0-2.2-0.5-4-1.5-5.2c-1-1.2-2.4-1.8-4.2-1.8
		c-0.9,0-1.7,0.2-2.4,0.5c-0.7,0.3-1.3,0.9-1.8,1.6h-0.1l-0.3-1.9h-1.7v19.7h2.1v-5.6c0-0.7-0.1-1.5-0.1-2.3h0.1
		c0.5,0.7,1.1,1.2,1.8,1.5c0.7,0.3,1.5,0.5,2.4,0.5C356.8,142.6,358.1,141.9,359.1,140.7 M334.5,131.2c0.6,0.7,0.9,1.7,0.9,3h-7.1
		c0.1-1.3,0.5-2.2,1.1-2.9c0.6-0.7,1.5-1.1,2.6-1.1C333.1,130.2,333.9,130.5,334.5,131.2 M334.9,142.4c0.6-0.1,1.3-0.4,2.1-0.7v-1.8
		c-1.4,0.6-2.9,0.9-4.3,0.9c-1.4,0-2.5-0.4-3.2-1.2c-0.8-0.8-1.2-2-1.2-3.6h9.4v-1.3c0-1.8-0.5-3.3-1.5-4.4c-1-1.1-2.3-1.7-4-1.7
		c-1.8,0-3.3,0.6-4.3,1.9c-1.1,1.3-1.6,3-1.6,5.2c0,2.2,0.6,3.9,1.7,5.1c1.2,1.2,2.7,1.8,4.8,1.8
		C333.5,142.6,334.2,142.5,334.9,142.4 M322.1,142.3v-8.9c0-1.7-0.4-3-1.2-3.8c-0.8-0.8-2.1-1.2-3.7-1.2c-0.9,0-1.8,0.2-2.5,0.6
		c-0.8,0.4-1.4,0.9-1.8,1.6h-0.1l-0.3-1.9h-1.7v13.6h2.1v-7.1c0-1.8,0.3-3,1-3.8c0.7-0.8,1.7-1.2,3.1-1.2c1.1,0,1.9,0.3,2.4,0.8
		c0.5,0.5,0.8,1.4,0.8,2.5v8.8H322.1z M297.3,131.6c0.7-0.9,1.7-1.3,3-1.3c1.4,0,2.4,0.4,3.1,1.3c0.7,0.9,1,2.2,1,3.9
		c0,1.7-0.4,3.1-1,4c-0.7,0.9-1.7,1.4-3.1,1.4c-1.3,0-2.4-0.5-3.1-1.4c-0.7-0.9-1-2.2-1-4C296.2,133.8,296.6,132.4,297.3,131.6
		 M304.9,130.4c-1.1-1.3-2.6-1.9-4.5-1.9c-2,0-3.5,0.6-4.6,1.9c-1.1,1.2-1.7,3-1.7,5.2c0,1.4,0.3,2.7,0.8,3.7
		c0.5,1.1,1.2,1.9,2.2,2.5c0.9,0.6,2,0.9,3.2,0.9c2,0,3.5-0.6,4.6-1.9c1.1-1.2,1.7-3,1.7-5.2C306.6,133.3,306,131.6,304.9,130.4
		 M283,142.3v-8.9c0-1.7-0.4-3-1.2-3.8c-0.8-0.8-2.1-1.2-3.7-1.2c-0.9,0-1.8,0.2-2.5,0.6c-0.8,0.4-1.4,0.9-1.8,1.6h-0.1l-0.3-1.9
		h-1.7v13.6h2.1v-7.1c0-1.8,0.3-3,1-3.8c0.7-0.8,1.7-1.2,3.1-1.2c1.1,0,1.9,0.3,2.4,0.8c0.5,0.5,0.8,1.4,0.8,2.5v8.8H283z
		 M264.9,126.1c0.2,0.2,0.5,0.3,0.9,0.3c0.3,0,0.6-0.1,0.9-0.3c0.2-0.2,0.4-0.6,0.4-1c0-0.5-0.1-0.8-0.4-1c-0.2-0.2-0.5-0.3-0.9-0.3
		c-0.3,0-0.6,0.1-0.9,0.3c-0.2,0.2-0.3,0.6-0.3,1C264.6,125.5,264.7,125.8,264.9,126.1 M266.8,128.7h-2.1v13.6h2.1V128.7z
		 M252.8,123h-2.1v19.3h2.1V123z M245.8,123h-2.1v19.3h2.1V123z M231,140.3c-0.5-0.4-0.7-1-0.7-1.7c0-1,0.4-1.7,1.1-2.1
		c0.7-0.4,1.9-0.7,3.5-0.8l2.1-0.1v1.2c0,1.3-0.4,2.2-1.1,3c-0.7,0.7-1.7,1.1-3,1.1C232,140.9,231.4,140.7,231,140.3 M239,142.3V133
		c0-1.6-0.4-2.7-1.2-3.5c-0.8-0.7-2-1.1-3.6-1.1c-0.8,0-1.6,0.1-2.4,0.3c-0.8,0.2-1.5,0.5-2.2,0.9l0.6,1.6c1.4-0.7,2.7-1,3.8-1
		c1,0,1.7,0.3,2.2,0.8c0.5,0.5,0.7,1.3,0.7,2.4v0.8l-2.3,0.1c-4.4,0.1-6.6,1.6-6.6,4.3c0,1.3,0.4,2.3,1.1,3c0.8,0.7,1.8,1,3.2,1
		c1,0,1.8-0.2,2.5-0.5c0.7-0.3,1.4-0.9,2-1.7h0.1l0.4,1.9H239z M218.3,134.6h-6.1v1.9h6.1V134.6z M194,130.8
		c0.5-0.5,1.3-0.8,2.2-0.8c2,0,3.1,1,3.1,3.1c0,2-1,2.9-3,2.9c-1,0-1.7-0.2-2.2-0.7c-0.5-0.5-0.8-1.2-0.8-2.2
		C193.2,132.1,193.5,131.3,194,130.8 M192.9,142.7c0.5-0.4,1.2-0.7,2.2-0.7h2.5c1.3,0,2.1,0.1,2.6,0.4c0.5,0.3,0.7,0.8,0.7,1.5
		c0,0.9-0.4,1.6-1.2,2.1c-0.8,0.5-2.1,0.8-3.8,0.8c-1.2,0-2-0.2-2.7-0.6c-0.6-0.4-0.9-0.9-0.9-1.7
		C192.1,143.8,192.4,143.1,192.9,142.7 M198.3,128.7c-0.6-0.2-1.2-0.2-1.9-0.2c-1.6,0-2.9,0.4-3.8,1.2c-0.9,0.8-1.3,2-1.3,3.4
		c0,0.9,0.2,1.7,0.7,2.4c0.4,0.7,1,1.2,1.7,1.5c-0.6,0.3-1,0.7-1.3,1.1c-0.3,0.4-0.4,0.8-0.4,1.3c0,0.4,0.1,0.8,0.4,1.2
		c0.2,0.3,0.5,0.6,0.9,0.7c-1,0.2-1.7,0.6-2.2,1.2c-0.5,0.6-0.8,1.3-0.8,2.1c0,1.2,0.5,2.1,1.4,2.8c1,0.7,2.3,1,4.1,1
		c2.3,0,4.1-0.4,5.3-1.2c1.2-0.8,1.8-1.9,1.8-3.4c0-1.2-0.4-2.1-1.2-2.7c-0.8-0.6-1.9-0.9-3.4-0.9h-2.4c-0.7,0-1.3-0.1-1.6-0.3
		c-0.3-0.2-0.5-0.5-0.5-0.8c0-0.7,0.4-1.3,1.3-1.7c0.4,0.1,0.7,0.1,1.1,0.1c1.6,0,2.8-0.4,3.7-1.2c0.9-0.8,1.4-1.9,1.4-3.2
		c0-0.6-0.1-1.1-0.3-1.6c-0.2-0.5-0.4-0.8-0.6-1.1l2.5-0.3v-1.3H198.3z M178.4,131.6c0.7-0.9,1.7-1.3,3.1-1.3c1.4,0,2.4,0.4,3.1,1.3
		c0.7,0.9,1,2.2,1,3.9c0,1.7-0.3,3.1-1,4c-0.7,0.9-1.7,1.4-3.1,1.4s-2.4-0.5-3.1-1.4c-0.7-0.9-1-2.2-1-4
		C177.4,133.8,177.7,132.4,178.4,131.6 M186.1,130.4c-1.1-1.3-2.6-1.9-4.5-1.9c-2,0-3.5,0.6-4.6,1.9c-1.1,1.2-1.7,3-1.7,5.2
		c0,1.4,0.3,2.7,0.8,3.7c0.5,1.1,1.2,1.9,2.2,2.5c0.9,0.6,2,0.9,3.2,0.9c2,0,3.5-0.6,4.6-1.9c1.1-1.2,1.7-3,1.7-5.2
		C187.7,133.3,187.2,131.6,186.1,130.4 M162.3,139.5c-0.6-0.9-1-2.2-1-3.9c0-1.7,0.3-3,1-4c0.6-0.9,1.6-1.4,2.8-1.4
		c1.4,0,2.4,0.4,3.1,1.2c0.6,0.8,1,2.2,1,4.1v0.4c0,1.7-0.3,2.9-0.9,3.7c-0.6,0.8-1.7,1.1-3.1,1.1
		C163.8,140.8,162.9,140.4,162.3,139.5 M169.5,142.3h1.7V123h-2.1v5.5l0.1,1l0.1,1H169c-1-1.3-2.4-2-4.2-2c-1.8,0-3.1,0.6-4.1,1.9
		c-1,1.2-1.5,3-1.5,5.2c0,2.2,0.5,4,1.5,5.2c1,1.2,2.4,1.8,4.1,1.8c1.9,0,3.3-0.7,4.3-2.1h0.1L169.5,142.3z M149.8,128.7h-3.5v-0.9
		c0-1.1,0.2-2,0.6-2.5c0.4-0.5,0.9-0.8,1.7-0.8c0.6,0,1.2,0.1,2,0.4l0.5-1.6c-1-0.3-1.8-0.4-2.5-0.4c-2.9,0-4.4,1.7-4.4,5v0.8
		l-2.4,0.7v0.9h2.4v12h2.1v-12h3.5V128.7z M130.3,131.6c0.7-0.9,1.7-1.3,3.1-1.3c1.4,0,2.4,0.4,3.1,1.3c0.7,0.9,1,2.2,1,3.9
		c0,1.7-0.3,3.1-1,4c-0.7,0.9-1.7,1.4-3.1,1.4s-2.4-0.5-3.1-1.4c-0.7-0.9-1-2.2-1-4C129.3,133.8,129.6,132.4,130.3,131.6
		 M137.9,130.4c-1.1-1.3-2.6-1.9-4.5-1.9c-2,0-3.5,0.6-4.6,1.9c-1.1,1.2-1.7,3-1.7,5.2c0,1.4,0.3,2.7,0.8,3.7
		c0.5,1.1,1.2,1.9,2.2,2.5c0.9,0.6,2,0.9,3.2,0.9c2,0,3.5-0.6,4.6-1.9c1.1-1.2,1.7-3,1.7-5.2C139.6,133.3,139,131.6,137.9,130.4
		 M107,139.5c-0.6-0.9-1-2.2-1-3.9c0-1.7,0.3-3,1-4c0.6-0.9,1.6-1.4,2.8-1.4c1.4,0,2.4,0.4,3.1,1.2c0.6,0.8,1,2.2,1,4.1v0.4
		c0,1.7-0.3,2.9-0.9,3.7c-0.6,0.8-1.7,1.1-3.1,1.1C108.6,140.8,107.7,140.4,107,139.5 M114.2,142.3h1.7V123h-2.1v5.5l0,1l0.1,1h-0.2
		c-1-1.3-2.4-2-4.2-2c-1.8,0-3.1,0.6-4.1,1.9c-1,1.2-1.5,3-1.5,5.2c0,2.2,0.5,4,1.5,5.2c1,1.2,2.4,1.8,4.1,1.8
		c1.9,0,3.3-0.7,4.3-2.1h0.1L114.2,142.3z M97.6,131.2c0.6,0.7,0.9,1.7,0.9,3h-7.1c0.1-1.3,0.5-2.2,1.1-2.9c0.6-0.7,1.5-1.1,2.6-1.1
		C96.2,130.2,97,130.5,97.6,131.2 M98,142.4c0.6-0.1,1.3-0.4,2.1-0.7v-1.8c-1.4,0.6-2.9,0.9-4.3,0.9c-1.4,0-2.5-0.4-3.2-1.2
		c-0.8-0.8-1.2-2-1.2-3.6h9.4v-1.3c0-1.8-0.5-3.3-1.5-4.4c-1-1.1-2.3-1.7-4-1.7c-1.8,0-3.3,0.6-4.3,1.9c-1.1,1.3-1.6,3-1.6,5.2
		c0,2.2,0.6,3.9,1.7,5.1c1.2,1.2,2.7,1.8,4.8,1.8C96.6,142.6,97.4,142.5,98,142.4 M82.9,131.2c0.6,0.7,0.9,1.7,0.9,3h-7.1
		c0.1-1.3,0.5-2.2,1.1-2.9c0.6-0.7,1.5-1.1,2.6-1.1C81.5,130.2,82.3,130.5,82.9,131.2 M83.3,142.4c0.6-0.1,1.3-0.4,2.1-0.7v-1.8
		c-1.4,0.6-2.9,0.9-4.3,0.9c-1.4,0-2.5-0.4-3.2-1.2c-0.8-0.8-1.2-2-1.2-3.6h9.4v-1.3c0-1.8-0.5-3.3-1.5-4.4c-1-1.1-2.3-1.7-4-1.7
		c-1.8,0-3.3,0.6-4.3,1.9c-1.1,1.3-1.6,3-1.6,5.2c0,2.2,0.6,3.9,1.7,5.1c1.2,1.2,2.7,1.8,4.8,1.8C81.9,142.6,82.6,142.5,83.3,142.4
		 M68.2,129.2c-0.7,0.5-1.3,1.2-1.8,2h-0.1l-0.2-2.5h-1.7v13.6h2.1V135c0-1.3,0.4-2.4,1.2-3.3c0.8-0.9,1.7-1.3,2.8-1.3
		c0.4,0,0.9,0.1,1.5,0.2l0.3-1.9c-0.5-0.1-1-0.1-1.6-0.1C69.7,128.5,68.9,128.7,68.2,129.2 M57.2,131.5c0.6,0.9,0.9,2.2,0.9,4
		c0,1.7-0.3,3.1-0.9,4c-0.6,0.9-1.6,1.4-2.8,1.4c-1.4,0-2.4-0.4-3.1-1.2c-0.6-0.8-1-2.2-1-4.1c0-1.9,0.3-3.3,0.9-4.1
		c0.6-0.8,1.6-1.2,3-1.2C55.6,130.2,56.5,130.7,57.2,131.5 M50.3,130.5L50.3,130.5c0-0.8,0-1.8,0-2.8V123h-2.1v19.3h1.5l0.4-1.7h0.1
		c0.5,0.7,1.1,1.2,1.8,1.5c0.7,0.3,1.5,0.5,2.4,0.5c1.8,0,3.2-0.6,4.1-1.9c1-1.2,1.5-3,1.5-5.2c0-2.2-0.5-4-1.5-5.2
		c-1-1.2-2.4-1.8-4.2-1.8C52.7,128.5,51.3,129.2,50.3,130.5"/>
	<path class="st1" d="M359.4,104.9l-0.8,1.9c-0.6,1.6-1.6,2.4-3,2.4c-0.6,0-1.1-0.1-1.5-0.1v1.6c0.6,0.1,1.2,0.2,1.9,0.2
		c1.1,0,2.1-0.3,2.8-1c0.8-0.6,1.4-1.7,2-3.3l5.8-15.5h-2.2c-1.9,5.3-3,8.4-3.4,9.4c-0.3,1-0.6,1.7-0.7,2.2h-0.1
		c-0.2-0.8-0.6-2.1-1.2-3.8l-3-7.7h-2.2L359.4,104.9z M351.3,104.8V96c0-1.7-0.4-3-1.1-3.8c-0.8-0.8-1.9-1.2-3.5-1.2
		c-1,0-1.9,0.2-2.6,0.6c-0.8,0.4-1.4,1-1.8,1.7h-0.1c-0.7-1.5-2-2.3-4.2-2.3c-0.9,0-1.7,0.2-2.4,0.6c-0.7,0.4-1.3,0.9-1.6,1.5h-0.1
		l-0.3-1.9h-1.7v13.6h2.1v-7.1c0-1.8,0.3-3,0.9-3.8c0.6-0.8,1.5-1.2,2.8-1.2c1,0,1.7,0.3,2.2,0.8c0.5,0.5,0.7,1.4,0.7,2.4v8.8h2.1
		v-7.6c0-1.5,0.3-2.7,0.9-3.4c0.6-0.7,1.6-1.1,2.8-1.1c1,0,1.7,0.3,2.2,0.8c0.5,0.5,0.7,1.4,0.7,2.4v8.8H351.3z M311.4,94.1
		c0.7-0.9,1.7-1.3,3.1-1.3c1.4,0,2.4,0.4,3.1,1.3c0.7,0.9,1,2.2,1,3.9c0,1.7-0.3,3.1-1,4c-0.7,0.9-1.7,1.4-3.1,1.4
		c-1.3,0-2.4-0.5-3.1-1.4c-0.7-0.9-1-2.2-1-4C310.4,96.3,310.7,94.9,311.4,94.1 M319,92.9c-1.1-1.3-2.6-1.9-4.5-1.9
		c-2,0-3.5,0.6-4.6,1.9c-1.1,1.2-1.7,3-1.7,5.2c0,1.4,0.3,2.7,0.8,3.7c0.5,1.1,1.2,1.9,2.2,2.5c0.9,0.6,2,0.9,3.2,0.9
		c2,0,3.5-0.6,4.6-1.9c1.1-1.2,1.7-3,1.7-5.2C320.7,95.9,320.2,94.1,319,92.9 M302.3,102.7c-0.4-0.4-0.6-1.1-0.6-1.9v-8h3.9v-1.6
		h-3.9v-3.1h-1.2l-0.9,2.9l-1.9,0.9v1h1.9v8.1c0,2.8,1.3,4.2,3.9,4.2c0.3,0,0.7,0,1.2-0.1s0.8-0.2,1-0.3v-1.6
		c-0.2,0.1-0.5,0.1-0.8,0.2c-0.3,0.1-0.7,0.1-1.1,0.1C303.2,103.4,302.7,103.2,302.3,102.7 M288.7,104.4v-1.8
		c-1.2,0.5-2.4,0.7-3.5,0.7c-1.3,0-2.3-0.4-3-1.3c-0.7-0.9-1-2.2-1-3.8c0-3.5,1.4-5.3,4.1-5.3c0.4,0,0.9,0.1,1.4,0.2
		c0.5,0.1,1,0.3,1.5,0.5l0.6-1.7c-0.4-0.2-0.9-0.4-1.5-0.5c-0.7-0.1-1.3-0.2-2-0.2c-2,0-3.6,0.6-4.7,1.9c-1.1,1.2-1.6,3-1.6,5.3
		c0,2.2,0.5,3.9,1.6,5.1c1.1,1.2,2.6,1.8,4.6,1.8C286.6,105.1,287.8,104.8,288.7,104.4 M273.1,88.6c0.2,0.2,0.5,0.3,0.9,0.3
		c0.3,0,0.6-0.1,0.9-0.3c0.2-0.2,0.4-0.6,0.4-1c0-0.5-0.1-0.8-0.4-1c-0.2-0.2-0.5-0.3-0.9-0.3c-0.3,0-0.6,0.1-0.9,0.3
		c-0.2,0.2-0.3,0.6-0.3,1C272.7,88,272.8,88.4,273.1,88.6 M274.9,91.2h-2.1v13.6h2.1V91.2z M270.4,91.2h-3.5v-0.9
		c0-1.1,0.2-2,0.6-2.5c0.4-0.5,0.9-0.8,1.7-0.8c0.6,0,1.2,0.1,2,0.4l0.5-1.6c-1-0.3-1.8-0.4-2.5-0.4c-2.9,0-4.4,1.7-4.4,5v0.8
		l-2.4,0.7v0.9h2.4v12h2.1v-12h3.5V91.2z M257.5,88.6c0.2,0.2,0.5,0.3,0.9,0.3c0.3,0,0.6-0.1,0.9-0.3c0.2-0.2,0.4-0.6,0.4-1
		c0-0.5-0.1-0.8-0.4-1c-0.2-0.2-0.5-0.3-0.9-0.3c-0.3,0-0.6,0.1-0.9,0.3c-0.2,0.2-0.3,0.6-0.3,1C257.2,88,257.3,88.4,257.5,88.6
		 M259.4,91.2h-2.1v13.6h2.1V91.2z M253.6,104.4v-1.8c-1.2,0.5-2.4,0.7-3.5,0.7c-1.3,0-2.3-0.4-3-1.3c-0.7-0.9-1-2.2-1-3.8
		c0-3.5,1.4-5.3,4.1-5.3c0.4,0,0.9,0.1,1.4,0.2c0.5,0.1,1,0.3,1.5,0.5l0.6-1.7c-0.4-0.2-0.9-0.4-1.5-0.5c-0.7-0.1-1.3-0.2-2-0.2
		c-2,0-3.6,0.6-4.7,1.9c-1.1,1.2-1.6,3-1.6,5.3c0,2.2,0.5,3.9,1.6,5.1c1.1,1.2,2.6,1.8,4.6,1.8C251.6,105.1,252.7,104.8,253.6,104.4
		 M237.7,93.7c0.6,0.7,0.9,1.7,0.9,3h-7.1c0.1-1.3,0.5-2.2,1.1-3c0.6-0.7,1.5-1.1,2.6-1.1C236.3,92.7,237.1,93.1,237.7,93.7
		 M238.1,104.9c0.6-0.1,1.3-0.4,2.1-0.7v-1.8c-1.4,0.6-2.9,0.9-4.3,0.9c-1.4,0-2.5-0.4-3.2-1.2c-0.8-0.8-1.2-2-1.2-3.6h9.4v-1.3
		c0-1.8-0.5-3.3-1.5-4.4c-1-1.1-2.3-1.7-4-1.7c-1.8,0-3.3,0.6-4.3,1.9c-1.1,1.3-1.6,3-1.6,5.2c0,2.2,0.6,3.9,1.7,5.1
		c1.2,1.2,2.7,1.8,4.8,1.8C236.7,105.1,237.4,105,238.1,104.9 M222.8,94.1c0.7,0.9,1,2.2,1,3.9c0,1.7-0.3,3-1,3.9
		c-0.7,0.9-1.6,1.4-2.8,1.4c-1.4,0-2.4-0.4-3.1-1.2c-0.6-0.8-1-2.2-1-4.1v-0.5c0-1.7,0.3-2.9,1-3.7c0.6-0.8,1.6-1.2,3-1.2
		C221.2,92.7,222.1,93.2,222.8,94.1 M224.4,103.2c1-1.2,1.5-3,1.5-5.2c0-2.2-0.5-4-1.5-5.2c-1-1.2-2.4-1.8-4.2-1.8
		c-0.9,0-1.7,0.2-2.4,0.5c-0.7,0.3-1.3,0.9-1.8,1.6h-0.1l-0.3-1.9h-1.7v19.7h2.1v-5.6c0-0.7-0.1-1.5-0.1-2.3h0.1
		c0.5,0.7,1.1,1.2,1.8,1.5c0.7,0.3,1.5,0.5,2.4,0.5C222,105.1,223.4,104.5,224.4,103.2 M209.2,98.9c-0.6-0.6-1.7-1.2-3.3-1.8
		c-1.2-0.4-2-0.8-2.4-1c-0.4-0.2-0.7-0.5-0.9-0.7c-0.2-0.3-0.3-0.6-0.3-0.9c0-0.5,0.2-1,0.7-1.3c0.5-0.3,1.2-0.5,2.2-0.5
		c1.1,0,2.3,0.3,3.7,0.8l0.7-1.7c-1.4-0.6-2.8-0.9-4.3-0.9c-1.6,0-2.8,0.3-3.7,1c-0.9,0.6-1.4,1.5-1.4,2.6c0,0.6,0.1,1.2,0.4,1.6
		c0.3,0.4,0.7,0.8,1.2,1.2c0.5,0.4,1.4,0.8,2.7,1.2c1.3,0.5,2.2,1,2.7,1.3c0.5,0.4,0.7,0.8,0.7,1.4c0,0.7-0.3,1.2-0.9,1.6
		c-0.6,0.3-1.4,0.5-2.5,0.5c-0.7,0-1.4-0.1-2.2-0.3s-1.4-0.5-2.1-0.8v1.9c1,0.6,2.4,0.9,4.2,0.9c1.7,0,3-0.3,4-1
		c0.9-0.7,1.4-1.7,1.4-2.9C210.1,100.2,209.8,99.5,209.2,98.9 M189.5,104.8V96c0-1.7-0.4-3-1.2-3.8c-0.8-0.8-2.1-1.2-3.7-1.2
		c-0.9,0-1.8,0.2-2.5,0.6c-0.8,0.4-1.4,0.9-1.8,1.6h-0.1l-0.3-1.9h-1.7v13.6h2.1v-7.1c0-1.8,0.3-3,1-3.8c0.7-0.8,1.7-1.2,3.1-1.2
		c1.1,0,1.9,0.3,2.4,0.8c0.5,0.5,0.8,1.4,0.8,2.5v8.8H189.5z M164.7,94.1c0.7-0.9,1.7-1.3,3.1-1.3c1.4,0,2.4,0.4,3.1,1.3
		c0.7,0.9,1,2.2,1,3.9c0,1.7-0.3,3.1-1,4c-0.7,0.9-1.7,1.4-3.1,1.4s-2.4-0.5-3.1-1.4c-0.7-0.9-1-2.2-1-4
		C163.6,96.3,164,94.9,164.7,94.1 M172.3,92.9c-1.1-1.3-2.6-1.9-4.5-1.9c-2,0-3.5,0.6-4.6,1.9c-1.1,1.2-1.7,3-1.7,5.2
		c0,1.4,0.3,2.7,0.8,3.7c0.5,1.1,1.2,1.9,2.2,2.5c0.9,0.6,2,0.9,3.2,0.9c2,0,3.5-0.6,4.6-1.9c1.1-1.2,1.7-3,1.7-5.2
		C174,95.9,173.4,94.1,172.3,92.9 M155.5,88.6c0.2,0.2,0.5,0.3,0.9,0.3c0.3,0,0.6-0.1,0.9-0.3c0.2-0.2,0.4-0.6,0.4-1
		c0-0.5-0.1-0.8-0.4-1c-0.2-0.2-0.5-0.3-0.9-0.3c-0.3,0-0.6,0.1-0.9,0.3c-0.2,0.2-0.3,0.6-0.3,1C155.2,88,155.3,88.4,155.5,88.6
		 M157.4,91.2h-2.1v13.6h2.1V91.2z M148.7,102.7c-0.4-0.4-0.6-1.1-0.6-1.9v-8h3.9v-1.6h-3.9v-3.1h-1.2L146,91l-1.9,0.9v1h1.9v8.1
		c0,2.8,1.3,4.2,3.9,4.2c0.3,0,0.7,0,1.2-0.1c0.4-0.1,0.8-0.2,1-0.3v-1.6c-0.2,0.1-0.5,0.1-0.8,0.2c-0.3,0.1-0.7,0.1-1.1,0.1
		C149.6,103.4,149,103.2,148.7,102.7 M133.1,102.8c-0.5-0.4-0.7-1-0.7-1.7c0-1,0.4-1.7,1.1-2.1c0.7-0.5,1.9-0.7,3.5-0.8l2.1-0.1v1.2
		c0,1.3-0.4,2.2-1.1,2.9c-0.7,0.7-1.7,1.1-3,1.1C134.1,103.4,133.5,103.2,133.1,102.8 M141.1,104.8v-9.3c0-1.6-0.4-2.7-1.2-3.5
		c-0.8-0.7-2-1.1-3.6-1.1c-0.8,0-1.6,0.1-2.4,0.3c-0.8,0.2-1.5,0.5-2.2,0.9l0.6,1.6c1.4-0.7,2.7-1,3.8-1c1,0,1.7,0.3,2.2,0.8
		c0.5,0.5,0.7,1.3,0.7,2.4v0.8l-2.3,0.1c-4.4,0.1-6.6,1.6-6.6,4.3c0,1.3,0.4,2.3,1.1,3c0.8,0.7,1.8,1,3.2,1c1,0,1.8-0.2,2.5-0.5
		c0.7-0.3,1.3-0.9,2-1.7h0.1l0.4,1.9H141.1z M126.5,104.8V96c0-1.7-0.4-3-1.1-3.8c-0.8-0.8-1.9-1.2-3.5-1.2c-1,0-1.9,0.2-2.6,0.6
		c-0.8,0.4-1.4,1-1.8,1.7h-0.1c-0.7-1.5-2-2.3-4.2-2.3c-0.9,0-1.7,0.2-2.4,0.6c-0.7,0.4-1.3,0.9-1.6,1.5h-0.1l-0.3-1.9h-1.7v13.6
		h2.1v-7.1c0-1.8,0.3-3,0.9-3.8c0.6-0.8,1.5-1.2,2.8-1.2c1,0,1.7,0.3,2.2,0.8c0.5,0.5,0.7,1.4,0.7,2.4v8.8h2.1v-7.6
		c0-1.5,0.3-2.7,0.9-3.4c0.6-0.7,1.6-1.1,2.8-1.1c1,0,1.7,0.3,2.2,0.8c0.5,0.5,0.7,1.4,0.7,2.4v8.8H126.5z M100.1,91.7
		c-0.7,0.5-1.3,1.2-1.8,2h-0.1l-0.2-2.5h-1.7v13.6h2.1v-7.3c0-1.3,0.4-2.4,1.2-3.3c0.8-0.9,1.7-1.3,2.8-1.3c0.4,0,0.9,0.1,1.5,0.2
		l0.3-1.9c-0.5-0.1-1-0.1-1.6-0.1C101.6,91,100.8,91.2,100.1,91.7 M82.8,94.1c0.7-0.9,1.7-1.3,3.1-1.3c1.4,0,2.4,0.4,3.1,1.3
		c0.7,0.9,1,2.2,1,3.9c0,1.7-0.3,3.1-1,4c-0.7,0.9-1.7,1.4-3.1,1.4c-1.3,0-2.4-0.5-3.1-1.4c-0.7-0.9-1-2.2-1-4
		C81.8,96.3,82.1,94.9,82.8,94.1 M90.4,92.9c-1.1-1.3-2.6-1.9-4.5-1.9c-2,0-3.5,0.6-4.6,1.9c-1.1,1.2-1.7,3-1.7,5.2
		c0,1.4,0.3,2.7,0.8,3.7c0.5,1.1,1.2,1.9,2.2,2.5c0.9,0.6,2,0.9,3.2,0.9c2,0,3.5-0.6,4.6-1.9c1.1-1.2,1.7-3,1.7-5.2
		C92.1,95.9,91.6,94.1,90.4,92.9 M77.4,91.2h-3.5v-0.9c0-1.1,0.2-2,0.6-2.5c0.4-0.5,0.9-0.8,1.7-0.8c0.6,0,1.2,0.1,2,0.4l0.5-1.6
		c-1-0.3-1.8-0.4-2.5-0.4c-2.9,0-4.4,1.7-4.4,5v0.8l-2.4,0.7v0.9h2.4v12h2.1v-12h3.5V91.2z M66.5,104.8V96c0-1.7-0.4-3-1.2-3.8
		c-0.8-0.8-2.1-1.2-3.7-1.2c-0.9,0-1.8,0.2-2.5,0.6c-0.8,0.4-1.4,0.9-1.8,1.6h-0.1l-0.3-1.9h-1.7v13.6h2.1v-7.1c0-1.8,0.3-3,1-3.8
		c0.7-0.8,1.7-1.2,3.1-1.2c1.1,0,1.9,0.3,2.4,0.8c0.5,0.5,0.8,1.4,0.8,2.5v8.8H66.5z M48.4,88.6c0.2,0.2,0.5,0.3,0.9,0.3
		c0.3,0,0.6-0.1,0.9-0.3c0.2-0.2,0.4-0.6,0.4-1c0-0.5-0.1-0.8-0.4-1c-0.2-0.2-0.5-0.3-0.9-0.3c-0.3,0-0.6,0.1-0.9,0.3
		c-0.2,0.2-0.3,0.6-0.3,1C48.1,88,48.2,88.4,48.4,88.6 M50.3,91.2h-2.1v13.6h2.1V91.2z"/>
	<path class="st1" d="M397.9,48h-2.1v19.3h2.1V48z M379.6,53.7v8.9c0,1.7,0.4,3,1.2,3.8c0.8,0.8,2.1,1.2,3.7,1.2
		c1,0,1.8-0.2,2.6-0.5c0.7-0.4,1.3-0.9,1.8-1.5h0.1l0.3,1.8h1.7V53.7H389v7.1c0,1.8-0.3,3-1,3.8c-0.7,0.8-1.7,1.2-3.1,1.2
		c-1.1,0-1.9-0.3-2.4-0.8c-0.5-0.5-0.8-1.4-0.8-2.5v-8.8H379.6z M376.8,53.7h-3.5v-0.9c0-1.1,0.2-2,0.6-2.5c0.4-0.5,0.9-0.8,1.7-0.8
		c0.6,0,1.2,0.1,2,0.4l0.5-1.6c-1-0.3-1.8-0.4-2.5-0.4c-2.9,0-4.4,1.7-4.4,5v0.8l-2.4,0.7v0.9h2.4v12h2.1v-12h3.5V53.7z M363.6,56.3
		c0.6,0.7,0.9,1.7,0.9,3h-7.1c0.1-1.3,0.5-2.2,1.1-3c0.6-0.7,1.5-1.1,2.6-1.1C362.2,55.2,363,55.6,363.6,56.3 M364,67.4
		c0.6-0.1,1.3-0.4,2.1-0.7v-1.8c-1.4,0.6-2.9,0.9-4.3,0.9c-1.4,0-2.5-0.4-3.2-1.2c-0.8-0.8-1.2-2-1.2-3.6h9.4v-1.3
		c0-1.8-0.5-3.3-1.5-4.4c-1-1.1-2.3-1.7-4-1.7c-1.8,0-3.3,0.6-4.3,1.9c-1.1,1.3-1.6,3-1.6,5.2c0,2.2,0.6,3.9,1.7,5.1
		c1.2,1.2,2.7,1.8,4.8,1.8C362.6,67.6,363.4,67.5,364,67.4 M351.2,61.4c-0.6-0.6-1.7-1.2-3.3-1.8c-1.2-0.4-2-0.8-2.4-1
		c-0.4-0.2-0.7-0.5-0.9-0.7c-0.2-0.3-0.3-0.6-0.3-0.9c0-0.5,0.2-1,0.7-1.3c0.5-0.3,1.2-0.5,2.2-0.5c1.1,0,2.3,0.3,3.7,0.8l0.7-1.7
		c-1.4-0.6-2.8-0.9-4.3-0.9c-1.6,0-2.8,0.3-3.7,1c-0.9,0.6-1.4,1.5-1.4,2.6c0,0.6,0.1,1.2,0.4,1.6c0.3,0.4,0.7,0.8,1.2,1.2
		c0.5,0.4,1.4,0.8,2.7,1.2c1.3,0.5,2.2,1,2.7,1.3c0.5,0.4,0.7,0.8,0.7,1.4c0,0.7-0.3,1.2-0.9,1.6c-0.6,0.3-1.4,0.5-2.5,0.5
		c-0.7,0-1.4-0.1-2.2-0.3c-0.7-0.2-1.4-0.4-2.1-0.8v1.9c1,0.6,2.4,0.9,4.2,0.9c1.7,0,3-0.3,4-1c0.9-0.7,1.4-1.7,1.4-2.9
		C352.1,62.7,351.8,62,351.2,61.4 M327.1,53.7v8.9c0,1.7,0.4,3,1.2,3.8c0.8,0.8,2.1,1.2,3.7,1.2c1,0,1.8-0.2,2.6-0.5
		c0.7-0.4,1.3-0.9,1.8-1.5h0.1l0.3,1.8h1.7V53.7h-2.1v7.1c0,1.8-0.3,3-1,3.8c-0.7,0.8-1.7,1.2-3.1,1.2c-1.1,0-1.9-0.3-2.4-0.8
		c-0.5-0.5-0.8-1.4-0.8-2.5v-8.8H327.1z M317.1,53.7h-3.5v-0.9c0-1.1,0.2-2,0.6-2.5c0.4-0.5,0.9-0.8,1.7-0.8c0.6,0,1.2,0.1,2,0.4
		l0.5-1.6c-1-0.3-1.8-0.4-2.5-0.4c-2.9,0-4.4,1.7-4.4,5v0.8l-2.4,0.7v0.9h2.4v12h2.1v-12h3.5V53.7z M297.6,56.6
		c0.7-0.9,1.7-1.3,3-1.3c1.4,0,2.4,0.4,3.1,1.3c0.7,0.9,1,2.2,1,3.9c0,1.7-0.3,3.1-1,4c-0.7,0.9-1.7,1.4-3.1,1.4
		c-1.3,0-2.4-0.5-3.1-1.4c-0.7-0.9-1-2.2-1-4C296.5,58.8,296.9,57.5,297.6,56.6 M305.2,55.4c-1.1-1.3-2.6-1.9-4.5-1.9
		c-2,0-3.5,0.6-4.6,1.9s-1.7,3-1.7,5.2c0,1.4,0.3,2.7,0.8,3.7c0.5,1.1,1.2,1.9,2.2,2.5c0.9,0.6,2,0.9,3.2,0.9c2,0,3.5-0.6,4.6-1.9
		c1.1-1.2,1.7-3,1.7-5.2C306.9,58.4,306.3,56.7,305.2,55.4 M283.4,61.4c-0.6-0.6-1.7-1.2-3.3-1.8c-1.2-0.4-2-0.8-2.4-1
		c-0.4-0.2-0.7-0.5-0.9-0.7c-0.2-0.3-0.3-0.6-0.3-0.9c0-0.5,0.2-1,0.7-1.3c0.5-0.3,1.2-0.5,2.2-0.5c1.1,0,2.3,0.3,3.7,0.8l0.7-1.7
		c-1.4-0.6-2.8-0.9-4.3-0.9c-1.6,0-2.8,0.3-3.7,1c-0.9,0.6-1.4,1.5-1.4,2.6c0,0.6,0.1,1.2,0.4,1.6c0.3,0.4,0.7,0.8,1.2,1.2
		c0.5,0.4,1.4,0.8,2.7,1.2c1.3,0.5,2.2,1,2.7,1.3c0.5,0.4,0.7,0.8,0.7,1.4c0,0.7-0.3,1.2-0.9,1.6c-0.6,0.3-1.4,0.5-2.5,0.5
		c-0.7,0-1.4-0.1-2.2-0.3c-0.7-0.2-1.4-0.4-2.1-0.8v1.9c1,0.6,2.4,0.9,4.2,0.9c1.7,0,3-0.3,4-1c0.9-0.7,1.4-1.7,1.4-2.9
		C284.2,62.7,283.9,62,283.4,61.4 M261.7,64.5c-0.6-0.9-1-2.2-1-3.9c0-1.7,0.3-3,1-4c0.6-0.9,1.6-1.4,2.8-1.4c1.4,0,2.4,0.4,3.1,1.2
		c0.6,0.8,1,2.2,1,4.1V61c0,1.7-0.3,2.9-0.9,3.7c-0.6,0.8-1.7,1.1-3.1,1.1C263.3,65.9,262.3,65.4,261.7,64.5 M268.9,67.3h1.7V48
		h-2.1v5.5l0,1l0.1,1h-0.2c-1-1.3-2.4-2-4.2-2c-1.8,0-3.1,0.6-4.1,1.9s-1.5,3-1.5,5.2c0,2.2,0.5,4,1.5,5.2c1,1.2,2.4,1.8,4.1,1.8
		c1.9,0,3.3-0.7,4.3-2.1h0.1L268.9,67.3z M246.6,65.3c-0.4-0.4-0.7-1-0.7-1.7c0-1,0.4-1.7,1.1-2.1c0.7-0.4,1.9-0.7,3.5-0.8l2.1-0.1
		v1.2c0,1.3-0.4,2.2-1.1,3c-0.7,0.7-1.7,1.1-3,1.1C247.6,65.9,247,65.7,246.6,65.3 M254.6,67.3v-9.3c0-1.6-0.4-2.7-1.2-3.5
		c-0.8-0.7-2-1.1-3.6-1.1c-0.8,0-1.6,0.1-2.4,0.3c-0.8,0.2-1.5,0.5-2.2,0.9l0.6,1.6c1.4-0.7,2.7-1,3.8-1c1,0,1.7,0.3,2.2,0.8
		s0.7,1.3,0.7,2.4v0.8l-2.3,0.1c-4.4,0.1-6.6,1.6-6.6,4.3c0,1.3,0.4,2.3,1.1,3c0.8,0.7,1.8,1,3.2,1c1,0,1.8-0.2,2.5-0.5
		c0.7-0.3,1.3-0.9,2-1.7h0.1l0.4,1.9H254.6z M231.3,56.6c0.7-0.9,1.7-1.3,3.1-1.3c1.4,0,2.4,0.4,3.1,1.3c0.7,0.9,1,2.2,1,3.9
		c0,1.7-0.3,3.1-1,4c-0.7,0.9-1.7,1.4-3.1,1.4c-1.3,0-2.4-0.5-3.1-1.4c-0.7-0.9-1-2.2-1-4C230.3,58.8,230.6,57.5,231.3,56.6
		 M238.9,55.4c-1.1-1.3-2.6-1.9-4.5-1.9c-2,0-3.5,0.6-4.6,1.9c-1.1,1.2-1.7,3-1.7,5.2c0,1.4,0.3,2.7,0.8,3.7
		c0.5,1.1,1.2,1.9,2.2,2.5c0.9,0.6,2,0.9,3.2,0.9c2,0,3.5-0.6,4.6-1.9c1.1-1.2,1.7-3,1.7-5.2C240.6,58.4,240.1,56.7,238.9,55.4
		 M224,48H222v19.3h2.1V48z M201.1,64.5c-0.6-0.9-1-2.2-1-3.9c0-1.7,0.3-3,1-4c0.6-0.9,1.6-1.4,2.8-1.4c1.4,0,2.4,0.4,3.1,1.2
		c0.6,0.8,1,2.2,1,4.1V61c0,1.7-0.3,2.9-0.9,3.7c-0.6,0.8-1.7,1.1-3.1,1.1C202.7,65.9,201.8,65.4,201.1,64.5 M208.3,67.3h1.7V48
		h-2.1v5.5l0.1,1l0.1,1h-0.2c-1-1.3-2.4-2-4.2-2c-1.8,0-3.1,0.6-4.1,1.9s-1.5,3-1.5,5.2c0,2.2,0.5,4,1.5,5.2c1,1.2,2.4,1.8,4.1,1.8
		c1.9,0,3.3-0.7,4.3-2.1h0.1L208.3,67.3z M191.7,56.3c0.6,0.7,0.9,1.7,0.9,3h-7.1c0.1-1.3,0.5-2.2,1.1-3s1.5-1.1,2.6-1.1
		C190.3,55.2,191.1,55.6,191.7,56.3 M192.1,67.4c0.6-0.1,1.3-0.4,2.1-0.7v-1.8c-1.4,0.6-2.9,0.9-4.3,0.9c-1.4,0-2.5-0.4-3.2-1.2
		c-0.8-0.8-1.2-2-1.2-3.6h9.4v-1.3c0-1.8-0.5-3.3-1.5-4.4c-1-1.1-2.3-1.7-4-1.7c-1.8,0-3.3,0.6-4.3,1.9c-1.1,1.3-1.6,3-1.6,5.2
		c0,2.2,0.6,3.9,1.7,5.1c1.2,1.2,2.7,1.8,4.8,1.8C190.7,67.6,191.5,67.5,192.1,67.4 M170.3,64.5c-0.6-0.9-1-2.2-1-3.9
		c0-1.7,0.3-3,1-4c0.6-0.9,1.6-1.4,2.8-1.4c1.4,0,2.4,0.4,3.1,1.2c0.6,0.8,1,2.2,1,4.1V61c0,1.7-0.3,2.9-0.9,3.7
		c-0.6,0.8-1.7,1.1-3.1,1.1C171.9,65.9,170.9,65.4,170.3,64.5 M177.5,67.3h1.7V48h-2.1v5.5l0.1,1l0.1,1h-0.2c-1-1.3-2.4-2-4.2-2
		c-1.8,0-3.1,0.6-4.1,1.9s-1.5,3-1.5,5.2c0,2.2,0.5,4,1.5,5.2c1,1.2,2.4,1.8,4.1,1.8c1.9,0,3.3-0.7,4.3-2.1h0.1L177.5,67.3z
		 M161.2,51.1c0.2,0.2,0.5,0.3,0.9,0.3c0.3,0,0.6-0.1,0.9-0.3c0.2-0.2,0.4-0.6,0.4-1c0-0.5-0.1-0.8-0.4-1c-0.2-0.2-0.5-0.3-0.9-0.3
		c-0.3,0-0.6,0.1-0.9,0.3s-0.3,0.6-0.3,1C160.9,50.5,161,50.9,161.2,51.1 M163.1,53.7H161v13.6h2.1V53.7z M153.2,67.3l5.2-13.6h-2.2
		c-1.7,4.6-2.8,7.6-3.3,9c-0.5,1.4-0.8,2.3-0.9,2.7h-0.1c-0.1-0.6-0.5-1.8-1.2-3.7l-2.9-8.1h-2.2l5.2,13.6H153.2z M134.4,56.6
		c0.7-0.9,1.7-1.3,3.1-1.3c1.4,0,2.4,0.4,3.1,1.3c0.7,0.9,1,2.2,1,3.9c0,1.7-0.4,3.1-1,4c-0.7,0.9-1.7,1.4-3.1,1.4
		c-1.3,0-2.4-0.5-3.1-1.4c-0.7-0.9-1-2.2-1-4C133.3,58.8,133.7,57.5,134.4,56.6 M142,55.4c-1.1-1.3-2.6-1.9-4.5-1.9
		c-2,0-3.5,0.6-4.6,1.9c-1.1,1.2-1.7,3-1.7,5.2c0,1.4,0.3,2.7,0.8,3.7c0.5,1.1,1.2,1.9,2.2,2.5c0.9,0.6,2,0.9,3.2,0.9
		c2,0,3.5-0.6,4.6-1.9c1.1-1.2,1.7-3,1.7-5.2C143.7,58.4,143.1,56.7,142,55.4 M124.9,54.2c-0.7,0.5-1.3,1.2-1.8,2H123l-0.2-2.5h-1.7
		v13.6h2.1V60c0-1.3,0.4-2.4,1.2-3.3c0.8-0.9,1.7-1.3,2.8-1.3c0.4,0,0.9,0.1,1.5,0.2l0.3-1.9c-0.5-0.1-1-0.1-1.6-0.1
		C126.4,53.5,125.7,53.7,124.9,54.2 M113.9,56.6c0.7,0.9,1,2.2,1,3.9c0,1.7-0.3,3-1,3.9c-0.7,1-1.6,1.4-2.8,1.4
		c-1.4,0-2.4-0.4-3.1-1.2c-0.6-0.8-1-2.2-1-4.1v-0.5c0-1.7,0.3-2.9,1-3.7c0.6-0.8,1.6-1.2,3-1.2C112.3,55.2,113.2,55.7,113.9,56.6
		 M115.5,65.7c1-1.2,1.5-3,1.5-5.2c0-2.2-0.5-4-1.5-5.2c-1-1.2-2.4-1.8-4.2-1.8c-0.9,0-1.7,0.2-2.4,0.5c-0.7,0.3-1.3,0.9-1.8,1.6
		H107l-0.3-1.9H105v19.7h2.1v-5.6c0-0.7-0.1-1.5-0.1-2.3h0.1c0.5,0.7,1.1,1.2,1.8,1.5c0.7,0.3,1.5,0.5,2.4,0.5
		C113.1,67.6,114.5,67,115.5,65.7 M91.2,65.2c-0.4-0.4-0.6-1.1-0.6-1.9v-8h3.9v-1.6h-3.9v-3.1h-1.2l-0.9,2.9l-1.9,0.9v1h1.9v8.1
		c0,2.8,1.3,4.2,3.9,4.2c0.3,0,0.7,0,1.2-0.1c0.4-0.1,0.8-0.2,1-0.3v-1.6c-0.2,0.1-0.5,0.1-0.8,0.2c-0.3,0.1-0.7,0.1-1.1,0.1
		C92.2,65.9,91.6,65.7,91.2,65.2 M75.6,65.3c-0.5-0.4-0.7-1-0.7-1.7c0-1,0.4-1.7,1.1-2.1c0.7-0.4,1.9-0.7,3.5-0.8l2.1-0.1v1.2
		c0,1.3-0.4,2.2-1.1,3c-0.7,0.7-1.7,1.1-3,1.1C76.7,65.9,76.1,65.7,75.6,65.3 M83.7,67.3v-9.3c0-1.6-0.4-2.7-1.2-3.5
		c-0.8-0.7-2-1.1-3.6-1.1c-0.8,0-1.6,0.1-2.4,0.3c-0.8,0.2-1.5,0.5-2.2,0.9l0.6,1.6c1.4-0.7,2.7-1,3.8-1c1,0,1.7,0.3,2.2,0.8
		c0.5,0.5,0.7,1.3,0.7,2.4v0.8l-2.3,0.1c-4.4,0.1-6.6,1.6-6.6,4.3c0,1.3,0.4,2.3,1.1,3c0.8,0.7,1.8,1,3.2,1c1,0,1.8-0.2,2.5-0.5
		c0.7-0.3,1.3-0.9,2-1.7h0.1l0.4,1.9H83.7z M69.1,67.3v-8.9c0-1.7-0.4-3-1.2-3.8c-0.8-0.8-2.1-1.2-3.7-1.2c-1,0-1.8,0.2-2.6,0.6
		s-1.3,0.9-1.7,1.5h-0.1c0.1-0.5,0.1-1,0.1-1.7V48h-2.1v19.3h2.1v-7.1c0-1.8,0.3-3,1-3.8c0.7-0.8,1.7-1.2,3.1-1.2
		c1.1,0,1.9,0.3,2.4,0.8c0.5,0.5,0.8,1.4,0.8,2.5v8.8H69.1z M51,65.2c-0.4-0.4-0.6-1.1-0.6-1.9v-8h3.9v-1.6h-3.9v-3.1h-1.2l-0.9,2.9
		l-1.9,0.9v1h1.9v8.1c0,2.8,1.3,4.2,3.9,4.2c0.3,0,0.7,0,1.2-0.1c0.4-0.1,0.8-0.2,1-0.3v-1.6c-0.2,0.1-0.5,0.1-0.8,0.2
		c-0.3,0.1-0.7,0.1-1.1,0.1C52,65.9,51.4,65.7,51,65.2"/>
	<path class="st1" d="M362.1,19.1c0.7,0.9,1,2.2,1,3.9c0,1.7-0.3,3-1,3.9c-0.7,1-1.6,1.4-2.8,1.4c-1.4,0-2.4-0.4-3.1-1.2
		c-0.6-0.8-1-2.2-1-4.1v-0.5c0-1.7,0.3-2.9,1-3.7c0.6-0.8,1.6-1.2,3-1.2C360.5,17.8,361.5,18.2,362.1,19.1 M363.8,28.2
		c1-1.2,1.5-3,1.5-5.2c0-2.2-0.5-3.9-1.5-5.2c-1-1.2-2.4-1.8-4.2-1.8c-0.9,0-1.7,0.2-2.4,0.5c-0.7,0.3-1.3,0.9-1.8,1.6h-0.1
		l-0.3-1.9h-1.7v19.7h2.1v-5.6c0-0.7,0-1.5-0.1-2.3h0.1c0.5,0.7,1.1,1.2,1.8,1.5c0.7,0.3,1.5,0.5,2.4,0.5
		C361.4,30.1,362.8,29.5,363.8,28.2 M346.1,19.1c0.7,0.9,1,2.2,1,3.9c0,1.7-0.3,3-1,3.9c-0.7,1-1.6,1.4-2.8,1.4
		c-1.4,0-2.4-0.4-3.1-1.2c-0.6-0.8-1-2.2-1-4.1v-0.5c0-1.7,0.3-2.9,1-3.7c0.6-0.8,1.6-1.2,3-1.2C344.5,17.8,345.4,18.2,346.1,19.1
		 M347.7,28.2c1-1.2,1.5-3,1.5-5.2c0-2.2-0.5-3.9-1.5-5.2c-1-1.2-2.4-1.8-4.2-1.8c-0.9,0-1.7,0.2-2.4,0.5c-0.7,0.3-1.3,0.9-1.8,1.6
		h-0.1l-0.3-1.9h-1.7v19.7h2.1v-5.6c0-0.7,0-1.5-0.1-2.3h0.1c0.5,0.7,1.1,1.2,1.8,1.5c0.7,0.3,1.5,0.5,2.4,0.5
		C345.3,30.1,346.7,29.5,347.7,28.2 M324.4,27.8c-0.5-0.4-0.7-1-0.7-1.7c0-0.9,0.4-1.7,1.1-2.1c0.7-0.5,1.9-0.7,3.5-0.8l2.1-0.1v1.2
		c0,1.3-0.4,2.2-1.1,3c-0.7,0.7-1.7,1.1-3,1.1C325.5,28.4,324.9,28.2,324.4,27.8 M332.5,29.8v-9.3c0-1.6-0.4-2.7-1.2-3.5
		c-0.8-0.7-2-1.1-3.6-1.1c-0.8,0-1.6,0.1-2.4,0.3c-0.8,0.2-1.5,0.5-2.2,0.9l0.6,1.6c1.4-0.7,2.7-1,3.8-1c1,0,1.7,0.3,2.2,0.8
		c0.5,0.5,0.7,1.3,0.7,2.4v0.8l-2.3,0.1c-4.4,0.1-6.6,1.6-6.6,4.3c0,1.3,0.4,2.3,1.1,3c0.8,0.7,1.8,1,3.2,1c1,0,1.8-0.2,2.5-0.5
		c0.7-0.3,1.3-0.9,2-1.7h0.1l0.4,1.9H332.5z M310.8,29.8V21c0-1.7-0.4-3-1.2-3.8c-0.8-0.8-2.1-1.2-3.7-1.2c-0.9,0-1.8,0.2-2.5,0.6
		c-0.8,0.4-1.4,0.9-1.8,1.6h-0.1l-0.3-1.9h-1.7v13.6h2.1v-7.1c0-1.8,0.3-3,1-3.8c0.7-0.8,1.7-1.2,3.1-1.2c1.1,0,1.9,0.3,2.4,0.8
		c0.5,0.5,0.8,1.4,0.8,2.5v8.8H310.8z M286.6,27.8c-0.5-0.4-0.7-1-0.7-1.7c0-0.9,0.4-1.7,1.1-2.1c0.7-0.5,1.9-0.7,3.5-0.8l2.1-0.1
		v1.2c0,1.3-0.4,2.2-1.1,3c-0.7,0.7-1.7,1.1-3,1.1C287.7,28.4,287,28.2,286.6,27.8 M294.7,29.8v-9.3c0-1.6-0.4-2.7-1.2-3.5
		c-0.8-0.7-2-1.1-3.6-1.1c-0.8,0-1.6,0.1-2.4,0.3c-0.8,0.2-1.5,0.5-2.2,0.9l0.6,1.6c1.4-0.7,2.7-1,3.8-1c1,0,1.7,0.3,2.2,0.8
		c0.5,0.5,0.7,1.3,0.7,2.4v0.8l-2.3,0.1c-4.4,0.1-6.6,1.6-6.6,4.3c0,1.3,0.4,2.3,1.1,3c0.8,0.7,1.8,1,3.2,1c1,0,1.9-0.2,2.5-0.5
		c0.7-0.3,1.3-0.9,2-1.7h0.1l0.4,1.9H294.7z M272.9,29.8V21c0-1.7-0.4-3-1.2-3.8c-0.8-0.8-2.1-1.2-3.7-1.2c-0.9,0-1.8,0.2-2.5,0.6
		c-0.8,0.4-1.4,0.9-1.8,1.6h-0.1l-0.3-1.9h-1.7v13.6h2.1v-7.1c0-1.8,0.3-3,1-3.8c0.7-0.8,1.7-1.2,3.1-1.2c1.1,0,1.9,0.3,2.4,0.8
		c0.5,0.5,0.8,1.4,0.8,2.5v8.8H272.9z M254.8,13.6c0.2,0.2,0.5,0.3,0.9,0.3c0.3,0,0.6-0.1,0.9-0.3c0.2-0.2,0.4-0.6,0.4-1
		s-0.1-0.8-0.4-1c-0.2-0.2-0.5-0.3-0.9-0.3c-0.3,0-0.6,0.1-0.9,0.3c-0.2,0.2-0.3,0.6-0.3,1C254.5,13,254.6,13.4,254.8,13.6
		 M256.7,16.3h-2.1v13.6h2.1V16.3z M233.8,27c-0.6-0.9-1-2.2-1-3.9c0-1.7,0.3-3,1-4c0.6-0.9,1.6-1.4,2.8-1.4c1.4,0,2.4,0.4,3.1,1.2
		c0.6,0.8,1,2.2,1,4.1v0.4c0,1.7-0.3,2.9-0.9,3.7c-0.6,0.8-1.7,1.1-3.1,1.1C235.4,28.4,234.5,27.9,233.8,27 M241,29.8h1.7V10.6h-2.1
		v5.5l0.1,1l0.1,1h-0.2c-1-1.3-2.4-2-4.2-2c-1.8,0-3.1,0.6-4.1,1.9c-1,1.2-1.5,3-1.5,5.2c0,2.2,0.5,4,1.5,5.2c1,1.2,2.4,1.8,4.1,1.8
		c1.9,0,3.3-0.7,4.3-2.1h0.1L241,29.8z M224.4,18.8c0.6,0.7,0.9,1.7,0.9,3h-7.1c0.1-1.3,0.5-2.2,1.1-3c0.6-0.7,1.5-1.1,2.6-1.1
		C223,17.7,223.8,18.1,224.4,18.8 M224.8,29.9c0.6-0.1,1.3-0.4,2.1-0.7v-1.8c-1.4,0.6-2.9,0.9-4.3,0.9c-1.4,0-2.5-0.4-3.2-1.2
		c-0.8-0.8-1.2-2-1.2-3.6h9.4v-1.3c0-1.8-0.5-3.3-1.5-4.4c-1-1.1-2.3-1.7-4-1.7c-1.8,0-3.3,0.6-4.3,1.9c-1.1,1.3-1.6,3-1.6,5.2
		c0,2.2,0.6,3.9,1.7,5.1c1.2,1.2,2.7,1.8,4.8,1.8C223.4,30.1,224.2,30,224.8,29.9 M210,27.7c-0.4-0.4-0.6-1.1-0.6-1.9v-8h3.9v-1.6
		h-3.9v-3.1h-1.2l-0.9,2.9l-1.9,0.9v1h1.9v8.1c0,2.8,1.3,4.2,3.9,4.2c0.3,0,0.7,0,1.2-0.1c0.4-0.1,0.8-0.2,1-0.3v-1.6
		c-0.2,0.1-0.5,0.1-0.8,0.2c-0.3,0.1-0.7,0.1-1.1,0.1C211,28.4,210.4,28.2,210,27.7 M202.6,23.9c-0.6-0.6-1.7-1.2-3.3-1.8
		c-1.2-0.4-2-0.8-2.4-1c-0.4-0.2-0.7-0.5-0.9-0.7c-0.2-0.3-0.3-0.6-0.3-0.9c0-0.5,0.2-1,0.7-1.3s1.2-0.5,2.2-0.5
		c1.1,0,2.3,0.3,3.7,0.8l0.7-1.7c-1.4-0.6-2.8-0.9-4.3-0.9c-1.6,0-2.8,0.3-3.7,1c-0.9,0.6-1.4,1.5-1.4,2.6c0,0.6,0.1,1.2,0.4,1.6
		c0.3,0.4,0.7,0.8,1.2,1.2c0.5,0.4,1.4,0.8,2.7,1.2c1.3,0.5,2.2,1,2.7,1.3s0.7,0.8,0.7,1.4c0,0.7-0.3,1.2-0.9,1.6
		c-0.6,0.3-1.4,0.5-2.5,0.5c-0.7,0-1.4-0.1-2.2-0.3c-0.7-0.2-1.4-0.4-2.1-0.8v1.9c1,0.6,2.4,0.9,4.2,0.9c1.7,0,3-0.3,4-1
		c0.9-0.7,1.4-1.7,1.4-2.9C203.4,25.2,203.1,24.5,202.6,23.9 M187.5,18.8c0.6,0.7,0.9,1.7,0.9,3h-7.1c0.1-1.3,0.5-2.2,1.1-3
		c0.6-0.7,1.5-1.1,2.6-1.1C186.1,17.7,187,18.1,187.5,18.8 M188,29.9c0.6-0.1,1.3-0.4,2.1-0.7v-1.8c-1.4,0.6-2.9,0.9-4.3,0.9
		c-1.4,0-2.5-0.4-3.2-1.2c-0.8-0.8-1.2-2-1.2-3.6h9.4v-1.3c0-1.8-0.5-3.3-1.5-4.4c-1-1.1-2.3-1.7-4-1.7c-1.8,0-3.3,0.6-4.3,1.9
		c-1.1,1.3-1.6,3-1.6,5.2c0,2.2,0.6,3.9,1.7,5.1c1.2,1.2,2.7,1.8,4.8,1.8C186.5,30.1,187.3,30,188,29.9 M172.9,16.7
		c-0.7,0.5-1.3,1.2-1.8,2h-0.1l-0.2-2.5H169v13.6h2.1v-7.3c0-1.3,0.4-2.4,1.2-3.3c0.8-0.9,1.7-1.3,2.8-1.3c0.4,0,0.9,0.1,1.5,0.2
		l0.3-1.9c-0.5-0.1-1-0.1-1.6-0.1C174.4,16,173.6,16.2,172.9,16.7 M161.9,18.8c0.6,0.7,0.9,1.7,0.9,3h-7.1c0.1-1.3,0.5-2.2,1.1-3
		c0.6-0.7,1.5-1.1,2.6-1.1C160.5,17.7,161.3,18.1,161.9,18.8 M162.3,29.9c0.6-0.1,1.3-0.4,2.1-0.7v-1.8c-1.4,0.6-2.9,0.9-4.3,0.9
		c-1.4,0-2.5-0.4-3.2-1.2c-0.8-0.8-1.2-2-1.2-3.6h9.4v-1.3c0-1.8-0.5-3.3-1.5-4.4c-1-1.1-2.3-1.7-4-1.7c-1.8,0-3.3,0.6-4.3,1.9
		c-1.1,1.3-1.6,3-1.6,5.2c0,2.2,0.6,3.9,1.7,5.1s2.7,1.8,4.8,1.8C160.9,30.1,161.7,30,162.3,29.9 M147.6,27.7
		c-0.4-0.4-0.6-1.1-0.6-1.9v-8h3.9v-1.6H147v-3.1h-1.2l-0.9,2.9l-1.9,0.9v1h1.9v8.1c0,2.8,1.3,4.2,3.9,4.2c0.3,0,0.7,0,1.2-0.1
		c0.4-0.1,0.8-0.2,1-0.3v-1.6c-0.2,0.1-0.5,0.1-0.8,0.2s-0.7,0.1-1.1,0.1C148.5,28.4,148,28.2,147.6,27.7 M140,29.8V21
		c0-1.7-0.4-3-1.2-3.8c-0.8-0.8-2.1-1.2-3.7-1.2c-0.9,0-1.8,0.2-2.5,0.6c-0.8,0.4-1.4,0.9-1.8,1.6h-0.1l-0.3-1.9h-1.7v13.6h2.1v-7.1
		c0-1.8,0.3-3,1-3.8c0.7-0.8,1.7-1.2,3.1-1.2c1.1,0,1.9,0.3,2.4,0.8c0.5,0.5,0.8,1.4,0.8,2.5v8.8H140z M121.9,13.6
		c0.2,0.2,0.5,0.3,0.9,0.3c0.3,0,0.6-0.1,0.9-0.3c0.2-0.2,0.4-0.6,0.4-1s-0.1-0.8-0.4-1c-0.2-0.2-0.5-0.3-0.9-0.3
		c-0.3,0-0.6,0.1-0.9,0.3c-0.2,0.2-0.3,0.6-0.3,1C121.6,13,121.7,13.4,121.9,13.6 M123.8,16.3h-2.1v13.6h2.1V16.3z M107.6,18.8
		c0.6,0.7,0.9,1.7,0.9,3h-7.1c0.1-1.3,0.5-2.2,1.1-3s1.5-1.1,2.6-1.1C106.2,17.7,107,18.1,107.6,18.8 M108,29.9
		c0.6-0.1,1.3-0.4,2.1-0.7v-1.8c-1.4,0.6-2.9,0.9-4.3,0.9c-1.4,0-2.5-0.4-3.2-1.2c-0.8-0.8-1.2-2-1.2-3.6h9.4v-1.3
		c0-1.8-0.5-3.3-1.5-4.4c-1-1.1-2.3-1.7-4-1.7c-1.8,0-3.3,0.6-4.3,1.9c-1.1,1.3-1.6,3-1.6,5.2c0,2.2,0.6,3.9,1.7,5.1
		c1.2,1.2,2.7,1.8,4.8,1.8C106.6,30.1,107.3,30,108,29.9 M92.7,19.1c0.6,0.9,0.9,2.2,0.9,4c0,1.7-0.3,3.1-0.9,4
		c-0.6,0.9-1.6,1.4-2.8,1.4c-1.4,0-2.4-0.4-3.1-1.2c-0.6-0.8-1-2.2-1-4.1c0-1.9,0.3-3.3,0.9-4.1c0.6-0.8,1.6-1.2,3-1.2
		C91.2,17.8,92.1,18.2,92.7,19.1 M85.9,18.1L85.9,18.1c0-0.8,0-1.8,0-2.8v-4.7h-2.1v19.3h1.5l0.4-1.7h0.1c0.5,0.7,1.1,1.2,1.8,1.5
		c0.7,0.3,1.5,0.5,2.4,0.5c1.8,0,3.2-0.6,4.1-1.9c1-1.2,1.5-3,1.5-5.2c0-2.2-0.5-4-1.5-5.2c-1-1.2-2.4-1.8-4.2-1.8
		C88.3,16,86.9,16.7,85.9,18.1 M63,27c-0.6-0.9-1-2.2-1-3.9c0-1.7,0.3-3,1-4c0.6-0.9,1.6-1.4,2.8-1.4c1.4,0,2.4,0.4,3.1,1.2
		c0.6,0.8,1,2.2,1,4.1v0.4c0,1.7-0.3,2.9-0.9,3.7c-0.6,0.8-1.7,1.1-3.1,1.1C64.6,28.4,63.6,27.9,63,27 M70.2,29.8h1.7V10.6h-2.1v5.5
		l0,1l0.1,1h-0.2c-1-1.3-2.4-2-4.2-2c-1.8,0-3.1,0.6-4.1,1.9s-1.5,3-1.5,5.2c0,2.2,0.5,4,1.5,5.2c1,1.2,2.4,1.8,4.1,1.8
		c1.9,0,3.3-0.7,4.3-2.1h0.1L70.2,29.8z M55.2,11.7c-0.3,1.8-0.7,3.9-1.3,6.2h1.5c0.4-0.9,0.9-2,1.3-3.1c0.4-1.1,0.7-2.1,0.9-2.9
		l-0.2-0.3H55.2z M50.7,11.7h-2.1v18.1h2.1V11.7z"/>
</g>
<g>
	<path d="M342.4,173.3l-0.8,2.5h-1.1l2.7-8.1h1.3l2.8,8.1h-1.1l-0.9-2.5H342.4z M345.1,172.5l-0.8-2.3c-0.2-0.5-0.3-1-0.4-1.5h0
		c-0.1,0.5-0.3,1-0.4,1.5l-0.8,2.3H345.1z"/>
	<path d="M348.4,171.6c0-0.6,0-1.1,0-1.6h0.9l0.1,1h0c0.3-0.6,1-1.1,1.9-1.1c0.8,0,2.1,0.5,2.1,2.5v3.5h-1.1v-3.3
		c0-0.9-0.3-1.7-1.3-1.7c-0.7,0-1.2,0.5-1.4,1.1c0,0.1-0.1,0.3-0.1,0.5v3.5h-1.1V171.6z"/>
	<path d="M360.1,170.1c0,0.4,0,0.9,0,1.6v3.4c0,1.3-0.3,2.1-0.8,2.7c-0.6,0.5-1.4,0.7-2.1,0.7c-0.7,0-1.5-0.2-1.9-0.5l0.3-0.8
		c0.4,0.2,1,0.5,1.7,0.5c1.1,0,1.9-0.6,1.9-2v-0.6h0c-0.3,0.5-0.9,1-1.8,1c-1.4,0-2.5-1.2-2.5-2.8c0-2,1.3-3.1,2.6-3.1
		c1,0,1.6,0.5,1.8,1h0l0-0.9H360.1z M359,172.4c0-0.2,0-0.3-0.1-0.5c-0.2-0.6-0.7-1.1-1.5-1.1c-1,0-1.7,0.9-1.7,2.2
		c0,1.1,0.6,2.1,1.7,2.1c0.6,0,1.2-0.4,1.5-1.1c0.1-0.2,0.1-0.4,0.1-0.6V172.4z"/>
	<path d="M362.4,173.2c0,1.4,0.9,2,2,2c0.8,0,1.2-0.1,1.6-0.3l0.2,0.8c-0.4,0.2-1,0.4-1.9,0.4c-1.8,0-2.9-1.2-2.9-2.9s1-3.1,2.7-3.1
		c1.9,0,2.4,1.7,2.4,2.7c0,0.2,0,0.4,0,0.5H362.4z M365.5,172.4c0-0.7-0.3-1.7-1.5-1.7c-1.1,0-1.5,1-1.6,1.7H365.5z"/>
	<path d="M367.8,167.4h1.1v8.5h-1.1V167.4z"/>
	<path d="M371.2,173.2c0,1.4,0.9,2,2,2c0.8,0,1.2-0.1,1.6-0.3l0.2,0.8c-0.4,0.2-1,0.4-1.9,0.4c-1.8,0-2.9-1.2-2.9-2.9s1-3.1,2.7-3.1
		c1.9,0,2.4,1.7,2.4,2.7c0,0.2,0,0.4,0,0.5H371.2z M374.3,172.4c0-0.7-0.3-1.7-1.5-1.7c-1.1,0-1.5,1-1.6,1.7H374.3z"/>
	<path d="M376.6,171.6c0-0.6,0-1.1,0-1.6h0.9l0.1,1h0c0.3-0.6,1-1.1,1.9-1.1c0.8,0,2.1,0.5,2.1,2.5v3.5h-1.1v-3.3
		c0-0.9-0.3-1.7-1.3-1.7c-0.7,0-1.2,0.5-1.4,1.1c0,0.1-0.1,0.3-0.1,0.5v3.5h-1.1V171.6z"/>
	<path d="M386.5,175.9l-0.1-0.7h0c-0.3,0.5-0.9,0.9-1.8,0.9c-1.2,0-1.8-0.8-1.8-1.7c0-1.4,1.2-2.2,3.5-2.2v-0.1
		c0-0.5-0.1-1.3-1.3-1.3c-0.5,0-1.1,0.2-1.5,0.4l-0.2-0.7c0.5-0.3,1.2-0.5,1.9-0.5c1.8,0,2.2,1.2,2.2,2.4v2.2c0,0.5,0,1,0.1,1.4
		H386.5z M386.3,172.9c-1.2,0-2.5,0.2-2.5,1.3c0,0.7,0.5,1,1,1c0.8,0,1.2-0.5,1.4-1c0-0.1,0.1-0.2,0.1-0.3V172.9z"/>
	<path d="M397.3,175.6c-0.4,0.2-1.2,0.4-2.1,0.4c-2.3,0-4-1.4-4-4.1c0-2.5,1.7-4.2,4.2-4.2c1,0,1.6,0.2,1.9,0.4l-0.3,0.9
		c-0.4-0.2-1-0.3-1.6-0.3c-1.9,0-3.2,1.2-3.2,3.3c0,2,1.1,3.2,3.1,3.2c0.6,0,1.3-0.1,1.7-0.3L397.3,175.6z"/>
	<path d="M401.7,175.9l-0.1-0.7h0c-0.3,0.5-0.9,0.9-1.8,0.9c-1.2,0-1.8-0.8-1.8-1.7c0-1.4,1.2-2.2,3.5-2.2v-0.1
		c0-0.5-0.1-1.3-1.3-1.3c-0.5,0-1.1,0.2-1.5,0.4l-0.2-0.7c0.5-0.3,1.2-0.5,1.9-0.5c1.8,0,2.2,1.2,2.2,2.4v2.2c0,0.5,0,1,0.1,1.4
		H401.7z M401.5,172.9c-1.2,0-2.5,0.2-2.5,1.3c0,0.7,0.5,1,1,1c0.8,0,1.2-0.5,1.4-1c0-0.1,0.1-0.2,0.1-0.3V172.9z"/>
	<path d="M404.3,167.4h1.1v8.5h-1.1V167.4z"/>
	<path d="M408.3,168.4c0,0.4-0.3,0.6-0.7,0.6c-0.4,0-0.6-0.3-0.6-0.6c0-0.4,0.3-0.7,0.7-0.7C408,167.8,408.3,168.1,408.3,168.4z
		 M407.1,175.9v-5.8h1.1v5.8H407.1z"/>
	<path d="M415.2,172.9c0,2.1-1.5,3.1-2.9,3.1c-1.6,0-2.8-1.2-2.8-3c0-1.9,1.3-3.1,2.9-3.1C414,169.9,415.2,171.2,415.2,172.9z
		 M410.6,173c0,1.3,0.7,2.2,1.8,2.2c1,0,1.8-0.9,1.8-2.3c0-1-0.5-2.2-1.7-2.2C411.1,170.7,410.6,171.9,410.6,173z"/>
</g>
</svg>
